#VRML V2.0 utf8
# dimensioned envelope box 16.8x21.8x13.7 mm (Task 14b; not a detailed body model)
Shape {
  appearance Appearance { material Material { diffuseColor 0.55 0.56 0.58 specularColor 0.2 0.2 0.2 shininess 0.5 } }
  geometry IndexedFaceSet {
    coord Coordinate { point [ -3.3070866141732282 -4.291338582677166 0, 3.3070866141732282 -4.291338582677166 0, 3.3070866141732282 4.291338582677166 0, -3.3070866141732282 4.291338582677166 0, -3.3070866141732282 -4.291338582677166 5.393700787401574, 3.3070866141732282 -4.291338582677166 5.393700787401574, 3.3070866141732282 4.291338582677166 5.393700787401574, -3.3070866141732282 4.291338582677166 5.393700787401574 ] }
    coordIndex [ 0 3 2 1 -1, 4 5 6 7 -1, 0 1 5 4 -1, 1 2 6 5 -1, 2 3 7 6 -1, 3 0 4 7 -1 ]
  }
}
