#VRML V2.0 utf8
# 3D model generated by easyeda2kicad.py (https://github.com/uPesy/easyeda2kicad.py)

Shape{
    appearance Appearance {
        material  Material 	{
            diffuseColor 0.11372549019607843 0.11372549019607843 0.11372549019607843
            specularColor 0.058823529411764705 0.058823529411764705 0.058823529411764705
            ambientIntensity 0.1137
            transparency 0.0
            shininess 0.5
        }
    }
    geometry IndexedFaceSet {
        ccw TRUE
        solid FALSE
        coord DEF co Coordinate {
            point [
                0.1298 -0.3897 0.0079, 0.13 -0.3898 0.0079, 0.0996 -0.389 0.0079, -0.065 -0.6496 0.0079, -0.065 -0.4961 0.0079, 0.061 -0.3898 0.0079, -0.1909 -0.4961 0.0079, -0.6496 -0.3898 0.0079, -0.4469 -0.6496 0.0079, -0.6496 -0.6496 0.0079, -0.4469 -0.4961 0.0079, -0.3209 -0.4961 0.0079, -0.3209 -0.6496 0.0079, -0.1909 -0.6496 0.0079, 0.3209 -0.6496 0.0079, 0.1909 -0.6496 0.0079, 0.3209 -0.4961 0.0079, 0.1909 -0.4961 0.0079, 0.061 -0.6496 0.0079, 0.065 -0.4961 0.0079, 0.065 -0.6496 0.0079, 0.0663 -0.336 0.0079, 0.0663 -0.3299 0.0079, 0.061 -0.1378 0.0079, 0.0996 -0.3299 0.0079, 0.4469 -0.0394 0.0079, 0.6496 -0.0394 0.0079, 0.4469 -0.1378 0.0079, 0.6496 -0.3898 0.0079, 0.0663 -0.3602 0.0079, 0.0943 -0.3602 0.0079, 0.0943 -0.3829 0.0079, 0.0663 -0.3829 0.0079, 0.0663 -0.389 0.0079, 0.2041 -0.389 0.0079, 0.1416 -0.3898 0.0079, 0.1761 -0.389 0.0079, 0.1508 -0.3881 0.0079, 0.1565 -0.385 0.0079, 0.0663 -0.3542 0.0079, 0.0943 -0.3542 0.0079, 0.0943 -0.336 0.0079, 0.1988 -0.3299 0.0079, 0.2041 -0.3299 0.0079, 0.6496 -0.6496 0.0079, 0.4469 -0.6496 0.0079, 0.4469 -0.4961 0.0079, 0.1374 -0.3905 0.0079, 0.1344 -0.3904 0.0079, 0.1509 -0.3377 0.0079, 0.16 -0.346 0.0079, 0.1378 -0.3345 0.0079, 0.1639 -0.3571 0.0079, 0.164 -0.3595 0.0079, 0.1609 -0.3717 0.0079, 0.1528 -0.3802 0.0079, 0.1412 -0.3843 0.0079, 0.1599 -0.3822 0.0079, 0.1618 -0.3802 0.0079, 0.1761 -0.3829 0.0079, 0.1675 -0.3704 0.0079, 0.1988 -0.3829 0.0079, 0.1693 -0.3591 0.0079, 0.1117 -0.3781 0.0079, 0.1117 -0.3408 0.0079, 0.1164 -0.3746 0.0079, 0.1164 -0.3443 0.0079, 0.1258 -0.382 0.0079, 0.1259 -0.3369 0.0079, 0.1374 -0.3845 0.0079, 0.1315 -0.3351 0.0079, 0.1354 -0.3346 0.0079, 0.1375 -0.3284 0.0079, 0.1231 -0.3315 0.0079, 0.117 -0.3352 0.0079, 0.1655 -0.344 0.0079, 0.1554 -0.3334 0.0079, 0.1401 -0.3285 0.0079, 0.1136 -0.3385 0.0079, 0.123 -0.3874 0.0079, -0.0061 -0.389 0.0079, -0.0003 -0.389 0.0079, -0.0506 -0.389 0.0079, -0.0419 -0.3701 0.0079, -0.0151 -0.3701 0.0079, -0.6496 -0.0394 0.0079, -0.4469 -0.0394 0.0079, -0.4469 -0.0795 0.0079, 0.0191 -0.3849 0.0079, 0.031 -0.3887 0.0079, 0.0374 -0.389 0.0079, -0.4177 -0.0873 0.0079, -0.3964 -0.1087 0.0079, -0.3886 -0.1378 0.0079, 0.025 -0.3321 0.0079, 0.0144 -0.3392 0.0079, -0.0284 -0.3299 0.0079, 0.0083 -0.3509 0.0079, 0.0072 -0.3602 0.0079, 0.0106 -0.3751 0.0079, 0.0343 -0.3303 0.0079, -0.0291 -0.3299 0.0079, -0.0564 -0.389 0.0079, 0.0557 -0.389 0.0079, 0.0557 -0.3299 0.0079, 0.0438 -0.3299 0.0079, -0.4469 0.3701 0.0079, -0.6496 0.3701 0.0079, -0.4469 0.6496 0.0079, -0.6496 0.6496 0.0079, -0.4469 0.2913 0.0079, -0.4469 0.0394 0.0079, -0.6496 0.2913 0.0079, -0.6496 0.0394 0.0079, 0.4469 0.0394 0.0079, 0.4469 0.2913 0.0079, 0.6496 0.0394 0.0079, 0.6496 0.2913 0.0079, 0.4469 0.3701 0.0079, 0.4469 0.6496 0.0079, 0.6496 0.3701 0.0079, 0.6496 0.6496 0.0079, 0.3209 0.4961 0.0079, 0.1909 0.4961 0.0079, 0.3209 0.6496 0.0079, 0.1909 0.6496 0.0079, 0.065 0.4961 0.0079, -0.065 0.4961 0.0079, 0.065 0.6496 0.0079, -0.065 0.6496 0.0079, 0.6496 0.0394 0.0866, 0.6496 -0.6496 0.3228, 0.6496 0.3701 0.0866, 0.6496 0.6496 0.3228, 0.6496 0.2913 0.0866, 0.6496 -0.0394 0.0866, 0.4469 0.6496 0.0866, 0.3209 0.6496 0.0866, -0.6496 0.6496 0.3228, 0.065 0.6496 0.0866, -0.065 0.6496 0.0866, -0.1909 0.6496 0.0866, 0.1909 0.6496 0.0866, -0.4469 0.6496 0.0866, -0.3209 0.6496 0.0866, -0.3209 0.6496 0.0079, -0.1909 0.6496 0.0079, -0.6496 0.0394 0.0866, -0.6496 -0.0394 0.0866, -0.6496 -0.6496 0.3228, -0.6496 0.3701 0.0866, -0.6496 0.2913 0.0866, -0.4469 -0.6496 0.0866, -0.3209 -0.6496 0.0866, -0.065 -0.6496 0.0866, 0.065 -0.6496 0.0866, 0.1909 -0.6496 0.0866, -0.1909 -0.6496 0.0866, 0.4469 -0.6496 0.0866, 0.3209 -0.6496 0.0866, -0.1909 0.4961 0.0079, -0.3209 0.4961 0.0079
            ]
        }
        coordIndex [
            0,1,2,-1,3,4,5,-1,5,4,6,-1,5,6,7,-1,8,9,10,-1,10,9,7,-1,10,7,11,-1,11,7,6,-1,11,6,12,-1,12,6,13,-1,14,15,16,-1,16,15,17,-1,3,5,18,-1,18,5,19,-1,18,19,20,-1,21,5,22,-1,22,5,23,-1,22,23,24,-1,25,26,27,-1,27,26,28,-1,29,30,31,-1,32,33,5,-1,34,35,36,-1,36,35,37,-1,36,37,38,-1,31,32,29,-1,29,32,5,-1,29,5,39,-1,39,5,21,-1,39,21,40,-1,40,21,41,-1,42,23,43,-1,43,23,27,-1,43,27,34,-1,34,27,28,-1,34,28,35,-1,44,45,28,-1,28,45,46,-1,28,46,35,-1,35,46,16,-1,35,16,47,-1,47,16,17,-1,47,17,48,-1,48,17,19,-1,48,19,1,-1,1,19,5,-1,1,5,2,-1,2,5,33,-1,49,50,51,-1,51,50,52,-1,51,52,53,-1,53,54,51,-1,51,54,55,-1,51,55,56,-1,38,57,36,-1,36,57,58,-1,36,58,59,-1,59,58,60,-1,59,60,61,-1,61,60,62,-1,61,62,42,-1,63,64,65,-1,65,64,66,-1,65,66,67,-1,67,66,68,-1,67,68,69,-1,69,68,70,-1,69,70,56,-1,56,70,71,-1,56,71,51,-1,72,73,23,-1,23,73,74,-1,62,75,42,-1,42,75,76,-1,42,76,23,-1,23,76,77,-1,23,77,72,-1,74,78,23,-1,23,78,64,-1,23,64,24,-1,24,64,63,-1,24,63,2,-1,2,63,79,-1,2,79,0,-1,80,81,5,-1,82,83,84,-1,85,86,7,-1,7,86,87,-1,88,89,81,-1,81,89,90,-1,81,90,5,-1,87,91,7,-1,7,91,92,-1,7,92,93,-1,94,95,96,-1,95,97,96,-1,96,97,98,-1,96,98,81,-1,81,98,99,-1,81,99,88,-1,100,94,23,-1,23,94,96,-1,23,96,93,-1,93,96,101,-1,93,101,7,-1,7,101,102,-1,7,102,5,-1,5,102,82,-1,5,82,80,-1,80,82,84,-1,90,103,5,-1,5,103,104,-1,5,104,23,-1,23,104,105,-1,23,105,100,-1,106,107,108,-1,108,107,109,-1,110,111,112,-1,112,111,113,-1,114,115,116,-1,116,115,117,-1,118,119,120,-1,120,119,121,-1,122,123,124,-1,124,123,125,-1,126,127,128,-1,128,127,129,-1,130,116,117,-1,131,44,28,-1,120,121,132,-1,132,121,133,-1,132,133,134,-1,134,133,131,-1,117,134,130,-1,130,134,131,-1,130,131,135,-1,135,131,28,-1,135,28,26,-1,133,121,119,-1,119,136,133,-1,133,136,137,-1,133,137,138,-1,139,128,129,-1,140,141,138,-1,129,140,139,-1,139,140,138,-1,139,138,142,-1,142,138,137,-1,142,137,125,-1,125,137,124,-1,108,109,143,-1,143,109,138,-1,143,138,144,-1,144,138,141,-1,144,141,145,-1,145,141,146,-1,147,148,149,-1,109,107,138,-1,138,107,150,-1,138,150,151,-1,112,113,151,-1,151,113,147,-1,151,147,138,-1,138,147,149,-1,148,85,149,-1,149,85,7,-1,149,7,9,-1,149,9,8,-1,8,152,149,-1,149,152,153,-1,149,153,131,-1,154,3,18,-1,155,156,131,-1,12,13,153,-1,153,13,157,-1,153,157,131,-1,131,157,154,-1,131,154,155,-1,155,154,18,-1,155,18,20,-1,45,44,158,-1,158,44,131,-1,158,131,159,-1,159,131,156,-1,159,156,14,-1,14,156,15,-1,138,149,133,-1,133,149,131,-1,160,161,146,-1,146,161,145,-1,
        ]
    }
}
Shape{
    appearance Appearance {
        material  Material 	{
            diffuseColor 0.5019607843137255 0.5019607843137255 0.0
            specularColor 0.25098039215686274 0.25098039215686274 0.0
            ambientIntensity 0.4447
            transparency 0.0
            shininess 0.5
        }
    }
    geometry IndexedFaceSet {
        ccw TRUE
        solid FALSE
        coord DEF co Coordinate {
            point [
                0.3209 -0.6535 0.0866, 0.4469 -0.6535 0.0866, 0.3209 -0.6496 0.0866, 0.4469 -0.6496 0.0866
            ]
        }
        coordIndex [
            0,1,2,-1,2,1,3,-1,
        ]
    }
}
Shape{
    appearance Appearance {
        material  Material 	{
            diffuseColor 0.7529411764705882 0.7529411764705882 0.7529411764705882
            specularColor 0.3764705882352941 0.3764705882352941 0.3764705882352941
            ambientIntensity 0.7529
            transparency 0.0
            shininess 0.5
        }
    }
    geometry IndexedFaceSet {
        ccw TRUE
        solid FALSE
        coord DEF co Coordinate {
            point [
                0.4469 -0.6496 0.0866, 0.4469 -0.6535 0.0866, 0.4469 -0.6496 0.0079, 0.4469 -0.6535 0.0, 0.4469 -0.4961 0.0079, 0.4469 -0.4961 0.0, 0.3209 -0.4961 0.0, 0.3209 -0.4961 0.0079, 0.3209 -0.6496 0.0079, 0.3209 -0.6535 0.0, 0.3209 -0.6496 0.0866, 0.3209 -0.6535 0.0866
            ]
        }
        coordIndex [
            0,1,2,-1,2,1,3,-1,2,3,4,-1,4,3,5,-1,5,6,4,-1,4,6,7,-1,7,6,8,-1,8,6,9,-1,8,9,10,-1,10,9,11,-1,
        ]
    }
}
Shape{
    appearance Appearance {
        material  Material 	{
            diffuseColor 0.5019607843137255 0.5019607843137255 0.0
            specularColor 0.25098039215686274 0.25098039215686274 0.0
            ambientIntensity 0.4447
            transparency 0.0
            shininess 0.5
        }
    }
    geometry IndexedFaceSet {
        ccw TRUE
        solid FALSE
        coord DEF co Coordinate {
            point [
                0.4469 -0.6535 0.0, 0.4469 -0.6535 0.0866, 0.3209 -0.6535 0.0, 0.3209 -0.6535 0.0866
            ]
        }
        coordIndex [
            0,1,2,-1,2,1,3,-1,
        ]
    }
}
Shape{
    appearance Appearance {
        material  Material 	{
            diffuseColor 0.7529411764705882 0.7529411764705882 0.7529411764705882
            specularColor 0.3764705882352941 0.3764705882352941 0.3764705882352941
            ambientIntensity 0.7529
            transparency 0.0
            shininess 0.5
        }
    }
    geometry IndexedFaceSet {
        ccw TRUE
        solid FALSE
        coord DEF co Coordinate {
            point [
                0.3209 -0.6535 0.0, 0.3209 -0.4961 0.0, 0.4469 -0.6535 0.0, 0.4469 -0.4961 0.0
            ]
        }
        coordIndex [
            0,1,2,-1,2,1,3,-1,
        ]
    }
}
Shape{
    appearance Appearance {
        material  Material 	{
            diffuseColor 0.5019607843137255 0.5019607843137255 0.0
            specularColor 0.25098039215686274 0.25098039215686274 0.0
            ambientIntensity 0.4447
            transparency 0.0
            shininess 0.5
        }
    }
    geometry IndexedFaceSet {
        ccw TRUE
        solid FALSE
        coord DEF co Coordinate {
            point [
                0.065 -0.6496 0.0866, 0.065 -0.6535 0.0866, 0.1909 -0.6496 0.0866, 0.1909 -0.6535 0.0866
            ]
        }
        coordIndex [
            0,1,2,-1,2,1,3,-1,
        ]
    }
}
Shape{
    appearance Appearance {
        material  Material 	{
            diffuseColor 0.7529411764705882 0.7529411764705882 0.7529411764705882
            specularColor 0.3764705882352941 0.3764705882352941 0.3764705882352941
            ambientIntensity 0.7529
            transparency 0.0
            shininess 0.5
        }
    }
    geometry IndexedFaceSet {
        ccw TRUE
        solid FALSE
        coord DEF co Coordinate {
            point [
                0.1909 -0.6496 0.0866, 0.1909 -0.6535 0.0866, 0.1909 -0.6496 0.0079, 0.1909 -0.6535 0.0, 0.1909 -0.4961 0.0079, 0.1909 -0.4961 0.0, 0.065 -0.4961 0.0, 0.065 -0.4961 0.0079, 0.065 -0.6496 0.0079, 0.065 -0.6535 0.0, 0.065 -0.6496 0.0866, 0.065 -0.6535 0.0866
            ]
        }
        coordIndex [
            0,1,2,-1,2,1,3,-1,2,3,4,-1,4,3,5,-1,5,6,4,-1,4,6,7,-1,7,6,8,-1,8,6,9,-1,8,9,10,-1,10,9,11,-1,
        ]
    }
}
Shape{
    appearance Appearance {
        material  Material 	{
            diffuseColor 0.5019607843137255 0.5019607843137255 0.0
            specularColor 0.25098039215686274 0.25098039215686274 0.0
            ambientIntensity 0.4447
            transparency 0.0
            shininess 0.5
        }
    }
    geometry IndexedFaceSet {
        ccw TRUE
        solid FALSE
        coord DEF co Coordinate {
            point [
                0.1909 -0.6535 0.0, 0.1909 -0.6535 0.0866, 0.065 -0.6535 0.0, 0.065 -0.6535 0.0866
            ]
        }
        coordIndex [
            0,1,2,-1,2,1,3,-1,
        ]
    }
}
Shape{
    appearance Appearance {
        material  Material 	{
            diffuseColor 0.7529411764705882 0.7529411764705882 0.7529411764705882
            specularColor 0.3764705882352941 0.3764705882352941 0.3764705882352941
            ambientIntensity 0.7529
            transparency 0.0
            shininess 0.5
        }
    }
    geometry IndexedFaceSet {
        ccw TRUE
        solid FALSE
        coord DEF co Coordinate {
            point [
                0.065 -0.4961 0.0, 0.1909 -0.4961 0.0, 0.065 -0.6535 0.0, 0.1909 -0.6535 0.0
            ]
        }
        coordIndex [
            0,1,2,-1,2,1,3,-1,
        ]
    }
}
Shape{
    appearance Appearance {
        material  Material 	{
            diffuseColor 0.5019607843137255 0.5019607843137255 0.0
            specularColor 0.25098039215686274 0.25098039215686274 0.0
            ambientIntensity 0.4447
            transparency 0.0
            shininess 0.5
        }
    }
    geometry IndexedFaceSet {
        ccw TRUE
        solid FALSE
        coord DEF co Coordinate {
            point [
                -0.1909 -0.6496 0.0866, -0.1909 -0.6535 0.0866, -0.065 -0.6496 0.0866, -0.065 -0.6535 0.0866
            ]
        }
        coordIndex [
            0,1,2,-1,2,1,3,-1,
        ]
    }
}
Shape{
    appearance Appearance {
        material  Material 	{
            diffuseColor 0.7529411764705882 0.7529411764705882 0.7529411764705882
            specularColor 0.3764705882352941 0.3764705882352941 0.3764705882352941
            ambientIntensity 0.7529
            transparency 0.0
            shininess 0.5
        }
    }
    geometry IndexedFaceSet {
        ccw TRUE
        solid FALSE
        coord DEF co Coordinate {
            point [
                -0.065 -0.6496 0.0866, -0.065 -0.6535 0.0866, -0.065 -0.6496 0.0079, -0.065 -0.6535 0.0, -0.065 -0.4961 0.0079, -0.065 -0.4961 0.0, -0.1909 -0.4961 0.0, -0.1909 -0.4961 0.0079, -0.1909 -0.6496 0.0079, -0.1909 -0.6535 0.0, -0.1909 -0.6496 0.0866, -0.1909 -0.6535 0.0866
            ]
        }
        coordIndex [
            0,1,2,-1,2,1,3,-1,2,3,4,-1,4,3,5,-1,5,6,4,-1,4,6,7,-1,7,6,8,-1,8,6,9,-1,8,9,10,-1,10,9,11,-1,
        ]
    }
}
Shape{
    appearance Appearance {
        material  Material 	{
            diffuseColor 0.5019607843137255 0.5019607843137255 0.0
            specularColor 0.25098039215686274 0.25098039215686274 0.0
            ambientIntensity 0.4447
            transparency 0.0
            shininess 0.5
        }
    }
    geometry IndexedFaceSet {
        ccw TRUE
        solid FALSE
        coord DEF co Coordinate {
            point [
                -0.065 -0.6535 0.0, -0.065 -0.6535 0.0866, -0.1909 -0.6535 0.0, -0.1909 -0.6535 0.0866
            ]
        }
        coordIndex [
            0,1,2,-1,2,1,3,-1,
        ]
    }
}
Shape{
    appearance Appearance {
        material  Material 	{
            diffuseColor 0.7529411764705882 0.7529411764705882 0.7529411764705882
            specularColor 0.3764705882352941 0.3764705882352941 0.3764705882352941
            ambientIntensity 0.7529
            transparency 0.0
            shininess 0.5
        }
    }
    geometry IndexedFaceSet {
        ccw TRUE
        solid FALSE
        coord DEF co Coordinate {
            point [
                -0.1909 -0.4961 0.0, -0.065 -0.4961 0.0, -0.1909 -0.6535 0.0, -0.065 -0.6535 0.0
            ]
        }
        coordIndex [
            0,1,2,-1,2,1,3,-1,
        ]
    }
}
Shape{
    appearance Appearance {
        material  Material 	{
            diffuseColor 0.5019607843137255 0.5019607843137255 0.0
            specularColor 0.25098039215686274 0.25098039215686274 0.0
            ambientIntensity 0.4447
            transparency 0.0
            shininess 0.5
        }
    }
    geometry IndexedFaceSet {
        ccw TRUE
        solid FALSE
        coord DEF co Coordinate {
            point [
                -0.4469 -0.6496 0.0866, -0.4469 -0.6535 0.0866, -0.3209 -0.6496 0.0866, -0.3209 -0.6535 0.0866
            ]
        }
        coordIndex [
            0,1,2,-1,2,1,3,-1,
        ]
    }
}
Shape{
    appearance Appearance {
        material  Material 	{
            diffuseColor 0.7529411764705882 0.7529411764705882 0.7529411764705882
            specularColor 0.3764705882352941 0.3764705882352941 0.3764705882352941
            ambientIntensity 0.7529
            transparency 0.0
            shininess 0.5
        }
    }
    geometry IndexedFaceSet {
        ccw TRUE
        solid FALSE
        coord DEF co Coordinate {
            point [
                -0.3209 -0.6496 0.0866, -0.3209 -0.6535 0.0866, -0.3209 -0.6496 0.0079, -0.3209 -0.6535 0.0, -0.3209 -0.4961 0.0079, -0.3209 -0.4961 0.0, -0.4469 -0.4961 0.0, -0.4469 -0.4961 0.0079, -0.4469 -0.6496 0.0079, -0.4469 -0.6535 0.0, -0.4469 -0.6496 0.0866, -0.4469 -0.6535 0.0866
            ]
        }
        coordIndex [
            0,1,2,-1,2,1,3,-1,2,3,4,-1,4,3,5,-1,5,6,4,-1,4,6,7,-1,7,6,8,-1,8,6,9,-1,8,9,10,-1,10,9,11,-1,
        ]
    }
}
Shape{
    appearance Appearance {
        material  Material 	{
            diffuseColor 0.5019607843137255 0.5019607843137255 0.0
            specularColor 0.25098039215686274 0.25098039215686274 0.0
            ambientIntensity 0.4447
            transparency 0.0
            shininess 0.5
        }
    }
    geometry IndexedFaceSet {
        ccw TRUE
        solid FALSE
        coord DEF co Coordinate {
            point [
                -0.3209 -0.6535 0.0, -0.3209 -0.6535 0.0866, -0.4469 -0.6535 0.0, -0.4469 -0.6535 0.0866
            ]
        }
        coordIndex [
            0,1,2,-1,2,1,3,-1,
        ]
    }
}
Shape{
    appearance Appearance {
        material  Material 	{
            diffuseColor 0.7529411764705882 0.7529411764705882 0.7529411764705882
            specularColor 0.3764705882352941 0.3764705882352941 0.3764705882352941
            ambientIntensity 0.7529
            transparency 0.0
            shininess 0.5
        }
    }
    geometry IndexedFaceSet {
        ccw TRUE
        solid FALSE
        coord DEF co Coordinate {
            point [
                -0.4469 -0.4961 0.0, -0.3209 -0.4961 0.0, -0.4469 -0.6535 0.0, -0.3209 -0.6535 0.0
            ]
        }
        coordIndex [
            0,1,2,-1,2,1,3,-1,
        ]
    }
}
Shape{
    appearance Appearance {
        material  Material 	{
            diffuseColor 0.5019607843137255 0.5019607843137255 0.0
            specularColor 0.25098039215686274 0.25098039215686274 0.0
            ambientIntensity 0.4447
            transparency 0.0
            shininess 0.5
        }
    }
    geometry IndexedFaceSet {
        ccw TRUE
        solid FALSE
        coord DEF co Coordinate {
            point [
                0.6496 0.2913 0.0866, 0.6535 0.2913 0.0866, 0.6496 0.3701 0.0866, 0.6535 0.3701 0.0866, 0.6496 -0.0394 0.0866, 0.6535 -0.0394 0.0866, 0.6496 0.0394 0.0866, 0.6535 0.0394 0.0866
            ]
        }
        coordIndex [
            0,1,2,-1,2,1,3,-1,4,5,6,-1,6,5,7,-1,
        ]
    }
}
Shape{
    appearance Appearance {
        material  Material 	{
            diffuseColor 0.7529411764705882 0.7529411764705882 0.7529411764705882
            specularColor 0.3764705882352941 0.3764705882352941 0.3764705882352941
            ambientIntensity 0.7529
            transparency 0.0
            shininess 0.5
        }
    }
    geometry IndexedFaceSet {
        ccw TRUE
        solid FALSE
        coord DEF co Coordinate {
            point [
                -0.3209 0.6496 0.0866, -0.3209 0.6535 0.0866, -0.4469 0.6496 0.0866, -0.4469 0.6535 0.0866, -0.065 0.6496 0.0866, -0.065 0.6535 0.0866, -0.1909 0.6496 0.0866, -0.1909 0.6535 0.0866, 0.1909 0.6496 0.0866, 0.1909 0.6535 0.0866, 0.065 0.6496 0.0866, 0.065 0.6535 0.0866, 0.4469 0.6496 0.0866, 0.4469 0.6535 0.0866, 0.3209 0.6496 0.0866, 0.3209 0.6535 0.0866, -0.6496 0.0394 0.0866, -0.6535 0.0394 0.0866, -0.6496 -0.0394 0.0866, -0.6535 -0.0394 0.0866, -0.6496 0.3701 0.0866, -0.6535 0.3701 0.0866, -0.6496 0.2913 0.0866, -0.6535 0.2913 0.0866, -0.4469 0.6496 0.0079, -0.4469 0.6535 0.0, -0.4469 0.3701 0.0079, -0.4469 0.3701 0.0, -0.6496 0.3701 0.0079, -0.6535 0.3701 0.0, -0.6496 0.2913 0.0079, -0.6535 0.2913 0.0, -0.4469 0.2913 0.0079, -0.4469 0.2913 0.0, -0.4469 0.0394 0.0, -0.4469 0.0394 0.0079, -0.6496 0.0394 0.0079, -0.6535 0.0394 0.0, -0.6496 -0.0394 0.0079, -0.6535 -0.0394 0.0, -0.4469 -0.0394 0.0079, -0.4469 -0.0394 0.0, -0.4469 -0.0795 0.0, -0.4469 -0.0795 0.0079, -0.4177 -0.0873 0.0079, -0.4177 -0.0873 0.0, -0.3964 -0.1087 0.0079, -0.3964 -0.1087 0.0, -0.3886 -0.1378 0.0079, -0.3886 -0.1378 0.0, 0.061 -0.1378 0.0079, 0.4469 -0.1378 0.0, 0.4469 -0.1378 0.0079, 0.4469 -0.0394 0.0, 0.4469 -0.0394 0.0079, 0.6496 -0.0394 0.0079, 0.6535 -0.0394 0.0, 0.6496 -0.0394 0.0866, 0.6535 -0.0394 0.0866, 0.6496 0.0394 0.0866, 0.6535 0.0394 0.0866, 0.6496 0.0394 0.0079, 0.6535 0.0394 0.0, 0.4469 0.0394 0.0079, 0.4469 0.0394 0.0, 0.4469 0.2913 0.0, 0.4469 0.2913 0.0079, 0.6496 0.2913 0.0079, 0.6535 0.2913 0.0, 0.6496 0.2913 0.0866, 0.6535 0.2913 0.0866, 0.6496 0.3701 0.0866, 0.6535 0.3701 0.0866, 0.6496 0.3701 0.0079, 0.6535 0.3701 0.0, 0.4469 0.3701 0.0079, 0.4469 0.3701 0.0, 0.4469 0.6496 0.0079, 0.4469 0.6535 0.0, 0.3209 0.6496 0.0079, 0.3209 0.6535 0.0, 0.3209 0.4961 0.0079, 0.3209 0.4961 0.0, 0.1909 0.4961 0.0, 0.1909 0.4961 0.0079, 0.1909 0.6496 0.0079, 0.1909 0.6535 0.0, 0.065 0.6496 0.0079, 0.065 0.6535 0.0, 0.065 0.4961 0.0079, 0.065 0.4961 0.0, -0.065 0.4961 0.0, -0.065 0.4961 0.0079, -0.065 0.6496 0.0079, -0.065 0.6535 0.0, -0.1909 0.6496 0.0079, -0.1909 0.6535 0.0, -0.1909 0.4961 0.0079, -0.1909 0.4961 0.0, -0.3209 0.4961 0.0, -0.3209 0.4961 0.0079, -0.3209 0.6496 0.0079, -0.3209 0.6535 0.0
            ]
        }
        coordIndex [
            0,1,2,-1,2,1,3,-1,4,5,6,-1,6,5,7,-1,8,9,10,-1,10,9,11,-1,12,13,14,-1,14,13,15,-1,16,17,18,-1,18,17,19,-1,20,21,22,-1,22,21,23,-1,2,3,24,-1,24,3,25,-1,24,25,26,-1,26,25,27,-1,26,27,28,-1,28,27,29,-1,28,29,20,-1,20,29,21,-1,22,23,30,-1,30,23,31,-1,30,31,32,-1,32,31,33,-1,33,34,32,-1,32,34,35,-1,35,34,36,-1,36,34,37,-1,36,37,16,-1,16,37,17,-1,18,19,38,-1,38,19,39,-1,38,39,40,-1,40,39,41,-1,41,42,40,-1,40,42,43,-1,43,42,44,-1,44,42,45,-1,44,45,46,-1,46,45,47,-1,46,47,48,-1,48,47,49,-1,48,49,50,-1,50,49,51,-1,50,51,52,-1,51,53,52,-1,52,53,54,-1,54,53,55,-1,55,53,56,-1,55,56,57,-1,57,56,58,-1,59,60,61,-1,61,60,62,-1,61,62,63,-1,63,62,64,-1,64,65,63,-1,63,65,66,-1,66,65,67,-1,67,65,68,-1,67,68,69,-1,69,68,70,-1,71,72,73,-1,73,72,74,-1,73,74,75,-1,75,74,76,-1,75,76,77,-1,77,76,78,-1,77,78,12,-1,12,78,13,-1,14,15,79,-1,79,15,80,-1,79,80,81,-1,81,80,82,-1,82,83,81,-1,81,83,84,-1,84,83,85,-1,85,83,86,-1,85,86,8,-1,8,86,9,-1,10,11,87,-1,87,11,88,-1,87,88,89,-1,89,88,90,-1,90,91,89,-1,89,91,92,-1,92,91,93,-1,93,91,94,-1,93,94,4,-1,4,94,5,-1,6,7,95,-1,95,7,96,-1,95,96,97,-1,97,96,98,-1,98,99,97,-1,97,99,100,-1,100,99,101,-1,101,99,102,-1,101,102,0,-1,0,102,1,-1,
        ]
    }
}
Shape{
    appearance Appearance {
        material  Material 	{
            diffuseColor 0.5019607843137255 0.5019607843137255 0.0
            specularColor 0.25098039215686274 0.25098039215686274 0.0
            ambientIntensity 0.4447
            transparency 0.0
            shininess 0.5
        }
    }
    geometry IndexedFaceSet {
        ccw TRUE
        solid FALSE
        coord DEF co Coordinate {
            point [
                -0.6535 0.2913 0.0, -0.6535 0.2913 0.0866, -0.6535 0.3701 0.0, -0.6535 0.3701 0.0866, -0.6535 -0.0394 0.0, -0.6535 -0.0394 0.0866, -0.6535 0.0394 0.0, -0.6535 0.0394 0.0866, 0.6535 0.0394 0.0, 0.6535 0.0394 0.0866, 0.6535 -0.0394 0.0, 0.6535 -0.0394 0.0866, 0.6535 0.3701 0.0, 0.6535 0.3701 0.0866, 0.6535 0.2913 0.0, 0.6535 0.2913 0.0866, 0.3209 0.6535 0.0, 0.3209 0.6535 0.0866, 0.4469 0.6535 0.0, 0.4469 0.6535 0.0866, 0.065 0.6535 0.0, 0.065 0.6535 0.0866, 0.1909 0.6535 0.0, 0.1909 0.6535 0.0866, -0.1909 0.6535 0.0, -0.1909 0.6535 0.0866, -0.065 0.6535 0.0, -0.065 0.6535 0.0866, -0.4469 0.6535 0.0, -0.4469 0.6535 0.0866, -0.3209 0.6535 0.0, -0.3209 0.6535 0.0866
            ]
        }
        coordIndex [
            0,1,2,-1,2,1,3,-1,4,5,6,-1,6,5,7,-1,8,9,10,-1,10,9,11,-1,12,13,14,-1,14,13,15,-1,16,17,18,-1,18,17,19,-1,20,21,22,-1,22,21,23,-1,24,25,26,-1,26,25,27,-1,28,29,30,-1,30,29,31,-1,
        ]
    }
}
Shape{
    appearance Appearance {
        material  Material 	{
            diffuseColor 0.7529411764705882 0.7529411764705882 0.7529411764705882
            specularColor 0.3764705882352941 0.3764705882352941 0.3764705882352941
            ambientIntensity 0.7529
            transparency 0.0
            shininess 0.5
        }
    }
    geometry IndexedFaceSet {
        ccw TRUE
        solid FALSE
        coord DEF co Coordinate {
            point [
                -0.1909 0.4961 0.0, -0.1909 0.6535 0.0, -0.065 0.6535 0.0, 0.4469 0.0394 0.0, 0.6535 0.0394 0.0, 0.6535 -0.0394 0.0, 0.4469 -0.0394 0.0, -0.065 0.4961 0.0, 0.065 0.4961 0.0, 0.065 0.6535 0.0, 0.1909 0.6535 0.0, 0.1909 0.4961 0.0, 0.3209 0.6535 0.0, 0.4469 0.6535 0.0, 0.3209 0.4961 0.0, 0.4469 0.3701 0.0, -0.4469 -0.0795 0.0, -0.4469 -0.0394 0.0, -0.4177 -0.0873 0.0, -0.3964 -0.1087 0.0, -0.3886 -0.1378 0.0, 0.4469 -0.1378 0.0, -0.6535 0.2913 0.0, -0.6535 0.3701 0.0, -0.4469 0.2913 0.0, -0.4469 0.3701 0.0, 0.4469 0.2913 0.0, 0.6535 0.3701 0.0, 0.6535 0.2913 0.0, -0.6535 -0.0394 0.0, -0.6535 0.0394 0.0, -0.4469 0.0394 0.0, -0.4469 0.6535 0.0, -0.3209 0.6535 0.0, -0.3209 0.4961 0.0, -0.0284 -0.3299 0.0157, -0.0291 -0.3299 0.0157, -0.0284 -0.3299 0.0079, -0.0291 -0.3299 0.0079, -0.0564 -0.389 0.0157, -0.0564 -0.389 0.0079, -0.0506 -0.389 0.0157, -0.0506 -0.389 0.0079, -0.0419 -0.3701 0.0157, -0.0419 -0.3701 0.0079, -0.0151 -0.3701 0.0157, -0.0151 -0.3701 0.0079, -0.0061 -0.389 0.0157, -0.0061 -0.389 0.0079, -0.0003 -0.389 0.0157, -0.0003 -0.389 0.0079, -0.0391 -0.364 0.0157, -0.018 -0.364 0.0157, -0.0287 -0.3415 0.0157, -0.0391 -0.364 0.0079, -0.0287 -0.3415 0.0079, -0.018 -0.364 0.0079, 0.0374 -0.389 0.0157, 0.0557 -0.389 0.0157, 0.0374 -0.389 0.0079, 0.0557 -0.389 0.0079, 0.0557 -0.3299 0.0157, 0.0557 -0.3299 0.0079, 0.0438 -0.3299 0.0157, 0.0438 -0.3299 0.0079, 0.025 -0.3321 0.0157, 0.025 -0.3321 0.0079, 0.0343 -0.3303 0.0079, 0.0343 -0.3303 0.0157, 0.0072 -0.3602 0.0157, 0.0072 -0.3602 0.0079, 0.0083 -0.3509 0.0079, 0.0083 -0.3509 0.0157, 0.0144 -0.3392 0.0079, 0.0144 -0.3392 0.0157, 0.031 -0.3887 0.0079, 0.031 -0.3887 0.0157, 0.0191 -0.3849 0.0079, 0.0191 -0.3849 0.0157, 0.0106 -0.3751 0.0079, 0.0106 -0.3751 0.0157, 0.0135 -0.3676 0.0157, 0.0183 -0.3762 0.0157, 0.0267 -0.3814 0.0157, 0.0351 -0.3827 0.0157, 0.0436 -0.3829 0.0157, 0.0504 -0.3829 0.0157, 0.0504 -0.336 0.0157, 0.0462 -0.336 0.0157, 0.0371 -0.3363 0.0157, 0.0281 -0.3377 0.0157, 0.0216 -0.3408 0.0157, 0.0151 -0.3484 0.0157, 0.0125 -0.3602 0.0157, 0.0504 -0.336 0.0079, 0.0504 -0.3829 0.0079, 0.0462 -0.336 0.0079, 0.0371 -0.3363 0.0079, 0.0281 -0.3377 0.0079, 0.0216 -0.3408 0.0079, 0.0151 -0.3484 0.0079, 0.0125 -0.3602 0.0079, 0.0135 -0.3676 0.0079, 0.0183 -0.3762 0.0079, 0.0267 -0.3814 0.0079, 0.0351 -0.3827 0.0079, 0.0436 -0.3829 0.0079, 0.0996 -0.389 0.0157, 0.0996 -0.3299 0.0157, 0.0996 -0.389 0.0079, 0.0996 -0.3299 0.0079, 0.0663 -0.3299 0.0157, 0.0663 -0.3299 0.0079, 0.0663 -0.336 0.0157, 0.0663 -0.336 0.0079, 0.0943 -0.336 0.0157, 0.0943 -0.336 0.0079, 0.0943 -0.3542 0.0157, 0.0943 -0.3542 0.0079, 0.0663 -0.3542 0.0157, 0.0663 -0.3542 0.0079, 0.0663 -0.3602 0.0157, 0.0663 -0.3602 0.0079, 0.0943 -0.3602 0.0157, 0.0943 -0.3602 0.0079, 0.0943 -0.3829 0.0157, 0.0943 -0.3829 0.0079, 0.0663 -0.3829 0.0157, 0.0663 -0.3829 0.0079, 0.0663 -0.389 0.0157, 0.0663 -0.389 0.0079, 0.1117 -0.3408 0.0157, 0.1117 -0.3408 0.0079, 0.1136 -0.3385 0.0079, 0.1136 -0.3385 0.0157, 0.117 -0.3352 0.0079, 0.117 -0.3352 0.0157, 0.1231 -0.3315 0.0079, 0.1231 -0.3315 0.0157, 0.1375 -0.3284 0.0079, 0.1375 -0.3284 0.0157, 0.1164 -0.3443 0.0157, 0.1164 -0.3443 0.0079, 0.1378 -0.3345 0.0157, 0.1378 -0.3345 0.0079, 0.1354 -0.3346 0.0079, 0.1354 -0.3346 0.0157, 0.1315 -0.3351 0.0079, 0.1315 -0.3351 0.0157, 0.1259 -0.3369 0.0079, 0.1259 -0.3369 0.0157, 0.164 -0.3595 0.0157, 0.164 -0.3595 0.0079, 0.1639 -0.3571 0.0079, 0.1639 -0.3571 0.0157, 0.16 -0.346 0.0079, 0.16 -0.346 0.0157, 0.1509 -0.3377 0.0079, 0.1509 -0.3377 0.0157, 0.1374 -0.3845 0.0157, 0.1374 -0.3845 0.0079, 0.1412 -0.3843 0.0079, 0.1412 -0.3843 0.0157, 0.1528 -0.3802 0.0079, 0.1528 -0.3802 0.0157, 0.1609 -0.3717 0.0079, 0.1609 -0.3717 0.0157, 0.1164 -0.3746 0.0157, 0.1164 -0.3746 0.0079, 0.1258 -0.382 0.0079, 0.1258 -0.382 0.0157, 0.1117 -0.3781 0.0157, 0.1117 -0.3781 0.0079, 0.1374 -0.3905 0.0157, 0.1374 -0.3905 0.0079, 0.1344 -0.3904 0.0079, 0.1344 -0.3904 0.0157, 0.13 -0.3898 0.0079, 0.1298 -0.3897 0.0157, 0.1298 -0.3897 0.0079, 0.123 -0.3874 0.0079, 0.123 -0.3874 0.0157, 0.1416 -0.3898 0.0079, 0.1508 -0.3881 0.0157, 0.1508 -0.3881 0.0079, 0.1565 -0.385 0.0157, 0.1565 -0.385 0.0079, 0.1599 -0.3822 0.0157, 0.1599 -0.3822 0.0079, 0.1618 -0.3802 0.0157, 0.1618 -0.3802 0.0079, 0.1693 -0.3591 0.0157, 0.1693 -0.3591 0.0079, 0.1675 -0.3704 0.0079, 0.1675 -0.3704 0.0157, 0.1401 -0.3285 0.0079, 0.1401 -0.3285 0.0157, 0.1554 -0.3334 0.0079, 0.1554 -0.3334 0.0157, 0.1655 -0.344 0.0079, 0.1655 -0.344 0.0157, 0.2041 -0.389 0.0157, 0.2041 -0.3299 0.0157, 0.2041 -0.389 0.0079, 0.2041 -0.3299 0.0079, 0.1988 -0.3299 0.0157, 0.1988 -0.3299 0.0079, 0.1988 -0.3829 0.0157, 0.1988 -0.3829 0.0079, 0.1761 -0.3829 0.0157, 0.1761 -0.3829 0.0079, 0.1761 -0.389 0.0157, 0.1761 -0.389 0.0079
            ]
        }
        coordIndex [
            0,1,2,-1,3,4,5,-1,6,7,8,-1,9,10,8,-1,8,10,11,-1,12,13,14,-1,14,13,15,-1,16,17,18,-1,18,17,7,-1,18,7,19,-1,19,7,6,-1,19,6,20,-1,20,6,21,-1,22,23,24,-1,24,23,25,-1,5,6,3,-1,3,6,8,-1,3,8,26,-1,26,8,11,-1,27,28,15,-1,15,28,26,-1,15,26,14,-1,14,26,11,-1,29,30,17,-1,17,30,31,-1,17,31,7,-1,7,31,24,-1,32,33,25,-1,25,33,34,-1,25,34,24,-1,24,34,0,-1,24,0,7,-1,7,0,2,-1,35,36,37,-1,37,36,38,-1,36,39,38,-1,38,39,40,-1,39,41,40,-1,40,41,42,-1,41,43,42,-1,42,43,44,-1,43,45,44,-1,44,45,46,-1,45,47,46,-1,46,47,48,-1,47,49,48,-1,48,49,50,-1,49,35,50,-1,50,35,37,-1,51,39,36,-1,35,52,36,-1,36,52,53,-1,36,53,51,-1,49,47,45,-1,41,39,43,-1,43,39,51,-1,43,51,45,-1,45,51,52,-1,45,52,49,-1,49,52,35,-1,51,53,54,-1,54,53,55,-1,52,51,56,-1,56,51,54,-1,53,52,55,-1,55,52,56,-1,57,58,59,-1,59,58,60,-1,58,61,60,-1,60,61,62,-1,61,63,62,-1,62,63,64,-1,65,66,67,-1,65,67,68,-1,68,67,64,-1,68,64,63,-1,69,70,71,-1,69,71,72,-1,72,71,73,-1,72,73,74,-1,74,73,66,-1,74,66,65,-1,57,59,75,-1,57,75,76,-1,76,75,77,-1,76,77,78,-1,78,77,79,-1,78,79,80,-1,80,79,70,-1,80,70,69,-1,81,82,78,-1,78,82,83,-1,78,83,76,-1,76,83,84,-1,76,84,57,-1,57,84,85,-1,57,85,58,-1,58,85,86,-1,58,86,61,-1,61,86,87,-1,61,87,63,-1,63,87,88,-1,63,88,68,-1,68,88,89,-1,68,89,65,-1,65,89,90,-1,65,90,74,-1,74,90,91,-1,74,91,72,-1,72,91,92,-1,72,92,69,-1,69,92,93,-1,69,93,80,-1,80,93,81,-1,80,81,78,-1,87,86,94,-1,94,86,95,-1,88,87,96,-1,96,87,94,-1,88,96,97,-1,88,97,89,-1,89,97,98,-1,89,98,90,-1,90,98,99,-1,90,99,91,-1,91,99,100,-1,91,100,92,-1,92,100,101,-1,92,101,93,-1,93,101,102,-1,93,102,81,-1,81,102,103,-1,81,103,82,-1,82,103,104,-1,82,104,83,-1,83,104,105,-1,83,105,84,-1,84,105,106,-1,84,106,85,-1,86,85,95,-1,95,85,106,-1,107,108,109,-1,109,108,110,-1,108,111,110,-1,110,111,112,-1,111,113,112,-1,112,113,114,-1,113,115,114,-1,114,115,116,-1,115,117,116,-1,116,117,118,-1,117,119,118,-1,118,119,120,-1,119,121,120,-1,120,121,122,-1,121,123,122,-1,122,123,124,-1,123,125,124,-1,124,125,126,-1,125,127,126,-1,126,127,128,-1,127,129,128,-1,128,129,130,-1,129,107,130,-1,130,107,109,-1,107,129,127,-1,127,125,107,-1,107,125,123,-1,107,123,108,-1,113,111,115,-1,115,111,108,-1,115,108,117,-1,117,108,123,-1,117,123,119,-1,119,123,121,-1,131,132,133,-1,131,133,134,-1,134,133,135,-1,134,135,136,-1,136,135,137,-1,136,137,138,-1,138,137,139,-1,138,139,140,-1,131,141,132,-1,132,141,142,-1,143,144,145,-1,143,145,146,-1,146,145,147,-1,146,147,148,-1,148,147,149,-1,148,149,150,-1,150,149,142,-1,150,142,141,-1,151,152,153,-1,151,153,154,-1,154,153,155,-1,154,155,156,-1,156,155,157,-1,156,157,158,-1,158,157,144,-1,158,144,143,-1,159,160,161,-1,159,161,162,-1,162,161,163,-1,162,163,164,-1,164,163,165,-1,164,165,166,-1,166,165,152,-1,166,152,151,-1,167,168,169,-1,167,169,170,-1,170,169,160,-1,170,160,159,-1,167,171,168,-1,168,171,172,-1,173,174,175,-1,173,175,176,-1,176,175,177,-1,176,177,178,-1,177,179,178,-1,178,179,180,-1,178,180,181,-1,181,180,172,-1,181,172,171,-1,174,173,182,-1,182,173,183,-1,182,183,184,-1,184,183,185,-1,184,185,186,-1,186,185,187,-1,186,187,188,-1,188,187,189,-1,188,189,190,-1,191,192,193,-1,191,193,194,-1,194,193,190,-1,194,190,189,-1,140,139,195,-1,140,195,196,-1,196,195,197,-1,196,197,198,-1,198,197,199,-1,198,199,200,-1,200,199,192,-1,200,192,191,-1,171,167,181,-1,181,167,170,-1,191,194,166,-1,166,194,164,-1,164,194,189,-1,164,189,187,-1,141,131,134,-1,141,134,150,-1,150,134,136,-1,150,136,138,-1,187,185,164,-1,164,185,183,-1,164,183,162,-1,162,183,173,-1,162,173,159,-1,159,173,176,-1,159,176,170,-1,170,176,178,-1,170,178,181,-1,166,151,191,-1,191,151,154,-1,191,154,200,-1,200,154,156,-1,200,156,198,-1,198,156,158,-1,198,158,196,-1,196,158,143,-1,196,143,140,-1,140,143,146,-1,140,146,138,-1,138,146,148,-1,138,148,150,-1,201,202,203,-1,203,202,204,-1,202,205,204,-1,204,205,206,-1,205,207,206,-1,206,207,208,-1,207,209,208,-1,208,209,210,-1,209,211,210,-1,210,211,212,-1,211,201,212,-1,212,201,203,-1,205,202,207,-1,207,202,201,-1,207,201,209,-1,209,201,211,-1,
        ]
    }
}
Shape{
    appearance Appearance {
        material  Material 	{
            diffuseColor 0.11372549019607843 0.11372549019607843 0.11372549019607843
            specularColor 0.058823529411764705 0.058823529411764705 0.058823529411764705
            ambientIntensity 0.1137
            transparency 0.0
            shininess 0.5
        }
    }
    geometry IndexedFaceSet {
        ccw TRUE
        solid FALSE
        coord DEF co Coordinate {
            point [
                -0.0287 -0.3415 0.0079, -0.018 -0.364 0.0079, -0.0391 -0.364 0.0079, 0.0504 -0.336 0.0079, 0.0504 -0.3829 0.0079, 0.0462 -0.336 0.0079, 0.0436 -0.3829 0.0079, 0.0371 -0.3363 0.0079, 0.0351 -0.3827 0.0079, 0.0281 -0.3377 0.0079, 0.0267 -0.3814 0.0079, 0.0183 -0.3762 0.0079, 0.0135 -0.3676 0.0079, 0.0125 -0.3602 0.0079, 0.0151 -0.3484 0.0079, 0.0216 -0.3408 0.0079
            ]
        }
        coordIndex [
            0,1,2,-1,3,4,5,-1,5,4,6,-1,5,6,7,-1,7,6,8,-1,7,8,9,-1,10,11,8,-1,8,11,12,-1,8,12,13,-1,13,14,8,-1,8,14,15,-1,8,15,9,-1,
        ]
    }
}