#VRML V2.0 utf8
# dimensioned envelope box 10.1x10.1x4.7 mm (Task 14b; not a detailed body model)
Shape {
  appearance Appearance { material Material { diffuseColor 0.3 0.3 0.32 specularColor 0.2 0.2 0.2 shininess 0.5 } }
  geometry IndexedFaceSet {
    coord Coordinate { point [ -1.9881889763779526 -1.9881889763779526 0, 1.9881889763779526 -1.9881889763779526 0, 1.9881889763779526 1.9881889763779526 0, -1.9881889763779526 1.9881889763779526 0, -1.9881889763779526 -1.9881889763779526 1.8503937007874016, 1.9881889763779526 -1.9881889763779526 1.8503937007874016, 1.9881889763779526 1.9881889763779526 1.8503937007874016, -1.9881889763779526 1.9881889763779526 1.8503937007874016 ] }
    coordIndex [ 0 3 2 1 -1, 4 5 6 7 -1, 0 1 5 4 -1, 1 2 6 5 -1, 2 3 7 6 -1, 3 0 4 7 -1 ]
  }
}
