#VRML V2.0 utf8
# dimensioned envelope box 18.2x18.3x8.9 mm (Task 14b; not a detailed body model)
Shape {
  appearance Appearance { material Material { diffuseColor 0.3 0.3 0.32 specularColor 0.2 0.2 0.2 shininess 0.5 } }
  geometry IndexedFaceSet {
    coord Coordinate { point [ -3.5826771653543306 -3.6023622047244097 0, 3.5826771653543306 -3.6023622047244097 0, 3.5826771653543306 3.6023622047244097 0, -3.5826771653543306 3.6023622047244097 0, -3.5826771653543306 -3.6023622047244097 3.5039370078740157, 3.5826771653543306 -3.6023622047244097 3.5039370078740157, 3.5826771653543306 3.6023622047244097 3.5039370078740157, -3.5826771653543306 3.6023622047244097 3.5039370078740157 ] }
    coordIndex [ 0 3 2 1 -1, 4 5 6 7 -1, 0 1 5 4 -1, 1 2 6 5 -1, 2 3 7 6 -1, 3 0 4 7 -1 ]
  }
}
