#VRML V2.0 utf8
# 3D model generated by easyeda2kicad.py (https://github.com/uPesy/easyeda2kicad.py)

Shape{
    appearance Appearance {
        material  Material 	{
            diffuseColor 0.2235294117647059 0.2235294117647059 0.2235294117647059
            specularColor 0.11372549019607843 0.11372549019607843 0.11372549019607843
            ambientIntensity 0.2235
            transparency 0.0
            shininess 0.5
        }
    }
    geometry IndexedFaceSet {
        ccw TRUE
        solid FALSE
        coord DEF co Coordinate {
            point [
                0.3346 0.2115 0.0827, 0.3346 0.2115 0.0472, 0.2953 0.2509 0.0472, 0.2953 0.2509 0.0039, 0.2165 0.3296 0.0039, 0.2165 0.3296 0.0827, -0.0689 0.2706 0.0039, -0.2953 -0.2609 0.0039, -0.0689 0.3296 0.0039, -0.2953 0.2509 0.0039, -0.315 0.3296 0.0039, -0.3346 0.2509 0.0039, -0.1063 -0.0832 0.0039, -0.0886 -0.1028 0.0039, -0.0886 -0.3396 0.0039, -0.3346 -0.32 0.0039, -0.3346 -0.2609 0.0039, 0.2953 -0.2609 0.0039, 0.0689 0.2706 0.0039, 0.0689 0.3296 0.0039, -0.3346 0.31 0.0039, -0.334 0.3151 0.0039, -0.332 0.3198 0.0039, 0.315 -0.3396 0.0039, 0.3346 -0.2609 0.0039, -0.3289 0.3239 0.0039, -0.3248 0.327 0.0039, -0.3201 0.329 0.0039, -0.3201 -0.339 0.0039, -0.3248 -0.337 0.0039, -0.1197 -0.0605 0.0039, -0.1284 -0.0355 0.0039, -0.1319 -0.0093 0.0039, 0.3346 -0.32 0.0039, 0.334 -0.3251 0.0039, 0.332 -0.3298 0.0039, -0.315 -0.3396 0.0039, 0.3289 -0.3339 0.0039, 0.3248 -0.337 0.0039, 0.3201 -0.339 0.0039, -0.3289 -0.3339 0.0039, -0.332 -0.3298 0.0039, -0.334 -0.3251 0.0039, 0.0886 -0.3396 0.0039, 0.0886 -0.1028 0.0039, 0.1063 -0.0832 0.0039, 0.1197 -0.0605 0.0039, 0.1284 -0.0355 0.0039, 0.1319 -0.0093 0.0039, 0.1112 0.066 0.0039, 0.1231 0.0425 0.0039, 0.1301 0.017 0.0039, 0.0948 0.0868 0.0039, 0.0747 0.1038 0.0039, 0.0515 0.1165 0.0039, -0.0263 0.1243 0.0039, 0.0 0.1269 0.0039, 0.0263 0.1243 0.0039, -0.0515 0.1165 0.0039, -0.0747 0.1038 0.0039, -0.0948 0.0868 0.0039, -0.1112 0.066 0.0039, -0.1231 0.0425 0.0039, -0.1301 0.017 0.0039
            ]
        }
        coordIndex [
            0,1,2,-1,3,4,2,-1,2,4,5,-1,2,5,0,-1,6,7,8,-1,8,7,9,-1,8,9,10,-1,10,9,11,-1,12,13,14,-1,15,16,7,-1,3,17,4,-1,4,17,18,-1,4,18,19,-1,11,20,10,-1,10,20,21,-1,10,21,22,-1,23,17,24,-1,22,25,10,-1,10,25,26,-1,10,26,27,-1,28,29,15,-1,30,7,31,-1,31,7,32,-1,24,33,23,-1,23,33,34,-1,23,34,35,-1,30,12,7,-1,7,12,14,-1,7,14,15,-1,15,14,36,-1,15,36,28,-1,37,38,35,-1,35,38,39,-1,35,39,23,-1,40,41,29,-1,29,41,42,-1,29,42,15,-1,23,43,17,-1,17,43,44,-1,17,44,45,-1,45,46,17,-1,17,46,47,-1,17,47,48,-1,49,18,50,-1,50,18,17,-1,50,17,51,-1,51,17,48,-1,49,52,18,-1,18,52,53,-1,18,53,54,-1,55,6,56,-1,56,6,18,-1,56,18,57,-1,57,18,54,-1,55,58,6,-1,6,58,59,-1,6,59,60,-1,60,61,6,-1,6,61,62,-1,6,62,7,-1,7,62,63,-1,7,63,32,-1,
        ]
    }
}
Shape{
    appearance Appearance {
        material  Material 	{
            diffuseColor 0.9686274509803922 0.8784313725490196 0.6
            specularColor 0.6784313725490196 0.615686274509804 0.4196078431372549
            ambientIntensity 0.8737
            transparency 0.0
            shininess 0.5
        }
    }
    geometry IndexedFaceSet {
        ccw TRUE
        solid FALSE
        coord DEF co Coordinate {
            point [
                0.0 0.0442 0.2402, -0.0085 0.0435 0.2402, -0.0168 0.0412 0.2402, -0.0316 0.0327 0.2402, 0.0426 -0.0296 0.2402, -0.0246 0.0376 0.2402, -0.0377 0.0266 0.2402, -0.0426 0.0196 0.2402, -0.0462 0.0118 0.2402, -0.0485 0.0035 0.2402, -0.0492 -0.005 0.2402, -0.0485 -0.0135 0.2402, -0.0377 -0.0366 0.2402, -0.0316 -0.0427 0.2402, 0.0168 -0.0512 0.2402, -0.0246 -0.0476 0.2402, -0.0426 -0.0296 0.2402, 0.0246 -0.0476 0.2402, 0.0316 -0.0427 0.2402, -0.0462 -0.0218 0.2402, 0.0377 -0.0366 0.2402, 0.0462 -0.0218 0.2402, 0.0485 -0.0135 0.2402, 0.0492 -0.005 0.2402, -0.0168 -0.0512 0.2402, -0.0085 -0.0535 0.2402, 0.0085 -0.0535 0.2402, 0.0 -0.0542 0.2402, 0.0485 0.0035 0.2402, 0.0462 0.0118 0.2402, 0.0426 0.0196 0.2402, 0.0377 0.0266 0.2402, 0.0316 0.0327 0.2402, 0.0246 0.0376 0.2402, 0.0168 0.0412 0.2402, 0.0085 0.0435 0.2402, 0.0 0.0544 0.2388, -0.0103 0.0535 0.2388, 0.0 0.0639 0.2349, -0.012 0.0629 0.2349, 0.0 0.0721 0.2286, -0.0134 0.0709 0.2286, 0.0 0.0783 0.2205, -0.0145 0.077 0.2205, 0.0 0.0822 0.211, -0.0151 0.0809 0.211, 0.0 0.0836 0.2008, -0.0154 0.0822 0.2008, -0.0211 0.0807 0.2008, -0.0298 0.077 0.211, -0.0303 0.0782 0.2008, -0.0411 0.0732 0.2008, -0.0436 0.0706 0.211, -0.0443 0.0717 0.2008, -0.0569 0.0629 0.2008, -0.0561 0.0618 0.211, -0.0586 0.0612 0.2008, -0.0668 0.0511 0.211, -0.0679 0.0519 0.2008, -0.0756 0.0386 0.211, -0.0726 0.0451 0.2008, -0.0767 0.0393 0.2008, -0.0827 0.0264 0.2008, -0.082 0.0248 0.211, -0.0832 0.0253 0.2008, -0.0872 0.0104 0.2008, -0.0859 0.0101 0.211, -0.0877 0.0057 0.2008, -0.0872 -0.005 0.211, -0.0886 -0.005 0.2008, -0.0877 -0.0157 0.2008, -0.0859 -0.0201 0.211, -0.0872 -0.0204 0.2008, -0.0832 -0.0353 0.2008, -0.082 -0.0348 0.211, -0.0827 -0.0364 0.2008, -0.0756 -0.0486 0.211, -0.0767 -0.0493 0.2008, -0.0726 -0.0551 0.2008, -0.0668 -0.0611 0.211, -0.0679 -0.0619 0.2008, -0.0586 -0.0712 0.2008, -0.0561 -0.0718 0.211, -0.0569 -0.0729 0.2008, -0.0443 -0.0817 0.2008, -0.0436 -0.0806 0.211, -0.0411 -0.0832 0.2008, -0.0298 -0.087 0.211, -0.0303 -0.0882 0.2008, -0.0211 -0.0907 0.2008, -0.0151 -0.0909 0.211, -0.0154 -0.0922 0.2008, 0.0 -0.0936 0.2008, 0.0 -0.0922 0.211, -0.0285 0.0733 0.2205, -0.0417 0.0671 0.2205, -0.0535 0.0588 0.2205, -0.0638 0.0485 0.2205, -0.0721 0.0367 0.2205, -0.0783 0.0235 0.2205, -0.082 0.0095 0.2205, -0.0833 -0.005 0.2205, -0.082 -0.0195 0.2205, -0.0783 -0.0335 0.2205, -0.0721 -0.0467 0.2205, -0.0638 -0.0585 0.2205, -0.0535 -0.0688 0.2205, -0.0417 -0.0771 0.2205, -0.0285 -0.0833 0.2205, -0.0145 -0.087 0.2205, 0.0 -0.0883 0.2205, -0.0264 0.0674 0.2286, -0.0385 0.0617 0.2286, -0.0495 0.054 0.2286, -0.059 0.0445 0.2286, -0.0667 0.0335 0.2286, -0.0724 0.0214 0.2286, -0.0759 0.0084 0.2286, -0.0771 -0.005 0.2286, -0.0759 -0.0184 0.2286, -0.0724 -0.0314 0.2286, -0.0667 -0.0435 0.2286, -0.059 -0.0545 0.2286, -0.0495 -0.064 0.2286, -0.0385 -0.0717 0.2286, -0.0264 -0.0774 0.2286, -0.0134 -0.0809 0.2286, 0.0 -0.0821 0.2286, -0.0236 0.0597 0.2349, -0.0344 0.0547 0.2349, -0.0443 0.0478 0.2349, -0.0528 0.0393 0.2349, -0.0597 0.0294 0.2349, -0.0647 0.0186 0.2349, -0.0679 0.007 0.2349, -0.0689 -0.005 0.2349, -0.0679 -0.017 0.2349, -0.0647 -0.0286 0.2349, -0.0597 -0.0394 0.2349, -0.0528 -0.0493 0.2349, -0.0443 -0.0578 0.2349, -0.0344 -0.0647 0.2349, -0.0236 -0.0697 0.2349, -0.012 -0.0729 0.2349, 0.0 -0.0739 0.2349, -0.0203 0.0508 0.2388, -0.0297 0.0464 0.2388, -0.0382 0.0405 0.2388, -0.0455 0.0332 0.2388, -0.0514 0.0247 0.2388, -0.0558 0.0153 0.2388, -0.0585 0.0053 0.2388, -0.0594 -0.005 0.2388, -0.0585 -0.0153 0.2388, -0.0558 -0.0253 0.2388, -0.0514 -0.0347 0.2388, -0.0455 -0.0432 0.2388, -0.0382 -0.0505 0.2388, -0.0297 -0.0564 0.2388, -0.0203 -0.0608 0.2388, -0.0103 -0.0635 0.2388, 0.0 -0.0644 0.2388, 0.0103 -0.0635 0.2388, 0.012 -0.0729 0.2349, 0.0134 -0.0809 0.2286, 0.0145 -0.087 0.2205, 0.0151 -0.0909 0.211, 0.0154 -0.0922 0.2008, 0.0211 -0.0907 0.2008, 0.0298 -0.087 0.211, 0.0303 -0.0882 0.2008, 0.0411 -0.0832 0.2008, 0.0436 -0.0806 0.211, 0.0443 -0.0817 0.2008, 0.0569 -0.0729 0.2008, 0.0561 -0.0718 0.211, 0.0586 -0.0712 0.2008, 0.0668 -0.0611 0.211, 0.0679 -0.0619 0.2008, 0.0756 -0.0486 0.211, 0.0726 -0.0551 0.2008, 0.0767 -0.0493 0.2008, 0.0827 -0.0364 0.2008, 0.082 -0.0348 0.211, 0.0832 -0.0353 0.2008, 0.0872 -0.0204 0.2008, 0.0859 -0.0201 0.211, 0.0877 -0.0157 0.2008, 0.0872 -0.005 0.211, 0.0886 -0.005 0.2008, 0.0877 0.0057 0.2008, 0.0859 0.0101 0.211, 0.0872 0.0104 0.2008, 0.0832 0.0253 0.2008, 0.082 0.0248 0.211, 0.0827 0.0264 0.2008, 0.0756 0.0386 0.211, 0.0767 0.0393 0.2008, 0.0726 0.0451 0.2008, 0.0668 0.0511 0.211, 0.0679 0.0519 0.2008, 0.0586 0.0612 0.2008, 0.0561 0.0618 0.211, 0.0569 0.0629 0.2008, 0.0443 0.0717 0.2008, 0.0436 0.0706 0.211, 0.0411 0.0732 0.2008, 0.0298 0.077 0.211, 0.0303 0.0782 0.2008, 0.0211 0.0807 0.2008, 0.0151 0.0809 0.211, 0.0154 0.0822 0.2008, 0.0285 -0.0833 0.2205, 0.0417 -0.0771 0.2205, 0.0535 -0.0688 0.2205, 0.0638 -0.0585 0.2205, 0.0721 -0.0467 0.2205, 0.0783 -0.0335 0.2205, 0.082 -0.0195 0.2205, 0.0833 -0.005 0.2205, 0.082 0.0095 0.2205, 0.0783 0.0235 0.2205, 0.0721 0.0367 0.2205, 0.0638 0.0485 0.2205, 0.0535 0.0588 0.2205, 0.0417 0.0671 0.2205, 0.0285 0.0733 0.2205, 0.0145 0.077 0.2205, 0.0264 -0.0774 0.2286, 0.0385 -0.0717 0.2286, 0.0495 -0.064 0.2286, 0.059 -0.0545 0.2286, 0.0667 -0.0435 0.2286, 0.0724 -0.0314 0.2286, 0.0759 -0.0184 0.2286, 0.0771 -0.005 0.2286, 0.0759 0.0084 0.2286, 0.0724 0.0214 0.2286, 0.0667 0.0335 0.2286, 0.059 0.0445 0.2286, 0.0495 0.054 0.2286, 0.0385 0.0617 0.2286, 0.0264 0.0674 0.2286, 0.0134 0.0709 0.2286, 0.0236 -0.0697 0.2349, 0.0344 -0.0647 0.2349, 0.0443 -0.0578 0.2349, 0.0528 -0.0493 0.2349, 0.0597 -0.0394 0.2349, 0.0647 -0.0286 0.2349, 0.0679 -0.017 0.2349, 0.0689 -0.005 0.2349, 0.0679 0.007 0.2349, 0.0647 0.0186 0.2349, 0.0597 0.0294 0.2349, 0.0528 0.0393 0.2349, 0.0443 0.0478 0.2349, 0.0344 0.0547 0.2349, 0.0236 0.0597 0.2349, 0.012 0.0629 0.2349, 0.0203 -0.0608 0.2388, 0.0297 -0.0564 0.2388, 0.0382 -0.0505 0.2388, 0.0455 -0.0432 0.2388, 0.0514 -0.0347 0.2388, 0.0558 -0.0253 0.2388, 0.0585 -0.0153 0.2388, 0.0594 -0.005 0.2388, 0.0585 0.0053 0.2388, 0.0558 0.0153 0.2388, 0.0514 0.0247 0.2388, 0.0455 0.0332 0.2388, 0.0382 0.0405 0.2388, 0.0297 0.0464 0.2388, 0.0203 0.0508 0.2388, 0.0103 0.0535 0.2388, 0.0 -0.0936 0.0827, 0.0212 -0.091 0.0827, 0.0412 -0.0834 0.0827, 0.0587 -0.0713 0.0827, 0.0729 -0.0553 0.0827, 0.0828 -0.0364 0.0827, 0.0879 -0.0157 0.0827, 0.0879 0.0057 0.0827, 0.0828 0.0264 0.0827, 0.0729 0.0453 0.0827, 0.0587 0.0613 0.0827, 0.0412 0.0734 0.0827, 0.0212 0.081 0.0827, 0.0 0.0836 0.0827, -0.0212 0.081 0.0827, -0.0412 0.0734 0.0827, -0.0587 0.0613 0.0827, -0.0729 0.0453 0.0827, -0.0828 0.0264 0.0827, -0.0879 0.0057 0.0827, -0.0879 -0.0157 0.0827, -0.0828 -0.0364 0.0827, -0.0729 -0.0553 0.0827, -0.0587 -0.0713 0.0827, -0.0412 -0.0834 0.0827, -0.0212 -0.091 0.0827, -0.0886 -0.3987 0.0394, -0.0886 -0.3987 0.0, 0.0886 -0.3987 0.0394, 0.0886 -0.3987 0.0, 0.0886 -0.1028 0.0, 0.0886 -0.1028 0.0039, 0.0886 -0.3396 0.0039, 0.0886 -0.3396 0.0394, -0.0886 -0.3396 0.0394, -0.0886 -0.1028 0.0039, -0.0886 -0.1028 0.0, -0.0886 -0.3396 0.0039, 0.0689 0.2706 0.0039, 0.0689 0.2706 0.0, 0.0689 0.3296 0.0039, 0.0689 0.3887 0.0, 0.0689 0.3296 0.0472, 0.0689 0.3887 0.0472, -0.0689 0.3887 0.0472, -0.0689 0.3887 0.0, -0.0689 0.2706 0.0, -0.0689 0.2706 0.0039, -0.0689 0.3296 0.0039, -0.0689 0.3296 0.0472, -0.2953 0.2509 0.0039, -0.2953 0.2509 0.0, -0.3346 0.2509 0.0039, -0.3937 0.2509 0.0, -0.3346 0.2509 0.0472, -0.3937 0.2509 0.0472, -0.3937 -0.2609 0.0472, -0.3937 -0.2609 0.0, -0.2953 -0.2609 0.0, -0.2953 -0.2609 0.0039, -0.3346 -0.2609 0.0039, -0.3346 -0.2609 0.0472, 0.3937 0.2509 0.0, 0.3937 0.2509 0.0472, 0.3937 -0.2609 0.0, 0.3937 -0.2609 0.0472, 0.2953 0.2509 0.0472, 0.2953 0.2509 0.0039, 0.2953 0.2509 0.0, 0.3346 -0.2609 0.0472, 0.3346 0.2115 0.0472, 0.2953 -0.2609 0.0039, 0.2953 -0.2609 0.0, 0.3346 -0.2609 0.0039
            ]
        }
        coordIndex [
            0,1,2,-1,3,4,5,-1,5,4,2,-1,3,6,4,-1,4,6,7,-1,4,7,8,-1,8,9,4,-1,4,9,10,-1,4,10,11,-1,12,13,14,-1,14,13,15,-1,12,14,16,-1,16,14,17,-1,16,17,18,-1,11,19,4,-1,4,19,16,-1,4,16,20,-1,20,16,18,-1,4,21,2,-1,2,21,22,-1,2,22,23,-1,15,24,14,-1,14,24,25,-1,14,25,26,-1,26,25,27,-1,23,28,2,-1,2,28,29,-1,2,29,30,-1,30,31,2,-1,2,31,32,-1,2,32,33,-1,33,34,2,-1,2,34,35,-1,2,35,0,-1,0,36,37,-1,36,38,39,-1,38,40,41,-1,40,42,43,-1,42,44,45,-1,44,46,47,-1,44,47,45,-1,45,47,48,-1,45,48,49,-1,48,50,49,-1,49,50,51,-1,49,51,52,-1,51,53,52,-1,52,53,54,-1,52,54,55,-1,55,54,56,-1,55,56,57,-1,57,56,58,-1,57,58,59,-1,59,58,60,-1,60,61,59,-1,59,61,62,-1,59,62,63,-1,62,64,63,-1,63,64,65,-1,63,65,66,-1,66,65,67,-1,66,67,68,-1,67,69,68,-1,68,69,70,-1,68,70,71,-1,70,72,71,-1,71,72,73,-1,71,73,74,-1,74,73,75,-1,74,75,76,-1,75,77,76,-1,76,77,78,-1,76,78,79,-1,78,80,79,-1,79,80,81,-1,79,81,82,-1,81,83,82,-1,82,83,84,-1,82,84,85,-1,85,84,86,-1,85,86,87,-1,86,88,87,-1,87,88,89,-1,87,89,90,-1,89,91,90,-1,90,91,92,-1,90,92,93,-1,42,45,43,-1,43,45,49,-1,43,49,94,-1,94,49,52,-1,94,52,95,-1,95,52,55,-1,95,55,96,-1,96,55,57,-1,96,57,97,-1,97,57,59,-1,97,59,98,-1,98,59,63,-1,98,63,99,-1,99,63,66,-1,99,66,100,-1,100,66,68,-1,100,68,101,-1,101,68,71,-1,101,71,102,-1,102,71,74,-1,102,74,103,-1,103,74,76,-1,103,76,104,-1,104,76,79,-1,104,79,105,-1,105,79,82,-1,105,82,106,-1,106,82,85,-1,106,85,107,-1,107,85,87,-1,107,87,108,-1,108,87,90,-1,108,90,109,-1,109,90,93,-1,109,93,110,-1,40,43,41,-1,41,43,94,-1,41,94,111,-1,111,94,95,-1,111,95,112,-1,112,95,96,-1,112,96,113,-1,113,96,97,-1,113,97,114,-1,114,97,98,-1,114,98,115,-1,115,98,99,-1,115,99,116,-1,116,99,100,-1,116,100,117,-1,117,100,101,-1,117,101,118,-1,118,101,102,-1,118,102,119,-1,119,102,103,-1,119,103,120,-1,120,103,104,-1,120,104,121,-1,121,104,105,-1,121,105,122,-1,122,105,106,-1,122,106,123,-1,123,106,107,-1,123,107,124,-1,124,107,108,-1,124,108,125,-1,125,108,109,-1,125,109,126,-1,126,109,110,-1,126,110,127,-1,38,41,39,-1,39,41,111,-1,39,111,128,-1,128,111,112,-1,128,112,129,-1,129,112,113,-1,129,113,130,-1,130,113,114,-1,130,114,131,-1,131,114,115,-1,131,115,132,-1,132,115,116,-1,132,116,133,-1,133,116,117,-1,133,117,134,-1,134,117,118,-1,134,118,135,-1,135,118,119,-1,135,119,136,-1,136,119,120,-1,136,120,137,-1,137,120,121,-1,137,121,138,-1,138,121,122,-1,138,122,139,-1,139,122,123,-1,139,123,140,-1,140,123,124,-1,140,124,141,-1,141,124,125,-1,141,125,142,-1,142,125,126,-1,142,126,143,-1,143,126,127,-1,143,127,144,-1,36,39,37,-1,37,39,128,-1,37,128,145,-1,145,128,129,-1,145,129,146,-1,146,129,130,-1,146,130,147,-1,147,130,131,-1,147,131,148,-1,148,131,132,-1,148,132,149,-1,149,132,133,-1,149,133,150,-1,150,133,134,-1,150,134,151,-1,151,134,135,-1,151,135,152,-1,152,135,136,-1,152,136,153,-1,153,136,137,-1,153,137,154,-1,154,137,138,-1,154,138,155,-1,155,138,139,-1,155,139,156,-1,156,139,140,-1,156,140,157,-1,157,140,141,-1,157,141,158,-1,158,141,142,-1,158,142,159,-1,159,142,143,-1,159,143,160,-1,160,143,144,-1,160,144,161,-1,0,37,1,-1,1,37,145,-1,1,145,2,-1,2,145,146,-1,2,146,5,-1,5,146,147,-1,5,147,3,-1,3,147,148,-1,3,148,6,-1,6,148,149,-1,6,149,7,-1,7,149,150,-1,7,150,8,-1,8,150,151,-1,8,151,9,-1,9,151,152,-1,9,152,10,-1,10,152,153,-1,10,153,11,-1,11,153,154,-1,11,154,19,-1,19,154,155,-1,19,155,16,-1,16,155,156,-1,16,156,12,-1,12,156,157,-1,12,157,13,-1,13,157,158,-1,13,158,15,-1,15,158,159,-1,15,159,24,-1,24,159,160,-1,24,160,25,-1,25,160,161,-1,25,161,27,-1,27,161,162,-1,161,144,163,-1,144,127,164,-1,127,110,165,-1,110,93,166,-1,93,92,167,-1,93,167,166,-1,166,167,168,-1,166,168,169,-1,168,170,169,-1,169,170,171,-1,169,171,172,-1,171,173,172,-1,172,173,174,-1,172,174,175,-1,175,174,176,-1,175,176,177,-1,177,176,178,-1,177,178,179,-1,179,178,180,-1,180,181,179,-1,179,181,182,-1,179,182,183,-1,182,184,183,-1,183,184,185,-1,183,185,186,-1,186,185,187,-1,186,187,188,-1,187,189,188,-1,188,189,190,-1,188,190,191,-1,190,192,191,-1,191,192,193,-1,191,193,194,-1,194,193,195,-1,194,195,196,-1,195,197,196,-1,196,197,198,-1,196,198,199,-1,198,200,199,-1,199,200,201,-1,199,201,202,-1,201,203,202,-1,202,203,204,-1,202,204,205,-1,205,204,206,-1,205,206,207,-1,206,208,207,-1,207,208,209,-1,207,209,210,-1,209,211,210,-1,210,211,46,-1,210,46,44,-1,110,166,165,-1,165,166,169,-1,165,169,212,-1,212,169,172,-1,212,172,213,-1,213,172,175,-1,213,175,214,-1,214,175,177,-1,214,177,215,-1,215,177,179,-1,215,179,216,-1,216,179,183,-1,216,183,217,-1,217,183,186,-1,217,186,218,-1,218,186,188,-1,218,188,219,-1,219,188,191,-1,219,191,220,-1,220,191,194,-1,220,194,221,-1,221,194,196,-1,221,196,222,-1,222,196,199,-1,222,199,223,-1,223,199,202,-1,223,202,224,-1,224,202,205,-1,224,205,225,-1,225,205,207,-1,225,207,226,-1,226,207,210,-1,226,210,227,-1,227,210,44,-1,227,44,42,-1,127,165,164,-1,164,165,212,-1,164,212,228,-1,228,212,213,-1,228,213,229,-1,229,213,214,-1,229,214,230,-1,230,214,215,-1,230,215,231,-1,231,215,216,-1,231,216,232,-1,232,216,217,-1,232,217,233,-1,233,217,218,-1,233,218,234,-1,234,218,219,-1,234,219,235,-1,235,219,220,-1,235,220,236,-1,236,220,221,-1,236,221,237,-1,237,221,222,-1,237,222,238,-1,238,222,223,-1,238,223,239,-1,239,223,224,-1,239,224,240,-1,240,224,225,-1,240,225,241,-1,241,225,226,-1,241,226,242,-1,242,226,227,-1,242,227,243,-1,243,227,42,-1,243,42,40,-1,144,164,163,-1,163,164,228,-1,163,228,244,-1,244,228,229,-1,244,229,245,-1,245,229,230,-1,245,230,246,-1,246,230,231,-1,246,231,247,-1,247,231,232,-1,247,232,248,-1,248,232,233,-1,248,233,249,-1,249,233,234,-1,249,234,250,-1,250,234,235,-1,250,235,251,-1,251,235,236,-1,251,236,252,-1,252,236,237,-1,252,237,253,-1,253,237,238,-1,253,238,254,-1,254,238,239,-1,254,239,255,-1,255,239,240,-1,255,240,256,-1,256,240,241,-1,256,241,257,-1,257,241,242,-1,257,242,258,-1,258,242,243,-1,258,243,259,-1,259,243,40,-1,259,40,38,-1,161,163,162,-1,162,163,244,-1,162,244,260,-1,260,244,245,-1,260,245,261,-1,261,245,246,-1,261,246,262,-1,262,246,247,-1,262,247,263,-1,263,247,248,-1,263,248,264,-1,264,248,249,-1,264,249,265,-1,265,249,250,-1,265,250,266,-1,266,250,251,-1,266,251,267,-1,267,251,252,-1,267,252,268,-1,268,252,253,-1,268,253,269,-1,269,253,254,-1,269,254,270,-1,270,254,255,-1,270,255,271,-1,271,255,256,-1,271,256,272,-1,272,256,257,-1,272,257,273,-1,273,257,258,-1,273,258,274,-1,274,258,259,-1,274,259,275,-1,275,259,38,-1,275,38,36,-1,27,162,26,-1,26,162,260,-1,26,260,14,-1,14,260,261,-1,14,261,17,-1,17,261,262,-1,17,262,18,-1,18,262,263,-1,18,263,20,-1,20,263,264,-1,20,264,4,-1,4,264,265,-1,4,265,21,-1,21,265,266,-1,21,266,22,-1,22,266,267,-1,22,267,23,-1,23,267,268,-1,23,268,28,-1,28,268,269,-1,28,269,29,-1,29,269,270,-1,29,270,30,-1,30,270,271,-1,30,271,31,-1,31,271,272,-1,31,272,32,-1,32,272,273,-1,32,273,33,-1,33,273,274,-1,33,274,34,-1,34,274,275,-1,34,275,35,-1,35,275,36,-1,35,36,0,-1,92,276,167,-1,167,276,277,-1,167,277,168,-1,168,277,170,-1,170,277,278,-1,170,278,171,-1,171,278,173,-1,173,278,279,-1,173,279,174,-1,280,178,279,-1,279,178,176,-1,279,176,174,-1,281,181,280,-1,280,181,180,-1,280,180,178,-1,187,185,282,-1,282,185,184,-1,282,184,281,-1,281,184,182,-1,281,182,181,-1,187,282,189,-1,189,282,283,-1,189,283,190,-1,190,283,192,-1,192,283,284,-1,192,284,193,-1,285,197,284,-1,284,197,195,-1,284,195,193,-1,286,200,285,-1,285,200,198,-1,285,198,197,-1,206,204,287,-1,287,204,203,-1,287,203,286,-1,286,203,201,-1,286,201,200,-1,206,287,208,-1,208,287,288,-1,208,288,209,-1,209,288,211,-1,211,288,289,-1,211,289,46,-1,46,289,47,-1,47,289,290,-1,47,290,48,-1,48,290,50,-1,50,290,291,-1,50,291,51,-1,51,291,53,-1,53,291,292,-1,53,292,54,-1,293,58,292,-1,292,58,56,-1,292,56,54,-1,294,61,293,-1,293,61,60,-1,293,60,58,-1,67,65,295,-1,295,65,64,-1,295,64,294,-1,294,64,62,-1,294,62,61,-1,67,295,69,-1,69,295,296,-1,69,296,70,-1,70,296,72,-1,72,296,297,-1,72,297,73,-1,298,77,297,-1,297,77,75,-1,297,75,73,-1,299,80,298,-1,298,80,78,-1,298,78,77,-1,86,84,300,-1,300,84,83,-1,300,83,299,-1,299,83,81,-1,299,81,80,-1,86,300,88,-1,88,300,301,-1,88,301,89,-1,89,301,91,-1,91,301,276,-1,91,276,92,-1,302,303,304,-1,304,303,305,-1,306,307,308,-1,309,304,308,-1,308,304,305,-1,308,305,306,-1,304,309,302,-1,302,309,310,-1,311,312,313,-1,313,312,303,-1,313,303,310,-1,310,303,302,-1,314,315,316,-1,316,315,317,-1,316,317,318,-1,318,317,319,-1,319,317,320,-1,320,317,321,-1,322,323,324,-1,325,320,324,-1,324,320,321,-1,324,321,322,-1,326,327,328,-1,328,327,329,-1,328,329,330,-1,330,329,331,-1,331,329,332,-1,332,329,333,-1,334,335,336,-1,337,332,336,-1,336,332,333,-1,336,333,334,-1,338,339,340,-1,340,339,341,-1,342,339,343,-1,343,339,338,-1,343,338,344,-1,320,325,319,-1,319,325,318,-1,332,337,331,-1,331,337,330,-1,345,341,346,-1,346,341,339,-1,346,339,342,-1,347,348,349,-1,349,348,340,-1,349,340,345,-1,345,340,341,-1,
        ]
    }
}
Shape{
    appearance Appearance {
        material  Material 	{
            diffuseColor 0.2235294117647059 0.2235294117647059 0.2235294117647059
            specularColor 0.11372549019607843 0.11372549019607843 0.11372549019607843
            ambientIntensity 0.2235
            transparency 0.0
            shininess 0.5
        }
    }
    geometry IndexedFaceSet {
        ccw TRUE
        solid FALSE
        coord DEF co Coordinate {
            point [
                0.0886 -0.3396 0.0039, 0.315 -0.3396 0.0039, 0.0886 -0.3396 0.0394, 0.315 -0.3396 0.0827, -0.0886 -0.3396 0.0394, -0.315 -0.3396 0.0827, -0.0886 -0.3396 0.0039, -0.315 -0.3396 0.0039, -0.3201 -0.339 0.0827, -0.3201 -0.339 0.0039, -0.3248 -0.337 0.0827, -0.3248 -0.337 0.0039, -0.3289 -0.3339 0.0827, -0.3289 -0.3339 0.0039, -0.332 -0.3298 0.0827, -0.332 -0.3298 0.0039, -0.334 -0.3251 0.0827, -0.334 -0.3251 0.0039, -0.3346 -0.32 0.0827, -0.3346 -0.32 0.0039, -0.3346 -0.2609 0.0039, -0.3346 -0.2609 0.0472, -0.3346 0.2509 0.0472, -0.3346 0.31 0.0827, -0.3346 0.2509 0.0039, -0.3346 0.31 0.0039, -0.334 0.3151 0.0827, -0.334 0.3151 0.0039, -0.332 0.3198 0.0827, -0.332 0.3198 0.0039, -0.3289 0.3239 0.0827, -0.3289 0.3239 0.0039, -0.3248 0.327 0.0827, -0.3248 0.327 0.0039, -0.3201 0.329 0.0827, -0.3201 0.329 0.0039, -0.315 0.3296 0.0827, -0.315 0.3296 0.0039, -0.0689 0.3296 0.0472, -0.0689 0.3296 0.0039, 0.2165 0.3296 0.0827, 0.2165 0.3296 0.0039, 0.0689 0.3296 0.0039, 0.0689 0.3296 0.0472, 0.3346 0.2115 0.0472, 0.3346 0.2115 0.0827, 0.3346 -0.2609 0.0472, 0.3346 -0.32 0.0827, 0.3346 -0.2609 0.0039, 0.3346 -0.32 0.0039, 0.334 -0.3251 0.0827, 0.334 -0.3251 0.0039, 0.332 -0.3298 0.0827, 0.332 -0.3298 0.0039, 0.3289 -0.3339 0.0827, 0.3289 -0.3339 0.0039, 0.3248 -0.337 0.0827, 0.3248 -0.337 0.0039, 0.3201 -0.339 0.0827, 0.3201 -0.339 0.0039
            ]
        }
        coordIndex [
            0,1,2,-1,2,1,3,-1,2,3,4,-1,4,3,5,-1,4,5,6,-1,6,5,7,-1,7,5,8,-1,7,8,9,-1,9,8,10,-1,9,10,11,-1,11,10,12,-1,11,12,13,-1,13,12,14,-1,13,14,15,-1,15,14,16,-1,15,16,17,-1,17,16,18,-1,17,18,19,-1,20,19,21,-1,21,19,18,-1,21,18,22,-1,22,18,23,-1,22,23,24,-1,24,23,25,-1,25,23,26,-1,25,26,27,-1,27,26,28,-1,27,28,29,-1,29,28,30,-1,29,30,31,-1,31,30,32,-1,31,32,33,-1,33,32,34,-1,33,34,35,-1,35,34,36,-1,35,36,37,-1,38,39,37,-1,40,41,42,-1,42,43,40,-1,40,43,38,-1,40,38,36,-1,36,38,37,-1,44,45,46,-1,46,45,47,-1,46,47,48,-1,48,47,49,-1,49,47,50,-1,49,50,51,-1,51,50,52,-1,51,52,53,-1,53,52,54,-1,53,54,55,-1,55,54,56,-1,55,56,57,-1,57,56,58,-1,57,58,59,-1,59,58,3,-1,59,3,1,-1,
        ]
    }
}
Shape{
    appearance Appearance {
        material  Material 	{
            diffuseColor 0.9686274509803922 0.8784313725490196 0.6
            specularColor 0.6784313725490196 0.615686274509804 0.4196078431372549
            ambientIntensity 0.8737
            transparency 0.0
            shininess 0.5
        }
    }
    geometry IndexedFaceSet {
        ccw TRUE
        solid FALSE
        coord DEF co Coordinate {
            point [
                0.248 -0.005 0.0827, 0.248 -0.005 0.2402, 0.2453 0.032 0.0827, 0.2453 0.032 0.2402, 0.237 0.0681 0.0827, 0.237 0.0681 0.2402, 0.2235 0.1026 0.0827, 0.2235 0.1026 0.2402, 0.2049 0.1347 0.0827, 0.2049 0.1347 0.2402, 0.1818 0.1637 0.0827, 0.1818 0.1637 0.2402, 0.1546 0.1889 0.0827, 0.1546 0.1889 0.2402, 0.124 0.2098 0.0827, 0.124 0.2098 0.2402, 0.0906 0.2259 0.0827, 0.0906 0.2259 0.2402, 0.0552 0.2368 0.0827, 0.0552 0.2368 0.2402, 0.0185 0.2423 0.0827, 0.0185 0.2423 0.2402, -0.0185 0.2423 0.0827, -0.0185 0.2423 0.2402, -0.0552 0.2368 0.0827, -0.0552 0.2368 0.2402, -0.0906 0.2259 0.0827, -0.0906 0.2259 0.2402, -0.124 0.2098 0.0827, -0.124 0.2098 0.2402, -0.1546 0.1889 0.0827, -0.1546 0.1889 0.2402, -0.1818 0.1637 0.0827, -0.1818 0.1637 0.2402, -0.2049 0.1347 0.0827, -0.2049 0.1347 0.2402, -0.2235 0.1026 0.0827, -0.2235 0.1026 0.2402, -0.237 0.0681 0.0827, -0.237 0.0681 0.2402, -0.2453 0.032 0.0827, -0.2453 0.032 0.2402, -0.248 -0.005 0.0827, -0.248 -0.005 0.2402, -0.2168 0.1714 0.2402, -0.2388 0.1402 0.2402, -0.2564 0.1064 0.2402, -0.2692 0.0704 0.2402, -0.2769 0.0331 0.2402, -0.2795 -0.005 0.2402, -0.2453 -0.042 0.2402, -0.2769 -0.0431 0.2402, -0.237 -0.0781 0.2402, -0.2692 -0.0804 0.2402, -0.2235 -0.1126 0.2402, -0.2564 -0.1164 0.2402, -0.2049 -0.1447 0.2402, -0.2388 -0.1502 0.2402, -0.1818 -0.1737 0.2402, 0.1818 -0.1737 0.2402, 0.2168 -0.1814 0.2402, 0.2049 -0.1447 0.2402, 0.2388 -0.1502 0.2402, 0.2235 -0.1126 0.2402, 0.2564 -0.1164 0.2402, 0.237 -0.0781 0.2402, 0.2692 -0.0804 0.2402, 0.2453 -0.042 0.2402, 0.2769 -0.0431 0.2402, 0.2795 -0.005 0.2402, 0.2769 0.0331 0.2402, 0.2692 0.0704 0.2402, 0.2564 0.1064 0.2402, 0.2388 0.1402 0.2402, -0.2168 -0.1814 0.2402, -0.1908 -0.2093 0.2402, -0.1546 -0.1989 0.2402, -0.1612 -0.2334 0.2402, -0.124 -0.2198 0.2402, -0.1286 -0.2532 0.2402, -0.0906 -0.2359 0.2402, -0.0936 -0.2684 0.2402, -0.0552 -0.2468 0.2402, -0.0569 -0.2787 0.2402, -0.0185 -0.2523 0.2402, -0.0191 -0.2839 0.2402, 0.0185 -0.2523 0.2402, 0.0191 -0.2839 0.2402, 0.0552 -0.2468 0.2402, 0.0569 -0.2787 0.2402, 0.0906 -0.2359 0.2402, 0.0936 -0.2684 0.2402, 0.124 -0.2198 0.2402, 0.1286 -0.2532 0.2402, 0.1546 -0.1989 0.2402, 0.1612 -0.2334 0.2402, 0.1908 -0.2093 0.2402, 0.2168 0.1714 0.2402, 0.1908 0.1993 0.2402, 0.1612 0.2234 0.2402, 0.1286 0.2432 0.2402, 0.0936 0.2584 0.2402, 0.0569 0.2687 0.2402, 0.0191 0.2739 0.2402, -0.0191 0.2739 0.2402, -0.0569 0.2687 0.2402, -0.0936 0.2584 0.2402, -0.1286 0.2432 0.2402, -0.1612 0.2234 0.2402, -0.1908 0.1993 0.2402, -0.2953 -0.005 0.2244, -0.2925 -0.0452 0.2244, -0.2843 -0.0847 0.2244, -0.2708 -0.1226 0.2244, -0.2523 -0.1584 0.2244, -0.229 -0.1913 0.2244, -0.2015 -0.2208 0.2244, -0.1703 -0.2462 0.2244, -0.1358 -0.2672 0.2244, -0.0989 -0.2832 0.2244, -0.0601 -0.2941 0.2244, -0.0202 -0.2996 0.2244, 0.0202 -0.2996 0.2244, 0.0601 -0.2941 0.2244, 0.0989 -0.2832 0.2244, 0.1358 -0.2672 0.2244, 0.1703 -0.2462 0.2244, 0.2015 -0.2208 0.2244, 0.229 -0.1913 0.2244, 0.2523 -0.1584 0.2244, 0.2708 -0.1226 0.2244, 0.2843 -0.0847 0.2244, 0.2925 -0.0452 0.2244, 0.2953 -0.005 0.2244, 0.2925 0.0352 0.2244, 0.2843 0.0747 0.2244, 0.2708 0.1126 0.2244, 0.2523 0.1484 0.2244, 0.229 0.1813 0.2244, 0.2015 0.2108 0.2244, 0.1703 0.2362 0.2244, 0.1358 0.2572 0.2244, 0.0989 0.2732 0.2244, 0.0601 0.2841 0.2244, 0.0202 0.2896 0.2244, -0.0202 0.2896 0.2244, -0.0601 0.2841 0.2244, -0.0989 0.2732 0.2244, -0.1358 0.2572 0.2244, -0.1703 0.2362 0.2244, -0.2015 0.2108 0.2244, -0.229 0.1813 0.2244, -0.2523 0.1484 0.2244, -0.2708 0.1126 0.2244, -0.2843 0.0747 0.2244, -0.2925 0.0352 0.2244, -0.2953 -0.005 0.189, -0.2925 0.0352 0.189, -0.2843 0.0747 0.189, -0.2708 0.1126 0.189, -0.2523 0.1484 0.189, -0.229 0.1813 0.189, -0.2015 0.2108 0.189, -0.1703 0.2362 0.189, -0.1358 0.2572 0.189, -0.0989 0.2732 0.189, -0.0601 0.2841 0.189, -0.0202 0.2896 0.189, 0.0202 0.2896 0.189, 0.0601 0.2841 0.189, 0.0989 0.2732 0.189, 0.1358 0.2572 0.189, 0.1703 0.2362 0.189, 0.2015 0.2108 0.189, 0.229 0.1813 0.189, 0.2523 0.1484 0.189, 0.2708 0.1126 0.189, 0.2843 0.0747 0.189, 0.2925 0.0352 0.189, 0.2953 -0.005 0.189, 0.2925 -0.0452 0.189, 0.2843 -0.0847 0.189, 0.2708 -0.1226 0.189, 0.2523 -0.1584 0.189, 0.229 -0.1913 0.189, 0.2015 -0.2208 0.189, 0.1703 -0.2462 0.189, 0.1358 -0.2672 0.189, 0.0989 -0.2832 0.189, 0.0601 -0.2941 0.189, 0.0202 -0.2996 0.189, -0.0202 -0.2996 0.189, -0.0601 -0.2941 0.189, -0.0989 -0.2832 0.189, -0.1358 -0.2672 0.189, -0.1703 -0.2462 0.189, -0.2015 -0.2208 0.189, -0.229 -0.1913 0.189, -0.2523 -0.1584 0.189, -0.2708 -0.1226 0.189, -0.2843 -0.0847 0.189, -0.2925 -0.0452 0.189, 0.2756 -0.005 0.1594, 0.273 -0.0425 0.1594, 0.2727 -0.0442 0.1594, 0.2654 -0.0794 0.1594, 0.2642 -0.0826 0.1594, 0.2528 -0.1148 0.1594, 0.2504 -0.1193 0.1594, 0.2355 -0.1482 0.1594, 0.2315 -0.1538 0.1594, 0.2138 -0.1789 0.1594, 0.2079 -0.1852 0.1594, 0.1881 -0.2064 0.1594, 0.1802 -0.2129 0.1594, 0.1589 -0.2301 0.1594, 0.1487 -0.2364 0.1594, 0.1268 -0.2497 0.1594, 0.1142 -0.2551 0.1594, 0.0923 -0.2647 0.1594, 0.0775 -0.2688 0.1594, 0.0561 -0.2748 0.1594, 0.0391 -0.2772 0.1594, 0.0188 -0.2799 0.1594, 0.0 -0.2799 0.1594, -0.0188 -0.2799 0.1594, -0.0391 -0.2772 0.1594, -0.0561 -0.2748 0.1594, -0.0775 -0.2688 0.1594, -0.0923 -0.2647 0.1594, -0.1142 -0.2551 0.1594, -0.1268 -0.2497 0.1594, -0.1487 -0.2364 0.1594, -0.1589 -0.2301 0.1594, -0.1802 -0.2129 0.1594, -0.1881 -0.2064 0.1594, -0.2079 -0.1852 0.1594, -0.2138 -0.1789 0.1594, -0.2315 -0.1538 0.1594, -0.2355 -0.1482 0.1594, -0.2504 -0.1193 0.1594, -0.2528 -0.1148 0.1594, -0.2642 -0.0826 0.1594, -0.2654 -0.0794 0.1594, -0.2727 -0.0442 0.1594, -0.273 -0.0425 0.1594, -0.2756 -0.005 0.1594, -0.273 0.0325 0.1594, -0.2727 0.0342 0.1594, -0.2654 0.0694 0.1594, -0.2642 0.0726 0.1594, -0.2528 0.1048 0.1594, -0.2504 0.1093 0.1594, -0.2355 0.1382 0.1594, -0.2315 0.1438 0.1594, -0.2138 0.1689 0.1594, -0.2079 0.1752 0.1594, -0.1881 0.1964 0.1594, -0.1802 0.2029 0.1594, -0.1589 0.2201 0.1594, -0.1487 0.2264 0.1594, -0.1268 0.2397 0.1594, -0.1142 0.2451 0.1594, -0.0923 0.2547 0.1594, -0.0775 0.2588 0.1594, -0.0561 0.2648 0.1594, -0.0391 0.2672 0.1594, -0.0188 0.2699 0.1594, 0.0 0.2699 0.1594, 0.0188 0.2699 0.1594, 0.0391 0.2672 0.1594, 0.0561 0.2648 0.1594, 0.0775 0.2588 0.1594, 0.0923 0.2547 0.1594, 0.1142 0.2451 0.1594, 0.1268 0.2397 0.1594, 0.1487 0.2264 0.1594, 0.1589 0.2201 0.1594, 0.1802 0.2029 0.1594, 0.1881 0.1964 0.1594, 0.2079 0.1752 0.1594, 0.2138 0.1689 0.1594, 0.2315 0.1438 0.1594, 0.2355 0.1382 0.1594, 0.2504 0.1093 0.1594, 0.2528 0.1048 0.1594, 0.2642 0.0726 0.1594, 0.2654 0.0694 0.1594, 0.2727 0.0342 0.1594, 0.273 0.0325 0.1594, -0.2756 -0.005 0.1476, -0.273 0.0325 0.1476, -0.2727 0.0342 0.1476, -0.2654 0.0694 0.1476, -0.2642 0.0726 0.1476, -0.2528 0.1048 0.1476, -0.2504 0.1093 0.1476, -0.2355 0.1382 0.1476, -0.2315 0.1438 0.1476, -0.2138 0.1689 0.1476, -0.2079 0.1752 0.1476, -0.1881 0.1964 0.1476, -0.1802 0.2029 0.1476, -0.1589 0.2201 0.1476, -0.1487 0.2264 0.1476, -0.1268 0.2397 0.1476, -0.1142 0.2451 0.1476, -0.0923 0.2547 0.1476, -0.0775 0.2588 0.1476, -0.0561 0.2648 0.1476, -0.0391 0.2672 0.1476, -0.0188 0.2699 0.1476, 0.0 0.2699 0.1476, 0.0188 0.2699 0.1476, 0.0391 0.2672 0.1476, 0.0561 0.2648 0.1476, 0.0775 0.2588 0.1476, 0.0923 0.2547 0.1476, 0.1142 0.2451 0.1476, 0.1268 0.2397 0.1476, 0.1487 0.2264 0.1476, 0.1589 0.2201 0.1476, 0.1802 0.2029 0.1476, 0.1881 0.1964 0.1476, 0.2079 0.1752 0.1476, 0.2138 0.1689 0.1476, 0.2315 0.1438 0.1476, 0.2355 0.1382 0.1476, 0.2504 0.1093 0.1476, 0.2528 0.1048 0.1476, 0.2642 0.0726 0.1476, 0.2654 0.0694 0.1476, 0.2727 0.0342 0.1476, 0.273 0.0325 0.1476, 0.2756 -0.005 0.1476, 0.273 -0.0425 0.1476, 0.2727 -0.0442 0.1476, 0.2654 -0.0794 0.1476, 0.2642 -0.0826 0.1476, 0.2528 -0.1148 0.1476, 0.2504 -0.1193 0.1476, 0.2355 -0.1482 0.1476, 0.2315 -0.1538 0.1476, 0.2138 -0.1789 0.1476, 0.2079 -0.1852 0.1476, 0.1881 -0.2064 0.1476, 0.1802 -0.2129 0.1476, 0.1589 -0.2301 0.1476, 0.1487 -0.2364 0.1476, 0.1268 -0.2497 0.1476, 0.1142 -0.2551 0.1476, 0.0923 -0.2647 0.1476, 0.0775 -0.2688 0.1476, 0.0561 -0.2748 0.1476, 0.0391 -0.2772 0.1476, 0.0188 -0.2799 0.1476, 0.0 -0.2799 0.1476, -0.0188 -0.2799 0.1476, -0.0391 -0.2772 0.1476, -0.0561 -0.2748 0.1476, -0.0775 -0.2688 0.1476, -0.0923 -0.2647 0.1476, -0.1142 -0.2551 0.1476, -0.1268 -0.2497 0.1476, -0.1487 -0.2364 0.1476, -0.1589 -0.2301 0.1476, -0.1802 -0.2129 0.1476, -0.1881 -0.2064 0.1476, -0.2079 -0.1852 0.1476, -0.2138 -0.1789 0.1476, -0.2315 -0.1538 0.1476, -0.2355 -0.1482 0.1476, -0.2504 -0.1193 0.1476, -0.2528 -0.1148 0.1476, -0.2642 -0.0826 0.1476, -0.2654 -0.0794 0.1476, -0.2727 -0.0442 0.1476, -0.273 -0.0425 0.1476, -0.2953 -0.005 0.118, -0.2925 -0.0452 0.118, -0.2843 -0.0847 0.118, -0.2708 -0.1226 0.118, -0.2523 -0.1584 0.118, -0.229 -0.1913 0.118, -0.2015 -0.2208 0.118, -0.1703 -0.2462 0.118, -0.1358 -0.2672 0.118, -0.0989 -0.2832 0.118, -0.0601 -0.2941 0.118, -0.0202 -0.2996 0.118, 0.0202 -0.2996 0.118, 0.0601 -0.2941 0.118, 0.0989 -0.2832 0.118, 0.1358 -0.2672 0.118, 0.1703 -0.2462 0.118, 0.2015 -0.2208 0.118, 0.229 -0.1913 0.118, 0.2523 -0.1584 0.118, 0.2708 -0.1226 0.118, 0.2843 -0.0847 0.118, 0.2925 -0.0452 0.118, 0.2953 -0.005 0.118, 0.2925 0.0352 0.118, 0.2843 0.0747 0.118, 0.2708 0.1126 0.118, 0.2523 0.1484 0.118, 0.229 0.1813 0.118, 0.2015 0.2108 0.118, 0.1703 0.2362 0.118, 0.1358 0.2572 0.118, 0.0989 0.2732 0.118, 0.0601 0.2841 0.118, 0.0202 0.2896 0.118, -0.0202 0.2896 0.118, -0.0601 0.2841 0.118, -0.0989 0.2732 0.118, -0.1358 0.2572 0.118, -0.1703 0.2362 0.118, -0.2015 0.2108 0.118, -0.229 0.1813 0.118, -0.2523 0.1484 0.118, -0.2708 0.1126 0.118, -0.2843 0.0747 0.118, -0.2925 0.0352 0.118, -0.2953 -0.005 0.0827, -0.2925 0.0352 0.0827, -0.2843 0.0747 0.0827, -0.2708 0.1126 0.0827, -0.2523 0.1484 0.0827, -0.229 0.1813 0.0827, -0.2015 0.2108 0.0827, -0.1703 0.2362 0.0827, -0.1358 0.2572 0.0827, -0.0989 0.2732 0.0827, -0.0601 0.2841 0.0827, -0.0202 0.2896 0.0827, 0.0202 0.2896 0.0827, 0.0601 0.2841 0.0827, 0.0989 0.2732 0.0827, 0.1358 0.2572 0.0827, 0.1703 0.2362 0.0827, 0.2015 0.2108 0.0827, 0.229 0.1813 0.0827, 0.2523 0.1484 0.0827, 0.2708 0.1126 0.0827, 0.2843 0.0747 0.0827, 0.2925 0.0352 0.0827, 0.2953 -0.005 0.0827, 0.2925 -0.0452 0.0827, 0.2843 -0.0847 0.0827, 0.2708 -0.1226 0.0827, 0.2523 -0.1584 0.0827, 0.229 -0.1913 0.0827, 0.2015 -0.2208 0.0827, 0.1703 -0.2462 0.0827, 0.1358 -0.2672 0.0827, 0.0989 -0.2832 0.0827, 0.0601 -0.2941 0.0827, 0.0202 -0.2996 0.0827, -0.0202 -0.2996 0.0827, -0.0601 -0.2941 0.0827, -0.0989 -0.2832 0.0827, -0.1358 -0.2672 0.0827, -0.1703 -0.2462 0.0827, -0.2015 -0.2208 0.0827, -0.229 -0.1913 0.0827, -0.2523 -0.1584 0.0827, -0.2708 -0.1226 0.0827, -0.2843 -0.0847 0.0827, -0.2925 -0.0452 0.0827
            ]
        }
        coordIndex [
            0,1,2,-1,2,1,3,-1,2,3,4,-1,4,3,5,-1,4,5,6,-1,6,5,7,-1,6,7,8,-1,8,7,9,-1,8,9,10,-1,10,9,11,-1,10,11,12,-1,12,11,13,-1,12,13,14,-1,14,13,15,-1,14,15,16,-1,16,15,17,-1,16,17,18,-1,18,17,19,-1,18,19,20,-1,20,19,21,-1,20,21,22,-1,22,21,23,-1,22,23,24,-1,24,23,25,-1,24,25,26,-1,26,25,27,-1,26,27,28,-1,28,27,29,-1,28,29,30,-1,30,29,31,-1,30,31,32,-1,32,31,33,-1,32,33,34,-1,34,33,35,-1,34,35,36,-1,36,35,37,-1,36,37,38,-1,38,37,39,-1,38,39,40,-1,40,39,41,-1,40,41,42,-1,42,41,43,-1,33,44,35,-1,35,44,45,-1,35,45,37,-1,37,45,46,-1,37,46,39,-1,39,46,47,-1,39,47,41,-1,41,47,48,-1,41,48,43,-1,43,48,49,-1,43,49,50,-1,50,49,51,-1,50,51,52,-1,52,51,53,-1,52,53,54,-1,54,53,55,-1,54,55,56,-1,56,55,57,-1,56,57,58,-1,59,60,61,-1,61,60,62,-1,61,62,63,-1,63,62,64,-1,63,64,65,-1,65,64,66,-1,65,66,67,-1,67,66,68,-1,67,68,1,-1,1,68,69,-1,1,69,3,-1,3,69,70,-1,3,70,5,-1,5,70,71,-1,5,71,7,-1,7,71,72,-1,7,72,9,-1,9,72,73,-1,9,73,11,-1,57,74,58,-1,58,74,75,-1,58,75,76,-1,76,75,77,-1,76,77,78,-1,78,77,79,-1,78,79,80,-1,80,79,81,-1,80,81,82,-1,82,81,83,-1,82,83,84,-1,84,83,85,-1,84,85,86,-1,86,85,87,-1,86,87,88,-1,88,87,89,-1,88,89,90,-1,90,89,91,-1,90,91,92,-1,92,91,93,-1,92,93,94,-1,94,93,95,-1,94,95,59,-1,59,95,96,-1,59,96,60,-1,73,97,11,-1,11,97,98,-1,11,98,13,-1,13,98,99,-1,13,99,15,-1,15,99,100,-1,15,100,17,-1,17,100,101,-1,17,101,19,-1,19,101,102,-1,19,102,21,-1,21,102,103,-1,21,103,23,-1,23,103,104,-1,23,104,25,-1,25,104,105,-1,25,105,27,-1,27,105,106,-1,27,106,29,-1,29,106,107,-1,29,107,31,-1,31,107,108,-1,31,108,33,-1,33,108,109,-1,33,109,44,-1,49,110,111,-1,49,111,51,-1,51,111,112,-1,51,112,53,-1,53,112,113,-1,53,113,55,-1,55,113,114,-1,55,114,57,-1,57,114,115,-1,57,115,74,-1,74,115,116,-1,74,116,75,-1,75,116,117,-1,75,117,77,-1,77,117,118,-1,77,118,79,-1,79,118,119,-1,79,119,81,-1,81,119,120,-1,81,120,83,-1,83,120,121,-1,83,121,85,-1,85,121,122,-1,85,122,87,-1,87,122,123,-1,87,123,89,-1,89,123,124,-1,89,124,91,-1,91,124,125,-1,91,125,93,-1,93,125,126,-1,93,126,95,-1,95,126,127,-1,95,127,96,-1,96,127,128,-1,96,128,60,-1,60,128,129,-1,60,129,62,-1,62,129,130,-1,62,130,64,-1,64,130,131,-1,64,131,66,-1,66,131,132,-1,66,132,68,-1,68,132,133,-1,68,133,69,-1,69,133,134,-1,69,134,70,-1,70,134,135,-1,70,135,71,-1,71,135,136,-1,71,136,72,-1,72,136,137,-1,72,137,73,-1,73,137,138,-1,73,138,97,-1,97,138,139,-1,97,139,98,-1,98,139,140,-1,98,140,99,-1,99,140,141,-1,99,141,100,-1,100,141,142,-1,100,142,101,-1,101,142,143,-1,101,143,102,-1,102,143,144,-1,102,144,103,-1,103,144,145,-1,103,145,104,-1,104,145,146,-1,104,146,105,-1,105,146,147,-1,105,147,106,-1,106,147,148,-1,106,148,107,-1,107,148,149,-1,107,149,108,-1,108,149,150,-1,108,150,109,-1,109,150,151,-1,109,151,44,-1,44,151,152,-1,44,152,45,-1,45,152,153,-1,45,153,46,-1,46,153,154,-1,46,154,47,-1,47,154,155,-1,47,155,48,-1,48,155,110,-1,48,110,49,-1,156,110,155,-1,156,155,157,-1,157,155,154,-1,157,154,158,-1,158,154,153,-1,158,153,159,-1,159,153,152,-1,159,152,160,-1,160,152,151,-1,160,151,161,-1,161,151,150,-1,161,150,162,-1,162,150,149,-1,162,149,163,-1,163,149,148,-1,163,148,164,-1,164,148,147,-1,164,147,165,-1,165,147,146,-1,165,146,166,-1,166,146,145,-1,166,145,167,-1,167,145,144,-1,167,144,168,-1,168,144,143,-1,168,143,169,-1,169,143,142,-1,169,142,170,-1,170,142,141,-1,170,141,171,-1,171,141,140,-1,171,140,172,-1,172,140,139,-1,172,139,173,-1,173,139,138,-1,173,138,174,-1,174,138,137,-1,174,137,175,-1,175,137,136,-1,175,136,176,-1,176,136,135,-1,176,135,177,-1,177,135,134,-1,177,134,178,-1,178,134,133,-1,178,133,179,-1,179,133,132,-1,179,132,180,-1,180,132,131,-1,180,131,181,-1,181,131,130,-1,181,130,182,-1,182,130,129,-1,182,129,183,-1,183,129,128,-1,183,128,184,-1,184,128,127,-1,184,127,185,-1,185,127,126,-1,185,126,186,-1,186,126,125,-1,186,125,187,-1,187,125,124,-1,187,124,188,-1,188,124,123,-1,188,123,189,-1,189,123,122,-1,189,122,190,-1,190,122,121,-1,190,121,191,-1,191,121,120,-1,191,120,192,-1,192,120,119,-1,192,119,193,-1,193,119,118,-1,193,118,194,-1,194,118,117,-1,194,117,195,-1,195,117,116,-1,195,116,196,-1,196,116,115,-1,196,115,197,-1,197,115,114,-1,197,114,198,-1,198,114,113,-1,198,113,199,-1,199,113,112,-1,199,112,200,-1,200,112,111,-1,200,111,201,-1,201,111,110,-1,201,110,156,-1,179,180,202,-1,202,180,203,-1,203,180,204,-1,204,180,181,-1,204,181,205,-1,205,181,206,-1,206,181,182,-1,206,182,207,-1,207,182,208,-1,208,182,183,-1,208,183,209,-1,209,183,210,-1,210,183,184,-1,210,184,211,-1,211,184,212,-1,212,184,185,-1,212,185,213,-1,213,185,214,-1,214,185,186,-1,214,186,215,-1,215,186,216,-1,216,186,187,-1,216,187,217,-1,217,187,218,-1,218,187,188,-1,218,188,219,-1,219,188,220,-1,220,188,189,-1,220,189,221,-1,221,189,222,-1,222,189,190,-1,222,190,223,-1,223,190,224,-1,224,190,191,-1,224,191,225,-1,225,191,226,-1,226,191,192,-1,226,192,227,-1,227,192,228,-1,228,192,193,-1,228,193,229,-1,229,193,230,-1,230,193,194,-1,230,194,231,-1,231,194,232,-1,232,194,195,-1,232,195,233,-1,233,195,234,-1,234,195,196,-1,234,196,235,-1,235,196,236,-1,236,196,197,-1,236,197,237,-1,237,197,238,-1,238,197,198,-1,238,198,239,-1,239,198,240,-1,240,198,199,-1,240,199,241,-1,241,199,242,-1,242,199,200,-1,242,200,243,-1,243,200,244,-1,244,200,201,-1,244,201,245,-1,245,201,156,-1,245,156,246,-1,156,157,246,-1,246,157,247,-1,247,157,248,-1,248,157,158,-1,248,158,249,-1,249,158,250,-1,250,158,159,-1,250,159,251,-1,251,159,252,-1,252,159,160,-1,252,160,253,-1,253,160,254,-1,254,160,161,-1,254,161,255,-1,255,161,256,-1,256,161,162,-1,256,162,257,-1,257,162,258,-1,258,162,163,-1,258,163,259,-1,259,163,260,-1,260,163,164,-1,260,164,261,-1,261,164,262,-1,262,164,165,-1,262,165,263,-1,263,165,264,-1,264,165,166,-1,264,166,265,-1,265,166,266,-1,266,166,167,-1,266,167,267,-1,267,167,268,-1,268,167,168,-1,268,168,269,-1,269,168,270,-1,270,168,169,-1,270,169,271,-1,271,169,272,-1,272,169,170,-1,272,170,273,-1,273,170,274,-1,274,170,171,-1,274,171,275,-1,275,171,276,-1,276,171,172,-1,276,172,277,-1,277,172,278,-1,278,172,173,-1,278,173,279,-1,279,173,280,-1,280,173,174,-1,280,174,281,-1,281,174,282,-1,282,174,175,-1,282,175,283,-1,283,175,284,-1,284,175,176,-1,284,176,285,-1,285,176,286,-1,286,176,177,-1,286,177,287,-1,287,177,288,-1,288,177,178,-1,288,178,289,-1,289,178,179,-1,289,179,202,-1,290,246,291,-1,291,246,247,-1,291,247,292,-1,292,247,248,-1,292,248,293,-1,293,248,249,-1,293,249,294,-1,294,249,250,-1,294,250,295,-1,295,250,251,-1,295,251,296,-1,296,251,252,-1,296,252,297,-1,297,252,253,-1,297,253,298,-1,298,253,254,-1,298,254,299,-1,299,254,255,-1,299,255,300,-1,300,255,256,-1,300,256,301,-1,301,256,257,-1,301,257,302,-1,302,257,258,-1,302,258,303,-1,303,258,259,-1,303,259,304,-1,304,259,260,-1,304,260,305,-1,305,260,261,-1,305,261,306,-1,306,261,262,-1,306,262,307,-1,307,262,263,-1,307,263,308,-1,308,263,264,-1,308,264,309,-1,309,264,265,-1,309,265,310,-1,310,265,266,-1,310,266,311,-1,311,266,267,-1,311,267,312,-1,312,267,268,-1,312,268,313,-1,313,268,269,-1,313,269,314,-1,314,269,270,-1,314,270,315,-1,315,270,271,-1,315,271,316,-1,316,271,272,-1,316,272,317,-1,317,272,273,-1,317,273,318,-1,318,273,274,-1,318,274,319,-1,319,274,275,-1,319,275,320,-1,320,275,276,-1,320,276,321,-1,321,276,277,-1,321,277,322,-1,322,277,278,-1,322,278,323,-1,323,278,279,-1,323,279,324,-1,324,279,280,-1,324,280,325,-1,325,280,281,-1,325,281,326,-1,326,281,282,-1,326,282,327,-1,327,282,283,-1,327,283,328,-1,328,283,284,-1,328,284,329,-1,329,284,285,-1,329,285,330,-1,330,285,286,-1,330,286,331,-1,331,286,287,-1,331,287,332,-1,332,287,288,-1,332,288,333,-1,333,288,289,-1,333,289,334,-1,334,289,202,-1,334,202,335,-1,335,202,203,-1,335,203,336,-1,336,203,204,-1,336,204,337,-1,337,204,205,-1,337,205,338,-1,338,205,206,-1,338,206,339,-1,339,206,207,-1,339,207,340,-1,340,207,208,-1,340,208,341,-1,341,208,209,-1,341,209,342,-1,342,209,210,-1,342,210,343,-1,343,210,211,-1,343,211,344,-1,344,211,212,-1,344,212,345,-1,345,212,213,-1,345,213,346,-1,346,213,214,-1,346,214,347,-1,347,214,215,-1,347,215,348,-1,348,215,216,-1,348,216,349,-1,349,216,217,-1,349,217,350,-1,350,217,218,-1,350,218,351,-1,351,218,219,-1,351,219,352,-1,352,219,220,-1,352,220,353,-1,353,220,221,-1,353,221,354,-1,354,221,222,-1,354,222,355,-1,355,222,223,-1,355,223,356,-1,356,223,224,-1,356,224,357,-1,357,224,225,-1,357,225,358,-1,358,225,226,-1,358,226,359,-1,359,226,227,-1,359,227,360,-1,360,227,228,-1,360,228,361,-1,361,228,229,-1,361,229,362,-1,362,229,230,-1,362,230,363,-1,363,230,231,-1,363,231,364,-1,364,231,232,-1,364,232,365,-1,365,232,233,-1,365,233,366,-1,366,233,234,-1,366,234,367,-1,367,234,235,-1,367,235,368,-1,368,235,236,-1,368,236,369,-1,369,236,237,-1,369,237,370,-1,370,237,238,-1,370,238,371,-1,371,238,239,-1,371,239,372,-1,372,239,240,-1,372,240,373,-1,373,240,241,-1,373,241,374,-1,374,241,242,-1,374,242,375,-1,375,242,243,-1,375,243,376,-1,376,243,244,-1,376,244,377,-1,377,244,245,-1,377,245,290,-1,290,245,246,-1,378,379,290,-1,290,379,377,-1,377,379,376,-1,376,379,380,-1,376,380,375,-1,375,380,374,-1,374,380,381,-1,374,381,373,-1,373,381,372,-1,372,381,382,-1,372,382,371,-1,371,382,370,-1,370,382,383,-1,370,383,369,-1,369,383,368,-1,368,383,384,-1,368,384,367,-1,367,384,366,-1,366,384,385,-1,366,385,365,-1,365,385,364,-1,364,385,386,-1,364,386,363,-1,363,386,362,-1,362,386,387,-1,362,387,361,-1,361,387,360,-1,360,387,388,-1,360,388,359,-1,359,388,358,-1,358,388,389,-1,358,389,357,-1,357,389,356,-1,356,389,390,-1,356,390,355,-1,355,390,354,-1,354,390,391,-1,354,391,353,-1,353,391,352,-1,352,391,392,-1,352,392,351,-1,351,392,350,-1,350,392,393,-1,350,393,349,-1,349,393,348,-1,348,393,394,-1,348,394,347,-1,347,394,346,-1,346,394,395,-1,346,395,345,-1,345,395,344,-1,344,395,396,-1,344,396,343,-1,343,396,342,-1,342,396,397,-1,342,397,341,-1,341,397,340,-1,340,397,398,-1,340,398,339,-1,339,398,338,-1,338,398,399,-1,338,399,337,-1,337,399,336,-1,336,399,400,-1,336,400,335,-1,335,400,401,-1,335,401,334,-1,401,402,334,-1,334,402,333,-1,333,402,332,-1,332,402,403,-1,332,403,331,-1,331,403,330,-1,330,403,404,-1,330,404,329,-1,329,404,328,-1,328,404,405,-1,328,405,327,-1,327,405,326,-1,326,405,406,-1,326,406,325,-1,325,406,324,-1,324,406,407,-1,324,407,323,-1,323,407,322,-1,322,407,408,-1,322,408,321,-1,321,408,320,-1,320,408,409,-1,320,409,319,-1,319,409,318,-1,318,409,410,-1,318,410,317,-1,317,410,316,-1,316,410,411,-1,316,411,315,-1,315,411,314,-1,314,411,412,-1,314,412,313,-1,313,412,312,-1,312,412,413,-1,312,413,311,-1,311,413,310,-1,310,413,414,-1,310,414,309,-1,309,414,308,-1,308,414,415,-1,308,415,307,-1,307,415,306,-1,306,415,416,-1,306,416,305,-1,305,416,304,-1,304,416,417,-1,304,417,303,-1,303,417,302,-1,302,417,418,-1,302,418,301,-1,301,418,300,-1,300,418,419,-1,300,419,299,-1,299,419,298,-1,298,419,420,-1,298,420,297,-1,297,420,296,-1,296,420,421,-1,296,421,295,-1,295,421,294,-1,294,421,422,-1,294,422,293,-1,293,422,292,-1,292,422,423,-1,292,423,291,-1,291,423,378,-1,291,378,290,-1,424,378,423,-1,424,423,425,-1,425,423,422,-1,425,422,426,-1,426,422,421,-1,426,421,427,-1,427,421,420,-1,427,420,428,-1,428,420,419,-1,428,419,429,-1,429,419,418,-1,429,418,430,-1,430,418,417,-1,430,417,431,-1,431,417,416,-1,431,416,432,-1,432,416,415,-1,432,415,433,-1,433,415,414,-1,433,414,434,-1,434,414,413,-1,434,413,435,-1,435,413,412,-1,435,412,436,-1,436,412,411,-1,436,411,437,-1,437,411,410,-1,437,410,438,-1,438,410,409,-1,438,409,439,-1,439,409,408,-1,439,408,440,-1,440,408,407,-1,440,407,441,-1,441,407,406,-1,441,406,442,-1,442,406,405,-1,442,405,443,-1,443,405,404,-1,443,404,444,-1,444,404,403,-1,444,403,445,-1,445,403,402,-1,445,402,446,-1,446,402,401,-1,446,401,447,-1,447,401,400,-1,447,400,448,-1,448,400,399,-1,448,399,449,-1,449,399,398,-1,449,398,450,-1,450,398,397,-1,450,397,451,-1,451,397,396,-1,451,396,452,-1,452,396,395,-1,452,395,453,-1,453,395,394,-1,453,394,454,-1,454,394,393,-1,454,393,455,-1,455,393,392,-1,455,392,456,-1,456,392,391,-1,456,391,457,-1,457,391,390,-1,457,390,458,-1,458,390,389,-1,458,389,459,-1,459,389,388,-1,459,388,460,-1,460,388,387,-1,460,387,461,-1,461,387,386,-1,461,386,462,-1,462,386,385,-1,462,385,463,-1,463,385,384,-1,463,384,464,-1,464,384,383,-1,464,383,465,-1,465,383,382,-1,465,382,466,-1,466,382,381,-1,466,381,467,-1,467,381,380,-1,467,380,468,-1,468,380,379,-1,468,379,469,-1,469,379,378,-1,469,378,424,-1,
        ]
    }
}
Shape{
    appearance Appearance {
        material  Material 	{
            diffuseColor 0.2235294117647059 0.2235294117647059 0.2235294117647059
            specularColor 0.11372549019607843 0.11372549019607843 0.11372549019607843
            ambientIntensity 0.2235
            transparency 0.0
            shininess 0.5
        }
    }
    geometry IndexedFaceSet {
        ccw TRUE
        solid FALSE
        coord DEF co Coordinate {
            point [
                0.334 -0.3251 0.0827, 0.3346 -0.32 0.0827, 0.229 -0.1913 0.0827, 0.1358 0.2572 0.0827, 0.2165 0.3296 0.0827, 0.0989 0.2732 0.0827, 0.0601 0.2841 0.0827, 0.2708 0.1126 0.0827, 0.2843 0.0747 0.0827, 0.3346 0.2115 0.0827, -0.2843 0.0747 0.0827, -0.2708 0.1126 0.0827, -0.3346 0.31 0.0827, 0.2523 0.1484 0.0827, 0.2925 0.0352 0.0827, 0.2953 -0.005 0.0827, 0.2925 -0.0452 0.0827, 0.2843 -0.0847 0.0827, -0.229 -0.1913 0.0827, -0.2523 -0.1584 0.0827, -0.3346 -0.32 0.0827, -0.2708 -0.1226 0.0827, -0.2843 -0.0847 0.0827, -0.2925 -0.0452 0.0827, -0.2953 -0.005 0.0827, -0.2925 0.0352 0.0827, -0.2015 0.2108 0.0827, -0.1703 0.2362 0.0827, -0.315 0.3296 0.0827, -0.1358 0.2572 0.0827, -0.0989 0.2732 0.0827, 0.1703 0.2362 0.0827, 0.2015 0.2108 0.0827, 0.229 0.1813 0.0827, 0.2708 -0.1226 0.0827, 0.2523 -0.1584 0.0827, 0.2015 -0.2208 0.0827, 0.1703 -0.2462 0.0827, 0.315 -0.3396 0.0827, 0.1358 -0.2672 0.0827, 0.0989 -0.2832 0.0827, -0.1358 -0.2672 0.0827, -0.315 -0.3396 0.0827, -0.0989 -0.2832 0.0827, -0.0601 -0.2941 0.0827, -0.1703 -0.2462 0.0827, -0.2015 -0.2208 0.0827, -0.3201 -0.339 0.0827, -0.0601 0.2841 0.0827, -0.0202 0.2896 0.0827, 0.0202 0.2896 0.0827, 0.0601 -0.2941 0.0827, 0.0202 -0.2996 0.0827, -0.0202 -0.2996 0.0827, -0.3201 0.329 0.0827, -0.3248 0.327 0.0827, -0.3289 0.3239 0.0827, -0.2523 0.1484 0.0827, -0.229 0.1813 0.0827, -0.334 0.3151 0.0827, -0.332 0.3198 0.0827, 0.3201 -0.339 0.0827, 0.3248 -0.337 0.0827, 0.3289 -0.3339 0.0827, 0.332 -0.3298 0.0827, -0.334 -0.3251 0.0827, -0.332 -0.3298 0.0827, -0.3289 -0.3339 0.0827, -0.3248 -0.337 0.0827, 0.0879 -0.0157 0.0827, 0.248 -0.005 0.0827, 0.0879 0.0057 0.0827, 0.2453 0.032 0.0827, 0.0828 0.0264 0.0827, 0.0729 -0.0553 0.0827, 0.2235 -0.1126 0.0827, 0.0828 -0.0364 0.0827, 0.237 -0.0781 0.0827, 0.2453 -0.042 0.0827, 0.0212 -0.091 0.0827, 0.0906 -0.2359 0.0827, 0.0412 -0.0834 0.0827, 0.124 -0.2198 0.0827, 0.0587 -0.0713 0.0827, -0.0729 -0.0553 0.0827, -0.1818 -0.1737 0.0827, -0.0587 -0.0713 0.0827, -0.1546 -0.1989 0.0827, -0.0412 -0.0834 0.0827, 0.0212 0.081 0.0827, 0.0185 0.2423 0.0827, 0.0 0.0836 0.0827, -0.0185 0.2423 0.0827, -0.0212 0.081 0.0827, 0.0729 0.0453 0.0827, 0.1818 0.1637 0.0827, 0.0587 0.0613 0.0827, 0.1546 0.1889 0.0827, 0.0412 0.0734 0.0827, 0.1546 -0.1989 0.0827, 0.1818 -0.1737 0.0827, 0.2049 -0.1447 0.0827, -0.0828 -0.0364 0.0827, -0.2235 -0.1126 0.0827, -0.2049 -0.1447 0.0827, 0.124 0.2098 0.0827, 0.0906 0.2259 0.0827, 0.0552 0.2368 0.0827, 0.237 0.0681 0.0827, 0.2235 0.1026 0.0827, 0.2049 0.1347 0.0827, -0.0729 0.0453 0.0827, -0.0587 0.0613 0.0827, -0.1818 0.1637 0.0827, -0.0212 -0.091 0.0827, -0.0185 -0.2523 0.0827, 0.0 -0.0936 0.0827, 0.0185 -0.2523 0.0827, 0.0552 -0.2468 0.0827, -0.0879 0.0057 0.0827, -0.248 -0.005 0.0827, -0.0879 -0.0157 0.0827, -0.2453 -0.042 0.0827, -0.237 -0.0781 0.0827, -0.2049 0.1347 0.0827, -0.2235 0.1026 0.0827, -0.0828 0.0264 0.0827, -0.237 0.0681 0.0827, -0.2453 0.032 0.0827, -0.0552 0.2368 0.0827, -0.0906 0.2259 0.0827, -0.0412 0.0734 0.0827, -0.124 0.2098 0.0827, -0.1546 0.1889 0.0827, -0.124 -0.2198 0.0827, -0.0906 -0.2359 0.0827, -0.0552 -0.2468 0.0827
            ]
        }
        coordIndex [
            0,1,2,-1,3,4,5,-1,5,4,6,-1,7,8,9,-1,10,11,12,-1,7,9,13,-1,8,14,9,-1,9,14,15,-1,9,15,1,-1,1,15,16,-1,1,16,17,-1,18,19,20,-1,20,19,21,-1,20,21,22,-1,22,23,20,-1,20,23,24,-1,20,24,12,-1,12,24,25,-1,12,25,10,-1,26,27,28,-1,28,27,29,-1,28,29,30,-1,3,31,4,-1,4,31,32,-1,4,32,9,-1,9,32,33,-1,9,33,13,-1,17,34,1,-1,1,34,35,-1,1,35,2,-1,36,37,38,-1,38,37,39,-1,38,39,40,-1,41,42,43,-1,43,42,44,-1,41,45,42,-1,42,45,46,-1,42,46,47,-1,30,48,28,-1,28,48,49,-1,28,49,4,-1,4,49,50,-1,4,50,6,-1,40,51,38,-1,38,51,52,-1,38,52,42,-1,42,52,53,-1,42,53,44,-1,28,54,26,-1,26,54,55,-1,26,55,56,-1,11,57,12,-1,12,57,58,-1,12,58,59,-1,59,58,26,-1,59,26,60,-1,60,26,56,-1,36,38,2,-1,2,38,61,-1,2,61,62,-1,62,63,2,-1,2,63,64,-1,2,64,0,-1,18,20,46,-1,46,20,65,-1,46,65,66,-1,66,67,46,-1,46,67,68,-1,46,68,47,-1,69,70,71,-1,71,70,72,-1,71,72,73,-1,74,75,76,-1,76,75,77,-1,76,77,69,-1,69,77,78,-1,69,78,70,-1,79,80,81,-1,81,80,82,-1,81,82,83,-1,84,85,86,-1,86,85,87,-1,86,87,88,-1,89,90,91,-1,91,90,92,-1,91,92,93,-1,94,95,96,-1,96,95,97,-1,96,97,98,-1,82,99,83,-1,83,99,100,-1,83,100,74,-1,74,100,101,-1,74,101,75,-1,102,103,84,-1,84,103,104,-1,84,104,85,-1,97,105,98,-1,98,105,106,-1,98,106,89,-1,89,106,107,-1,89,107,90,-1,72,108,73,-1,73,108,109,-1,73,109,94,-1,94,109,110,-1,94,110,95,-1,111,112,113,-1,114,115,116,-1,116,115,117,-1,116,117,79,-1,79,117,118,-1,79,118,80,-1,119,120,121,-1,121,120,122,-1,121,122,102,-1,102,122,123,-1,102,123,103,-1,113,124,111,-1,111,124,125,-1,111,125,126,-1,126,125,127,-1,126,127,119,-1,119,127,128,-1,119,128,120,-1,92,129,93,-1,93,129,130,-1,93,130,131,-1,131,130,132,-1,131,132,112,-1,112,132,133,-1,112,133,113,-1,87,134,88,-1,88,134,135,-1,88,135,114,-1,114,135,136,-1,114,136,115,-1,
        ]
    }
}
Shape{
    appearance Appearance {
        material  Material 	{
            diffuseColor 0.9686274509803922 0.8784313725490196 0.6
            specularColor 0.6784313725490196 0.615686274509804 0.4196078431372549
            ambientIntensity 0.8737
            transparency 0.0
            shininess 0.5
        }
    }
    geometry IndexedFaceSet {
        ccw TRUE
        solid FALSE
        coord DEF co Coordinate {
            point [
                -0.248 -0.005 0.0827, -0.248 -0.005 0.2402, -0.2453 -0.042 0.0827, -0.2453 -0.042 0.2402, -0.237 -0.0781 0.0827, -0.237 -0.0781 0.2402, -0.2235 -0.1126 0.0827, -0.2235 -0.1126 0.2402, -0.2049 -0.1447 0.0827, -0.2049 -0.1447 0.2402, -0.1818 -0.1737 0.0827, -0.1818 -0.1737 0.2402, -0.1546 -0.1989 0.0827, -0.1546 -0.1989 0.2402, -0.124 -0.2198 0.0827, -0.124 -0.2198 0.2402, -0.0906 -0.2359 0.0827, -0.0906 -0.2359 0.2402, -0.0552 -0.2468 0.0827, -0.0552 -0.2468 0.2402, -0.0185 -0.2523 0.0827, -0.0185 -0.2523 0.2402, 0.0185 -0.2523 0.0827, 0.0185 -0.2523 0.2402, 0.0552 -0.2468 0.0827, 0.0552 -0.2468 0.2402, 0.0906 -0.2359 0.0827, 0.0906 -0.2359 0.2402, 0.124 -0.2198 0.0827, 0.124 -0.2198 0.2402, 0.1546 -0.1989 0.0827, 0.1546 -0.1989 0.2402, 0.1818 -0.1737 0.0827, 0.1818 -0.1737 0.2402, 0.2049 -0.1447 0.0827, 0.2049 -0.1447 0.2402, 0.2235 -0.1126 0.0827, 0.2235 -0.1126 0.2402, 0.237 -0.0781 0.0827, 0.237 -0.0781 0.2402, 0.2453 -0.042 0.0827, 0.2453 -0.042 0.2402, 0.248 -0.005 0.0827, 0.248 -0.005 0.2402, -0.0886 -0.1028 0.0, -0.0886 -0.1028 0.0039, -0.1063 -0.0832 0.0039, -0.1063 -0.0832 0.0, -0.1197 -0.0605 0.0039, -0.1197 -0.0605 0.0, -0.1284 -0.0355 0.0039, -0.1284 -0.0355 0.0, -0.1319 -0.0093 0.0039, -0.1319 -0.0093 0.0, -0.1301 0.017 0.0039, -0.1301 0.017 0.0, -0.1231 0.0425 0.0039, -0.1231 0.0425 0.0, -0.1112 0.066 0.0039, -0.1112 0.066 0.0, -0.0948 0.0868 0.0039, -0.0948 0.0868 0.0, -0.0747 0.1038 0.0039, -0.0747 0.1038 0.0, -0.0515 0.1165 0.0039, -0.0515 0.1165 0.0, -0.0263 0.1243 0.0039, -0.0263 0.1243 0.0, 0.0 0.1269 0.0039, 0.0 0.1269 0.0, 0.0263 0.1243 0.0039, 0.0263 0.1243 0.0, 0.0515 0.1165 0.0039, 0.0515 0.1165 0.0, 0.0747 0.1038 0.0039, 0.0747 0.1038 0.0, 0.0948 0.0868 0.0039, 0.0948 0.0868 0.0, 0.1112 0.066 0.0039, 0.1112 0.066 0.0, 0.1231 0.0425 0.0039, 0.1231 0.0425 0.0, 0.1301 0.017 0.0039, 0.1301 0.017 0.0, 0.1319 -0.0093 0.0039, 0.1319 -0.0093 0.0, 0.1284 -0.0355 0.0039, 0.1284 -0.0355 0.0, 0.1197 -0.0605 0.0039, 0.1197 -0.0605 0.0, 0.1063 -0.0832 0.0039, 0.1063 -0.0832 0.0, 0.0886 -0.1028 0.0039, 0.0886 -0.1028 0.0, -0.0886 -0.3987 0.0, -0.0443 -0.0817 0.0, 0.0886 -0.3987 0.0, -0.0154 -0.0922 0.0, -0.0303 -0.0882 0.0, 0.0 -0.0936 0.0, 0.0154 -0.0922 0.0, 0.0303 -0.0882 0.0, -0.0767 -0.0493 0.0, -0.0679 -0.0619 0.0, -0.0569 -0.0729 0.0, 0.0443 -0.0817 0.0, 0.0569 -0.0729 0.0, 0.0679 -0.0619 0.0, 0.0767 -0.0493 0.0, 0.0832 -0.0353 0.0, 0.0872 -0.0204 0.0, 0.0886 -0.005 0.0, 0.0872 0.0104 0.0, 0.0832 0.0253 0.0, 0.0767 0.0393 0.0, 0.0679 0.0519 0.0, -0.0569 0.0629 0.0, -0.0679 0.0519 0.0, -0.0767 0.0393 0.0, -0.0832 0.0253 0.0, -0.0872 0.0104 0.0, -0.0886 -0.005 0.0, -0.0872 -0.0204 0.0, -0.0832 -0.0353 0.0, 0.0569 0.0629 0.0, 0.0443 0.0717 0.0, 0.0303 0.0782 0.0, 0.0154 0.0822 0.0, 0.0 0.0836 0.0, -0.0154 0.0822 0.0, -0.0303 0.0782 0.0, -0.0443 0.0717 0.0, -0.2953 -0.2609 0.0, -0.2953 0.2509 0.0, -0.2953 -0.2609 0.0039, -0.2953 0.2509 0.0039, -0.3937 0.2509 0.0, -0.3937 -0.2609 0.0, 0.2953 0.2509 0.0, 0.2953 -0.2609 0.0, 0.2953 0.2509 0.0039, 0.2953 -0.2609 0.0039, 0.3937 0.2509 0.0, 0.3937 -0.2609 0.0, -0.0689 0.2706 0.0, 0.0689 0.2706 0.0, -0.0689 0.2706 0.0039, 0.0689 0.2706 0.0039, 0.0689 0.3887 0.0, -0.0689 0.3887 0.0, 0.0133 -0.0314 0.2008, 0.0068 -0.0337 0.2008, 0.0 -0.005 0.2008, 0.0 -0.0345 0.2008, -0.0068 -0.0337 0.2008, 0.0271 -0.0167 0.2008, 0.0237 -0.0226 0.2008, 0.019 -0.0276 0.2008, 0.0283 0.0035 0.2008, 0.0295 -0.0033 0.2008, 0.0291 -0.0101 0.2008, 0.0162 0.0197 0.2008, 0.0215 0.0153 0.2008, 0.0256 0.0098 0.2008, -0.0034 0.0243 0.2008, 0.0034 0.0243 0.2008, 0.0101 0.0227 0.2008, -0.0215 0.0153 0.2008, -0.0162 0.0197 0.2008, -0.0101 0.0227 0.2008, -0.0295 -0.0033 0.2008, -0.0283 0.0035 0.2008, -0.0256 0.0098 0.2008, -0.0237 -0.0226 0.2008, -0.0271 -0.0167 0.2008, -0.0291 -0.0101 0.2008, -0.0133 -0.0314 0.2008, -0.019 -0.0276 0.2008, -0.0423 -0.0294 0.1811, -0.0452 -0.0245 0.1811, -0.0446 -0.0242 0.1862, -0.0472 -0.0176 0.1811, -0.0485 -0.0135 0.1811, -0.0478 -0.0134 0.1862, -0.049 -0.005 0.1811, -0.0491 -0.0021 0.1811, -0.0485 -0.0022 0.1862, -0.0245 0.0374 0.1811, -0.0168 0.0412 0.1811, -0.0166 0.0406 0.1862, -0.0127 0.0422 0.1811, -0.0057 0.0439 0.1811, -0.0056 0.0432 0.1862, 0.0 0.0439 0.1811, 0.0057 0.0439 0.1811, 0.0056 0.0432 0.1862, 0.0245 0.0374 0.1811, 0.027 0.0361 0.1811, 0.0267 0.0356 0.1862, 0.049 -0.005 0.1811, 0.0485 -0.0135 0.1811, 0.0478 -0.0134 0.1862, 0.0472 -0.0176 0.1811, 0.0452 -0.0245 0.1811, 0.0446 -0.0242 0.1862, 0.0423 -0.0294 0.1811, 0.0395 -0.0344 0.1811, 0.0389 -0.034 0.1862, -0.0252 0.0188 0.2001, -0.03 0.0123 0.2001, -0.0341 0.0147 0.1981, -0.008 -0.0387 0.2001, -0.0155 -0.0359 0.2001, -0.0223 -0.0315 0.2001, -0.0278 -0.0257 0.2001, -0.0318 -0.0187 0.2001, -0.0416 0.0075 0.195, -0.0377 0.0063 0.1981, -0.0332 0.0049 0.2001, -0.0465 -0.0023 0.1909, -0.0434 -0.0025 0.195, -0.0393 -0.0027 0.1981, -0.0346 -0.003 0.2001, 0.0107 -0.0503 0.1909, 0.0 -0.0516 0.1909, 0.0 -0.0484 0.195, -0.0459 -0.0131 0.1909, -0.0428 -0.0125 0.195, -0.0388 -0.0118 0.1981, -0.0341 -0.011 0.2001, 0.0 -0.0535 0.1862, 0.0112 -0.0522 0.1862, 0.0218 -0.0484 0.1862, 0.0312 -0.0422 0.1862, 0.0299 -0.0407 0.1909, 0.0209 -0.0466 0.1909, 0.0195 -0.0438 0.195, 0.01 -0.0473 0.195, 0.0091 -0.0433 0.1981, 0.0 -0.0444 0.1981, 0.0 -0.0396 0.2001, 0.0223 -0.0315 0.2001, 0.0278 -0.0257 0.2001, 0.0316 -0.0285 0.1981, 0.0362 -0.0206 0.1981, 0.0399 -0.0222 0.195, 0.0428 -0.0125 0.195, 0.0459 -0.0131 0.1909, 0.0465 -0.0023 0.1909, 0.0485 -0.0022 0.1862, 0.0465 0.0089 0.1862, 0.0318 -0.0187 0.2001, 0.0341 -0.011 0.2001, 0.0388 -0.0118 0.1981, 0.0393 -0.0027 0.1981, 0.0434 -0.0025 0.195, 0.0416 0.0075 0.195, 0.0446 0.0084 0.1909, 0.0403 0.0183 0.1909, 0.042 0.0193 0.1862, 0.0353 0.0283 0.1862, 0.0358 0.0288 0.1811, 0.0347 0.0297 0.1811, 0.0332 0.0049 0.2001, 0.03 0.0123 0.2001, 0.0341 0.0147 0.1981, 0.0286 0.022 0.1981, 0.0316 0.0248 0.195, 0.0239 0.0313 0.195, 0.0256 0.0339 0.1909, 0.0159 0.0388 0.1909, 0.0166 0.0406 0.1862, 0.0118 0.0275 0.2001, 0.004 0.0294 0.2001, 0.0046 0.0341 0.1981, -0.0046 0.0341 0.1981, -0.005 0.0382 0.195, -0.0149 0.0358 0.195, -0.0159 0.0388 0.1909, -0.0256 0.0339 0.1909, -0.0267 0.0356 0.1862, -0.0353 0.0283 0.1862, -0.004 0.0294 0.2001, -0.0118 0.0275 0.2001, -0.0135 0.032 0.1981, -0.0216 0.0279 0.1981, -0.0239 0.0313 0.195, -0.0316 0.0248 0.195, -0.0339 0.027 0.1909, -0.0403 0.0183 0.1909, -0.042 0.0193 0.1862, -0.0465 0.0089 0.1862, -0.0471 0.0091 0.1811, -0.0474 0.0077 0.1811, 0.0 -0.0542 0.1811, 0.0113 -0.0529 0.1811, 0.0127 -0.0524 0.1811, 0.0221 -0.049 0.1811, 0.0245 -0.0474 0.1811, 0.0316 -0.0427 0.1811, 0.0346 -0.0396 0.1811, 0.0374 -0.0328 0.1909, 0.0279 -0.0383 0.195, 0.0177 -0.0402 0.1981, 0.008 -0.0387 0.2001, 0.0428 -0.0234 0.1909, 0.0348 -0.0309 0.195, 0.0253 -0.0352 0.1981, 0.0155 -0.0359 0.2001, 0.0426 0.0196 0.1811, 0.0471 0.0091 0.1811, 0.0474 0.0077 0.1811, 0.0491 -0.0021 0.1811, 0.0339 0.027 0.1909, 0.0376 0.0167 0.195, 0.0377 0.0063 0.1981, 0.0346 -0.003 0.2001, 0.0168 0.0412 0.1811, 0.0127 0.0422 0.1811, 0.0054 0.0413 0.1909, 0.0149 0.0358 0.195, 0.0216 0.0279 0.1981, 0.0252 0.0188 0.2001, -0.0054 0.0413 0.1909, 0.005 0.0382 0.195, 0.0135 0.032 0.1981, 0.019 0.0239 0.2001, -0.0426 0.0196 0.1811, -0.0358 0.0288 0.1811, -0.0347 0.0297 0.1811, -0.027 0.0361 0.1811, -0.0446 0.0084 0.1909, -0.0376 0.0167 0.195, -0.0286 0.022 0.1981, -0.019 0.0239 0.2001, -0.0362 -0.0206 0.1981, -0.0399 -0.0222 0.195, -0.0428 -0.0234 0.1909, -0.0316 -0.0285 0.1981, -0.0348 -0.0309 0.195, -0.0374 -0.0328 0.1909, -0.0389 -0.034 0.1862, -0.0395 -0.0344 0.1811, -0.0312 -0.0422 0.1862, -0.0316 -0.0427 0.1811, -0.0346 -0.0396 0.1811, -0.0253 -0.0352 0.1981, -0.0279 -0.0383 0.195, -0.0299 -0.0407 0.1909, -0.0218 -0.0484 0.1862, -0.0221 -0.049 0.1811, -0.0245 -0.0474 0.1811, -0.0177 -0.0402 0.1981, -0.0195 -0.0438 0.195, -0.0209 -0.0466 0.1909, -0.0112 -0.0522 0.1862, -0.0113 -0.0529 0.1811, -0.0127 -0.0524 0.1811, -0.0091 -0.0433 0.1981, -0.01 -0.0473 0.195, -0.0107 -0.0503 0.1909, 0.0 -0.0542 0.0394, -0.0085 -0.0535 0.0394, -0.0127 -0.0524 0.0394, -0.0168 -0.0512 0.0394, -0.0246 -0.0476 0.0394, -0.0316 -0.0427 0.0394, -0.0347 -0.0397 0.0394, -0.0377 -0.0366 0.0394, -0.0426 -0.0296 0.0394, -0.0462 -0.0218 0.0394, -0.0474 -0.0177 0.0394, -0.0485 -0.0135 0.0394, -0.0492 -0.005 0.0394, -0.0485 0.0035 0.0394, -0.0474 0.0077 0.0394, -0.0462 0.0118 0.0394, -0.0426 0.0196 0.0394, -0.0377 0.0266 0.0394, -0.0347 0.0297 0.0394, -0.0316 0.0327 0.0394, -0.0246 0.0376 0.0394, -0.0168 0.0412 0.0394, -0.0127 0.0424 0.0394, -0.0085 0.0435 0.0394, 0.0 0.0442 0.0394, 0.0085 0.0435 0.0394, 0.0127 0.0424 0.0394, 0.0168 0.0412 0.0394, 0.0246 0.0376 0.0394, 0.0316 0.0327 0.0394, 0.0347 0.0297 0.0394, 0.0377 0.0266 0.0394, 0.0426 0.0196 0.0394, 0.0462 0.0118 0.0394, 0.0474 0.0077 0.0394, 0.0485 0.0035 0.0394, 0.0492 -0.005 0.0394, 0.0085 -0.0535 0.0394, 0.0127 -0.0524 0.0394, 0.0168 -0.0512 0.0394, 0.0246 -0.0476 0.0394, 0.0316 -0.0427 0.0394, 0.0347 -0.0397 0.0394, 0.0377 -0.0366 0.0394, 0.0426 -0.0296 0.0394, 0.0462 -0.0218 0.0394, 0.0474 -0.0177 0.0394, 0.0485 -0.0135 0.0394, 0.0173 -0.0525 0.0292, 0.0253 -0.0488 0.0292, 0.0325 -0.0437 0.0292, 0.0387 -0.0375 0.0292, 0.0438 -0.0303 0.0292, 0.0475 -0.0223 0.0292, 0.0498 -0.0138 0.0292, 0.0506 -0.005 0.0292, 0.0498 0.0038 0.0292, 0.0475 0.0123 0.0292, 0.0438 0.0203 0.0292, 0.0387 0.0275 0.0292, 0.0325 0.0337 0.0292, 0.0253 0.0388 0.0292, 0.0173 0.0425 0.0292, 0.0088 0.0448 0.0292, 0.0 0.0456 0.0292, -0.0088 0.0448 0.0292, -0.0173 0.0425 0.0292, -0.0253 0.0388 0.0292, -0.0325 0.0337 0.0292, -0.0387 0.0275 0.0292, -0.0438 0.0203 0.0292, -0.0475 0.0123 0.0292, -0.0498 0.0038 0.0292, -0.0506 -0.005 0.0292, -0.0498 -0.0138 0.0292, -0.0475 -0.0223 0.0292, -0.0438 -0.0303 0.0292, -0.0387 -0.0375 0.0292, -0.0325 -0.0437 0.0292, -0.0253 -0.0488 0.0292, -0.0173 -0.0525 0.0292, -0.0088 -0.0548 0.0292, 0.0 -0.0556 0.0292, 0.0088 -0.0548 0.0292, -0.0095 -0.0587 0.0197, -0.0186 -0.0562 0.0197, -0.0272 -0.0522 0.0197, -0.035 -0.0467 0.0197, -0.0417 -0.04 0.0197, -0.0472 -0.0322 0.0197, -0.0512 -0.0236 0.0197, -0.0537 -0.0145 0.0197, -0.0545 -0.005 0.0197, -0.0537 0.0045 0.0197, -0.0512 0.0136 0.0197, -0.0472 0.0222 0.0197, -0.0417 0.03 0.0197, -0.035 0.0367 0.0197, -0.0272 0.0422 0.0197, -0.0186 0.0462 0.0197, -0.0095 0.0487 0.0197, 0.0 0.0495 0.0197, 0.0095 0.0487 0.0197, 0.0186 0.0462 0.0197, 0.0272 0.0422 0.0197, 0.035 0.0367 0.0197, 0.0417 0.03 0.0197, 0.0472 0.0222 0.0197, 0.0512 0.0136 0.0197, 0.0537 0.0045 0.0197, 0.0545 -0.005 0.0197, 0.0537 -0.0145 0.0197, 0.0512 -0.0236 0.0197, 0.0472 -0.0322 0.0197, 0.0417 -0.04 0.0197, 0.035 -0.0467 0.0197, 0.0272 -0.0522 0.0197, 0.0186 -0.0562 0.0197, 0.0095 -0.0587 0.0197, 0.0 -0.0595 0.0197, -0.0105 -0.0648 0.0115, -0.0208 -0.0621 0.0115, -0.0304 -0.0576 0.0115, -0.039 -0.0515 0.0115, -0.0465 -0.044 0.0115, -0.0526 -0.0354 0.0115, -0.0571 -0.0258 0.0115, -0.0598 -0.0155 0.0115, -0.0607 -0.005 0.0115, -0.0598 0.0055 0.0115, -0.0571 0.0158 0.0115, -0.0526 0.0254 0.0115, -0.0465 0.034 0.0115, -0.039 0.0415 0.0115, -0.0304 0.0476 0.0115, -0.0208 0.0521 0.0115, -0.0105 0.0548 0.0115, 0.0 0.0557 0.0115, 0.0105 0.0548 0.0115, 0.0208 0.0521 0.0115, 0.0304 0.0476 0.0115, 0.039 0.0415 0.0115, 0.0465 0.034 0.0115, 0.0526 0.0254 0.0115, 0.0571 0.0158 0.0115, 0.0598 0.0055 0.0115, 0.0607 -0.005 0.0115, 0.0598 -0.0155 0.0115, 0.0571 -0.0258 0.0115, 0.0526 -0.0354 0.0115, 0.0465 -0.044 0.0115, 0.039 -0.0515 0.0115, 0.0304 -0.0576 0.0115, 0.0208 -0.0621 0.0115, 0.0105 -0.0648 0.0115, 0.0 -0.0657 0.0115, -0.012 -0.0729 0.0053, -0.0236 -0.0697 0.0053, -0.0344 -0.0647 0.0053, -0.0443 -0.0578 0.0053, -0.0528 -0.0493 0.0053, -0.0597 -0.0394 0.0053, -0.0647 -0.0286 0.0053, -0.0679 -0.017 0.0053, -0.0689 -0.005 0.0053, -0.0679 0.007 0.0053, -0.0647 0.0186 0.0053, -0.0597 0.0294 0.0053, -0.0528 0.0393 0.0053, -0.0443 0.0478 0.0053, -0.0344 0.0547 0.0053, -0.0236 0.0597 0.0053, -0.012 0.0629 0.0053, 0.0 0.0639 0.0053, 0.012 0.0629 0.0053, 0.0236 0.0597 0.0053, 0.0344 0.0547 0.0053, 0.0443 0.0478 0.0053, 0.0528 0.0393 0.0053, 0.0597 0.0294 0.0053, 0.0647 0.0186 0.0053, 0.0679 0.007 0.0053, 0.0689 -0.005 0.0053, 0.0679 -0.017 0.0053, 0.0647 -0.0286 0.0053, 0.0597 -0.0394 0.0053, 0.0528 -0.0493 0.0053, 0.0443 -0.0578 0.0053, 0.0344 -0.0647 0.0053, 0.0236 -0.0697 0.0053, 0.012 -0.0729 0.0053, 0.0 -0.0739 0.0053, -0.0136 -0.0822 0.0013, -0.0268 -0.0787 0.0013, -0.0392 -0.0729 0.0013, -0.0504 -0.0651 0.0013, -0.0601 -0.0554 0.0013, -0.0679 -0.0442 0.0013, -0.0737 -0.0318 0.0013, -0.0772 -0.0186 0.0013, -0.0784 -0.005 0.0013, -0.0772 0.0086 0.0013, -0.0737 0.0218 0.0013, -0.0679 0.0342 0.0013, -0.0601 0.0454 0.0013, -0.0504 0.0551 0.0013, -0.0392 0.0629 0.0013, -0.0268 0.0687 0.0013, -0.0136 0.0722 0.0013, 0.0 0.0734 0.0013, 0.0136 0.0722 0.0013, 0.0268 0.0687 0.0013, 0.0392 0.0629 0.0013, 0.0504 0.0551 0.0013, 0.0601 0.0454 0.0013, 0.0679 0.0342 0.0013, 0.0737 0.0218 0.0013, 0.0772 0.0086 0.0013, 0.0784 -0.005 0.0013, 0.0772 -0.0186 0.0013, 0.0737 -0.0318 0.0013, 0.0679 -0.0442 0.0013, 0.0601 -0.0554 0.0013, 0.0504 -0.0651 0.0013, 0.0392 -0.0729 0.0013, 0.0268 -0.0787 0.0013, 0.0136 -0.0822 0.0013, 0.0 -0.0834 0.0013
            ]
        }
        coordIndex [
            0,1,2,-1,2,1,3,-1,2,3,4,-1,4,3,5,-1,4,5,6,-1,6,5,7,-1,6,7,8,-1,8,7,9,-1,8,9,10,-1,10,9,11,-1,10,11,12,-1,12,11,13,-1,12,13,14,-1,14,13,15,-1,14,15,16,-1,16,15,17,-1,16,17,18,-1,18,17,19,-1,18,19,20,-1,20,19,21,-1,20,21,22,-1,22,21,23,-1,22,23,24,-1,24,23,25,-1,24,25,26,-1,26,25,27,-1,26,27,28,-1,28,27,29,-1,28,29,30,-1,30,29,31,-1,30,31,32,-1,32,31,33,-1,32,33,34,-1,34,33,35,-1,34,35,36,-1,36,35,37,-1,36,37,38,-1,38,37,39,-1,38,39,40,-1,40,39,41,-1,40,41,42,-1,42,41,43,-1,44,45,46,-1,44,46,47,-1,47,46,48,-1,47,48,49,-1,49,48,50,-1,49,50,51,-1,51,50,52,-1,51,52,53,-1,53,52,54,-1,53,54,55,-1,55,54,56,-1,55,56,57,-1,57,56,58,-1,57,58,59,-1,59,58,60,-1,59,60,61,-1,61,60,62,-1,61,62,63,-1,63,62,64,-1,63,64,65,-1,65,64,66,-1,65,66,67,-1,67,66,68,-1,67,68,69,-1,69,68,70,-1,69,70,71,-1,71,70,72,-1,71,72,73,-1,73,72,74,-1,73,74,75,-1,75,74,76,-1,75,76,77,-1,77,76,78,-1,77,78,79,-1,79,78,80,-1,79,80,81,-1,81,80,82,-1,81,82,83,-1,83,82,84,-1,83,84,85,-1,85,84,86,-1,85,86,87,-1,87,86,88,-1,87,88,89,-1,89,88,90,-1,89,90,91,-1,91,90,92,-1,91,92,93,-1,94,44,95,-1,93,96,97,-1,97,96,94,-1,97,94,98,-1,98,94,95,-1,97,99,93,-1,93,99,100,-1,93,100,101,-1,49,102,47,-1,47,102,103,-1,47,103,44,-1,44,103,104,-1,44,104,95,-1,101,105,93,-1,93,105,106,-1,93,106,91,-1,91,106,107,-1,91,107,89,-1,107,108,89,-1,89,108,109,-1,89,109,87,-1,87,109,110,-1,87,110,85,-1,85,110,111,-1,85,111,83,-1,83,111,112,-1,83,112,81,-1,81,112,113,-1,81,113,79,-1,79,113,114,-1,79,114,77,-1,77,114,115,-1,77,115,75,-1,63,116,61,-1,61,116,117,-1,61,117,59,-1,59,117,118,-1,59,118,57,-1,57,118,119,-1,57,119,55,-1,55,119,120,-1,55,120,53,-1,53,120,121,-1,53,121,51,-1,51,121,122,-1,51,122,49,-1,49,122,123,-1,49,123,102,-1,115,124,75,-1,75,124,125,-1,75,125,73,-1,73,125,126,-1,73,126,71,-1,71,126,127,-1,71,127,69,-1,69,127,128,-1,69,128,67,-1,67,128,129,-1,67,129,65,-1,65,129,130,-1,65,130,63,-1,63,130,131,-1,63,131,116,-1,132,133,134,-1,134,133,135,-1,133,132,136,-1,136,132,137,-1,138,139,140,-1,140,139,141,-1,142,143,138,-1,138,143,139,-1,144,145,146,-1,146,145,147,-1,148,145,149,-1,149,145,144,-1,150,151,152,-1,152,151,153,-1,152,153,154,-1,155,156,152,-1,152,156,157,-1,152,157,150,-1,158,159,152,-1,152,159,160,-1,152,160,155,-1,161,162,152,-1,152,162,163,-1,152,163,158,-1,164,165,152,-1,152,165,166,-1,152,166,161,-1,167,168,152,-1,152,168,169,-1,152,169,164,-1,170,171,152,-1,152,171,172,-1,152,172,167,-1,173,174,152,-1,152,174,175,-1,152,175,170,-1,154,176,152,-1,152,176,177,-1,152,177,173,-1,178,179,180,-1,181,182,183,-1,184,185,186,-1,187,188,189,-1,190,191,192,-1,193,194,195,-1,196,197,198,-1,199,200,201,-1,202,203,204,-1,205,206,207,-1,208,209,210,-1,176,154,211,-1,177,176,212,-1,173,177,213,-1,174,173,214,-1,175,174,215,-1,172,209,167,-1,167,209,208,-1,167,208,168,-1,216,210,217,-1,217,210,209,-1,217,209,218,-1,218,209,172,-1,218,172,171,-1,219,216,220,-1,220,216,217,-1,220,217,221,-1,221,217,218,-1,221,218,222,-1,222,218,171,-1,222,171,170,-1,223,224,225,-1,183,219,226,-1,226,219,220,-1,226,220,227,-1,227,220,221,-1,227,221,228,-1,228,221,222,-1,228,222,229,-1,229,222,170,-1,229,170,175,-1,230,224,231,-1,231,224,223,-1,231,223,232,-1,207,233,234,-1,234,233,235,-1,234,235,236,-1,236,235,237,-1,236,237,238,-1,238,237,239,-1,238,239,240,-1,150,157,241,-1,241,157,242,-1,241,242,243,-1,243,242,244,-1,243,244,245,-1,245,244,246,-1,245,246,247,-1,247,246,248,-1,247,248,249,-1,249,248,250,-1,156,155,251,-1,251,155,252,-1,251,252,253,-1,253,252,254,-1,253,254,255,-1,255,254,256,-1,255,256,257,-1,257,256,258,-1,257,258,259,-1,259,258,260,-1,259,260,261,-1,261,260,262,-1,159,158,263,-1,263,158,264,-1,263,264,265,-1,265,264,266,-1,265,266,267,-1,267,266,268,-1,267,268,269,-1,269,268,270,-1,269,270,271,-1,271,270,195,-1,161,166,272,-1,272,166,273,-1,272,273,274,-1,274,273,275,-1,274,275,276,-1,276,275,277,-1,276,277,278,-1,278,277,279,-1,278,279,280,-1,280,279,281,-1,165,164,282,-1,282,164,283,-1,282,283,284,-1,284,283,285,-1,284,285,286,-1,286,285,287,-1,286,287,288,-1,288,287,289,-1,288,289,290,-1,290,289,291,-1,290,291,292,-1,292,291,293,-1,294,230,295,-1,295,230,231,-1,295,231,296,-1,296,231,232,-1,296,232,297,-1,297,232,298,-1,299,298,233,-1,233,298,232,-1,233,232,235,-1,235,232,223,-1,235,223,237,-1,237,223,225,-1,237,225,239,-1,207,206,233,-1,233,206,300,-1,233,300,299,-1,203,205,204,-1,204,205,207,-1,204,207,301,-1,301,207,234,-1,301,234,302,-1,302,234,236,-1,302,236,303,-1,303,236,238,-1,303,238,304,-1,304,238,240,-1,304,240,153,-1,153,240,154,-1,200,202,201,-1,201,202,204,-1,201,204,305,-1,305,204,301,-1,305,301,306,-1,306,301,302,-1,306,302,307,-1,307,302,303,-1,307,303,308,-1,308,303,304,-1,308,304,151,-1,151,304,153,-1,151,150,308,-1,308,150,241,-1,308,241,307,-1,307,241,243,-1,307,243,306,-1,306,243,245,-1,306,245,305,-1,305,245,247,-1,305,247,201,-1,201,247,249,-1,201,249,199,-1,309,310,250,-1,250,310,311,-1,250,311,249,-1,249,311,312,-1,249,312,199,-1,157,156,242,-1,242,156,251,-1,242,251,244,-1,244,251,253,-1,244,253,246,-1,246,253,255,-1,246,255,248,-1,248,255,257,-1,248,257,250,-1,250,257,259,-1,250,259,309,-1,309,259,261,-1,197,262,198,-1,198,262,260,-1,198,260,313,-1,313,260,258,-1,313,258,314,-1,314,258,256,-1,314,256,315,-1,315,256,254,-1,315,254,316,-1,316,254,252,-1,316,252,160,-1,160,252,155,-1,317,196,271,-1,271,196,198,-1,271,198,269,-1,269,198,313,-1,269,313,267,-1,267,313,314,-1,267,314,265,-1,265,314,315,-1,265,315,263,-1,263,315,316,-1,263,316,159,-1,159,316,160,-1,195,194,271,-1,271,194,318,-1,271,318,317,-1,191,193,192,-1,192,193,195,-1,192,195,319,-1,319,195,270,-1,319,270,320,-1,320,270,268,-1,320,268,321,-1,321,268,266,-1,321,266,322,-1,322,266,264,-1,322,264,163,-1,163,264,158,-1,188,190,189,-1,189,190,192,-1,189,192,323,-1,323,192,319,-1,323,319,324,-1,324,319,320,-1,324,320,325,-1,325,320,321,-1,325,321,326,-1,326,321,322,-1,326,322,162,-1,162,322,163,-1,162,161,326,-1,326,161,272,-1,326,272,325,-1,325,272,274,-1,325,274,324,-1,324,274,276,-1,324,276,323,-1,323,276,278,-1,323,278,189,-1,189,278,280,-1,189,280,187,-1,327,328,281,-1,281,328,329,-1,281,329,280,-1,280,329,330,-1,280,330,187,-1,166,165,273,-1,273,165,282,-1,273,282,275,-1,275,282,284,-1,275,284,277,-1,277,284,286,-1,277,286,279,-1,279,286,288,-1,279,288,281,-1,281,288,290,-1,281,290,327,-1,327,290,292,-1,185,293,186,-1,186,293,291,-1,186,291,331,-1,331,291,289,-1,331,289,332,-1,332,289,287,-1,332,287,333,-1,333,287,285,-1,333,285,334,-1,334,285,283,-1,334,283,169,-1,169,283,164,-1,182,184,183,-1,183,184,186,-1,183,186,219,-1,219,186,331,-1,219,331,216,-1,216,331,332,-1,216,332,210,-1,210,332,333,-1,210,333,208,-1,208,333,334,-1,208,334,168,-1,168,334,169,-1,175,215,229,-1,229,215,335,-1,229,335,228,-1,228,335,336,-1,228,336,227,-1,227,336,337,-1,227,337,226,-1,226,337,180,-1,226,180,183,-1,183,180,179,-1,183,179,181,-1,174,214,215,-1,215,214,338,-1,215,338,335,-1,335,338,339,-1,335,339,336,-1,336,339,340,-1,336,340,337,-1,337,340,341,-1,337,341,180,-1,180,341,342,-1,180,342,178,-1,343,344,345,-1,173,213,214,-1,214,213,346,-1,214,346,338,-1,338,346,347,-1,338,347,339,-1,339,347,348,-1,339,348,340,-1,340,348,343,-1,340,343,341,-1,341,343,345,-1,341,345,342,-1,349,350,351,-1,177,212,213,-1,213,212,352,-1,213,352,346,-1,346,352,353,-1,346,353,347,-1,347,353,354,-1,347,354,348,-1,348,354,349,-1,348,349,343,-1,343,349,351,-1,343,351,344,-1,355,356,357,-1,176,211,212,-1,212,211,358,-1,212,358,352,-1,352,358,359,-1,352,359,353,-1,353,359,360,-1,353,360,354,-1,354,360,355,-1,354,355,349,-1,349,355,357,-1,349,357,350,-1,154,240,211,-1,211,240,239,-1,211,239,358,-1,358,239,225,-1,358,225,359,-1,359,225,224,-1,359,224,360,-1,360,224,230,-1,360,230,355,-1,355,230,294,-1,355,294,356,-1,294,361,362,-1,294,362,356,-1,356,362,363,-1,356,363,357,-1,357,363,364,-1,357,364,350,-1,350,364,365,-1,350,365,351,-1,351,365,344,-1,344,365,366,-1,344,366,345,-1,345,366,367,-1,345,367,342,-1,342,367,368,-1,342,368,178,-1,178,368,369,-1,178,369,179,-1,179,369,370,-1,179,370,181,-1,181,370,371,-1,181,371,182,-1,182,371,372,-1,182,372,184,-1,184,372,373,-1,184,373,185,-1,185,373,374,-1,185,374,293,-1,293,374,375,-1,293,375,292,-1,292,375,376,-1,292,376,327,-1,327,376,377,-1,327,377,328,-1,328,377,378,-1,328,378,329,-1,378,379,329,-1,329,379,380,-1,329,380,330,-1,330,380,381,-1,330,381,187,-1,187,381,188,-1,188,381,382,-1,188,382,190,-1,190,382,383,-1,190,383,191,-1,191,383,384,-1,191,384,193,-1,193,384,385,-1,193,385,194,-1,194,385,386,-1,194,386,318,-1,318,386,387,-1,318,387,317,-1,317,387,388,-1,317,388,196,-1,196,388,389,-1,196,389,197,-1,197,389,390,-1,197,390,262,-1,262,390,391,-1,262,391,261,-1,261,391,392,-1,261,392,309,-1,309,392,393,-1,309,393,310,-1,310,393,394,-1,310,394,311,-1,394,395,311,-1,311,395,396,-1,311,396,312,-1,312,396,397,-1,361,294,398,-1,398,294,295,-1,398,295,399,-1,399,295,296,-1,399,296,400,-1,400,296,297,-1,400,297,401,-1,401,297,298,-1,401,298,402,-1,402,298,299,-1,402,299,403,-1,403,299,300,-1,403,300,404,-1,404,300,206,-1,404,206,405,-1,405,206,205,-1,405,205,406,-1,406,205,203,-1,406,203,407,-1,407,203,202,-1,407,202,408,-1,408,202,200,-1,408,200,397,-1,397,200,199,-1,397,199,312,-1,409,401,410,-1,410,401,402,-1,410,402,411,-1,411,402,403,-1,411,403,412,-1,403,404,412,-1,412,404,405,-1,412,405,413,-1,413,405,406,-1,413,406,414,-1,414,406,407,-1,414,407,415,-1,407,408,415,-1,415,408,397,-1,415,397,416,-1,416,397,396,-1,416,396,417,-1,417,396,395,-1,417,395,418,-1,395,394,418,-1,418,394,393,-1,418,393,419,-1,419,393,392,-1,419,392,420,-1,420,392,391,-1,420,391,421,-1,391,390,421,-1,421,390,389,-1,421,389,422,-1,422,389,388,-1,422,388,423,-1,423,388,387,-1,423,387,424,-1,387,386,424,-1,424,386,385,-1,424,385,425,-1,425,385,384,-1,425,384,426,-1,426,384,383,-1,426,383,427,-1,383,382,427,-1,427,382,381,-1,427,381,428,-1,428,381,380,-1,428,380,429,-1,429,380,379,-1,429,379,430,-1,379,378,430,-1,430,378,377,-1,430,377,431,-1,431,377,376,-1,431,376,432,-1,432,376,375,-1,432,375,433,-1,375,374,433,-1,433,374,373,-1,433,373,434,-1,434,373,372,-1,434,372,435,-1,435,372,371,-1,435,371,436,-1,371,370,436,-1,436,370,369,-1,436,369,437,-1,437,369,368,-1,437,368,438,-1,438,368,367,-1,438,367,439,-1,367,366,439,-1,439,366,365,-1,439,365,440,-1,440,365,364,-1,440,364,441,-1,441,364,363,-1,441,363,442,-1,363,362,442,-1,442,362,361,-1,442,361,443,-1,443,361,398,-1,443,398,444,-1,444,398,399,-1,444,399,409,-1,409,399,400,-1,409,400,401,-1,443,445,442,-1,442,445,446,-1,442,446,441,-1,441,446,447,-1,441,447,440,-1,440,447,448,-1,440,448,439,-1,439,448,449,-1,439,449,438,-1,438,449,450,-1,438,450,437,-1,437,450,451,-1,437,451,436,-1,436,451,452,-1,436,452,435,-1,435,452,453,-1,435,453,434,-1,434,453,454,-1,434,454,433,-1,433,454,455,-1,433,455,432,-1,432,455,456,-1,432,456,431,-1,431,456,457,-1,431,457,430,-1,430,457,458,-1,430,458,429,-1,429,458,459,-1,429,459,428,-1,428,459,460,-1,428,460,427,-1,427,460,461,-1,427,461,426,-1,426,461,462,-1,426,462,425,-1,425,462,463,-1,425,463,424,-1,424,463,464,-1,424,464,423,-1,423,464,465,-1,423,465,422,-1,422,465,466,-1,422,466,421,-1,421,466,467,-1,421,467,420,-1,420,467,468,-1,420,468,419,-1,419,468,469,-1,419,469,418,-1,418,469,470,-1,418,470,417,-1,417,470,471,-1,417,471,416,-1,416,471,472,-1,416,472,415,-1,415,472,473,-1,415,473,414,-1,414,473,474,-1,414,474,413,-1,413,474,475,-1,413,475,412,-1,412,475,476,-1,412,476,411,-1,411,476,477,-1,411,477,410,-1,410,477,478,-1,410,478,409,-1,409,478,479,-1,409,479,444,-1,444,479,480,-1,444,480,443,-1,443,480,445,-1,480,481,445,-1,445,481,482,-1,445,482,446,-1,446,482,483,-1,446,483,447,-1,447,483,484,-1,447,484,448,-1,448,484,485,-1,448,485,449,-1,449,485,486,-1,449,486,450,-1,450,486,487,-1,450,487,451,-1,451,487,488,-1,451,488,452,-1,452,488,489,-1,452,489,453,-1,453,489,490,-1,453,490,454,-1,454,490,491,-1,454,491,455,-1,455,491,492,-1,455,492,456,-1,456,492,493,-1,456,493,457,-1,457,493,494,-1,457,494,458,-1,458,494,495,-1,458,495,459,-1,459,495,496,-1,459,496,460,-1,460,496,497,-1,460,497,461,-1,461,497,498,-1,461,498,462,-1,462,498,499,-1,462,499,463,-1,463,499,500,-1,463,500,464,-1,464,500,501,-1,464,501,465,-1,465,501,502,-1,465,502,466,-1,466,502,503,-1,466,503,467,-1,467,503,504,-1,467,504,468,-1,468,504,505,-1,468,505,469,-1,469,505,506,-1,469,506,470,-1,470,506,507,-1,470,507,471,-1,471,507,508,-1,471,508,472,-1,472,508,509,-1,472,509,473,-1,473,509,510,-1,473,510,474,-1,474,510,511,-1,474,511,475,-1,475,511,512,-1,475,512,476,-1,476,512,513,-1,476,513,477,-1,477,513,514,-1,477,514,478,-1,478,514,515,-1,478,515,479,-1,479,515,516,-1,479,516,480,-1,480,516,481,-1,516,517,481,-1,481,517,518,-1,481,518,482,-1,482,518,519,-1,482,519,483,-1,483,519,520,-1,483,520,484,-1,484,520,521,-1,484,521,485,-1,485,521,522,-1,485,522,486,-1,486,522,523,-1,486,523,487,-1,487,523,524,-1,487,524,488,-1,488,524,525,-1,488,525,489,-1,489,525,526,-1,489,526,490,-1,490,526,527,-1,490,527,491,-1,491,527,528,-1,491,528,492,-1,492,528,529,-1,492,529,493,-1,493,529,530,-1,493,530,494,-1,494,530,531,-1,494,531,495,-1,495,531,532,-1,495,532,496,-1,496,532,533,-1,496,533,497,-1,497,533,534,-1,497,534,498,-1,498,534,535,-1,498,535,499,-1,499,535,536,-1,499,536,500,-1,500,536,537,-1,500,537,501,-1,501,537,538,-1,501,538,502,-1,502,538,539,-1,502,539,503,-1,503,539,540,-1,503,540,504,-1,504,540,541,-1,504,541,505,-1,505,541,542,-1,505,542,506,-1,506,542,543,-1,506,543,507,-1,507,543,544,-1,507,544,508,-1,508,544,545,-1,508,545,509,-1,509,545,546,-1,509,546,510,-1,510,546,547,-1,510,547,511,-1,511,547,548,-1,511,548,512,-1,512,548,549,-1,512,549,513,-1,513,549,550,-1,513,550,514,-1,514,550,551,-1,514,551,515,-1,515,551,552,-1,515,552,516,-1,516,552,517,-1,552,553,517,-1,517,553,554,-1,517,554,518,-1,518,554,555,-1,518,555,519,-1,519,555,556,-1,519,556,520,-1,520,556,557,-1,520,557,521,-1,521,557,558,-1,521,558,522,-1,522,558,559,-1,522,559,523,-1,523,559,560,-1,523,560,524,-1,524,560,561,-1,524,561,525,-1,525,561,562,-1,525,562,526,-1,526,562,563,-1,526,563,527,-1,527,563,564,-1,527,564,528,-1,528,564,565,-1,528,565,529,-1,529,565,566,-1,529,566,530,-1,530,566,567,-1,530,567,531,-1,531,567,568,-1,531,568,532,-1,532,568,569,-1,532,569,533,-1,533,569,570,-1,533,570,534,-1,534,570,571,-1,534,571,535,-1,535,571,572,-1,535,572,536,-1,536,572,573,-1,536,573,537,-1,537,573,574,-1,537,574,538,-1,538,574,575,-1,538,575,539,-1,539,575,576,-1,539,576,540,-1,540,576,577,-1,540,577,541,-1,541,577,578,-1,541,578,542,-1,542,578,579,-1,542,579,543,-1,543,579,580,-1,543,580,544,-1,544,580,581,-1,544,581,545,-1,545,581,582,-1,545,582,546,-1,546,582,583,-1,546,583,547,-1,547,583,584,-1,547,584,548,-1,548,584,585,-1,548,585,549,-1,549,585,586,-1,549,586,550,-1,550,586,587,-1,550,587,551,-1,551,587,588,-1,551,588,552,-1,552,588,553,-1,588,97,553,-1,553,97,98,-1,553,98,554,-1,554,98,95,-1,554,95,555,-1,555,95,104,-1,555,104,556,-1,556,104,103,-1,556,103,557,-1,557,103,102,-1,557,102,558,-1,558,102,123,-1,558,123,559,-1,559,123,122,-1,559,122,560,-1,560,122,121,-1,560,121,561,-1,561,121,120,-1,561,120,562,-1,562,120,119,-1,562,119,563,-1,563,119,118,-1,563,118,564,-1,564,118,117,-1,564,117,565,-1,565,117,116,-1,565,116,566,-1,566,116,131,-1,566,131,567,-1,567,131,130,-1,567,130,568,-1,568,130,129,-1,568,129,569,-1,569,129,128,-1,569,128,570,-1,570,128,127,-1,570,127,571,-1,571,127,126,-1,571,126,572,-1,572,126,125,-1,572,125,573,-1,573,125,124,-1,573,124,574,-1,574,124,115,-1,574,115,575,-1,575,115,114,-1,575,114,576,-1,576,114,113,-1,576,113,577,-1,577,113,112,-1,577,112,578,-1,578,112,111,-1,578,111,579,-1,579,111,110,-1,579,110,580,-1,580,110,109,-1,580,109,581,-1,581,109,108,-1,581,108,582,-1,582,108,107,-1,582,107,583,-1,583,107,106,-1,583,106,584,-1,584,106,105,-1,584,105,585,-1,585,105,101,-1,585,101,586,-1,586,101,100,-1,586,100,587,-1,587,100,99,-1,587,99,588,-1,588,99,97,-1,
        ]
    }
}