#VRML V2.0 utf8
# 3D model generated by easyeda2kicad.py (https://github.com/uPesy/easyeda2kicad.py)

Shape{
    appearance Appearance {
        material  Material 	{
            diffuseColor 0.6666666666666666 0.6666666666666666 0.6666666666666666
            specularColor 0.4666666666666667 0.4666666666666667 0.4666666666666667
            ambientIntensity 0.6667
            transparency 0.0
            shininess 0.5
        }
    }
    geometry IndexedFaceSet {
        ccw TRUE
        solid FALSE
        coord DEF co Coordinate {
            point [
                0.7677 -2.3815 0.4606, 0.7677 -2.3815 0.5197, 0.7603 -2.3255 0.4606, 0.7603 -2.3255 0.5197, 0.7387 -2.2732 0.4606, 0.7387 -2.2732 0.5197, 0.7043 -2.2284 0.4606, 0.7043 -2.2284 0.5197, 0.6594 -2.194 0.4606, 0.6594 -2.194 0.5197, 0.6072 -2.1723 0.4606, 0.6072 -2.1723 0.5197, 0.5512 -2.165 0.4606, 0.5512 -2.165 0.5197, 0.4951 -2.1723 0.4606, 0.4951 -2.1723 0.5197, 0.4429 -2.194 0.4606, 0.4429 -2.194 0.5197, 0.3981 -2.2284 0.4606, 0.3981 -2.2284 0.5197, 0.3637 -2.2732 0.4606, 0.3637 -2.2732 0.5197, 0.342 -2.3255 0.4606, 0.342 -2.3255 0.5197, 0.3346 -2.3815 0.4606, 0.3346 -2.3815 0.5197, 0.342 -2.4375 0.4606, 0.342 -2.4375 0.5197, 0.3637 -2.4898 0.4606, 0.3637 -2.4898 0.5197, 0.3981 -2.5346 0.4606, 0.3981 -2.5346 0.5197, 0.4429 -2.569 0.4606, 0.4429 -2.569 0.5197, 0.4951 -2.5907 0.4606, 0.4951 -2.5907 0.5197, 0.5512 -2.598 0.4606, 0.5512 -2.598 0.5197, 0.6072 -2.5907 0.4606, 0.6072 -2.5907 0.5197, 0.6594 -2.569 0.4606, 0.6594 -2.569 0.5197, 0.7043 -2.5346 0.4606, 0.7043 -2.5346 0.5197, 0.7387 -2.4898 0.4606, 0.7387 -2.4898 0.5197, 0.7603 -2.4375 0.4606, 0.7603 -2.4375 0.5197, -0.2323 0.4531 0.4606, -0.2323 0.4531 0.5197, -0.2397 0.5092 0.4606, -0.2397 0.5092 0.5197, -0.2613 0.5614 0.4606, -0.2613 0.5614 0.5197, -0.2957 0.6063 0.4606, -0.2957 0.6063 0.5197, -0.3406 0.6407 0.4606, -0.3406 0.6407 0.5197, -0.3928 0.6623 0.4606, -0.3928 0.6623 0.5197, -0.4488 0.6697 0.4606, -0.4488 0.6697 0.5197, -0.5049 0.6623 0.4606, -0.5049 0.6623 0.5197, -0.5571 0.6407 0.4606, -0.5571 0.6407 0.5197, -0.6019 0.6063 0.4606, -0.6019 0.6063 0.5197, -0.6363 0.5614 0.4606, -0.6363 0.5614 0.5197, -0.658 0.5092 0.4606, -0.658 0.5092 0.5197, -0.6654 0.4531 0.4606, -0.6654 0.4531 0.5197, -0.658 0.3971 0.4606, -0.658 0.3971 0.5197, -0.6363 0.3449 0.4606, -0.6363 0.3449 0.5197, -0.6019 0.3 0.4606, -0.6019 0.3 0.5197, -0.5571 0.2656 0.4606, -0.5571 0.2656 0.5197, -0.5049 0.244 0.4606, -0.5049 0.244 0.5197, -0.4488 0.2366 0.4606, -0.4488 0.2366 0.5197, -0.3928 0.244 0.4606, -0.3928 0.244 0.5197, -0.3406 0.2656 0.4606, -0.3406 0.2656 0.5197, -0.2957 0.3 0.4606, -0.2957 0.3 0.5197, -0.2613 0.3449 0.4606, -0.2613 0.3449 0.5197, -0.2397 0.3971 0.4606, -0.2397 0.3971 0.5197, -0.2323 -2.3815 0.4606, -0.2323 -2.3815 0.5197, -0.2397 -2.3255 0.4606, -0.2397 -2.3255 0.5197, -0.2613 -2.2732 0.4606, -0.2613 -2.2732 0.5197, -0.2957 -2.2284 0.4606, -0.2957 -2.2284 0.5197, -0.3406 -2.194 0.4606, -0.3406 -2.194 0.5197, -0.3928 -2.1723 0.4606, -0.3928 -2.1723 0.5197, -0.4488 -2.165 0.4606, -0.4488 -2.165 0.5197, -0.5049 -2.1723 0.4606, -0.5049 -2.1723 0.5197, -0.5571 -2.194 0.4606, -0.5571 -2.194 0.5197, -0.6019 -2.2284 0.4606, -0.6019 -2.2284 0.5197, -0.6363 -2.2732 0.4606, -0.6363 -2.2732 0.5197, -0.658 -2.3255 0.4606, -0.658 -2.3255 0.5197, -0.6654 -2.3815 0.4606, -0.6654 -2.3815 0.5197, -0.658 -2.4375 0.4606, -0.658 -2.4375 0.5197, -0.6363 -2.4898 0.4606, -0.6363 -2.4898 0.5197, -0.6019 -2.5346 0.4606, -0.6019 -2.5346 0.5197, -0.5571 -2.569 0.4606, -0.5571 -2.569 0.5197, -0.5049 -2.5907 0.4606, -0.5049 -2.5907 0.5197, -0.4488 -2.598 0.4606, -0.4488 -2.598 0.5197, -0.3928 -2.5907 0.4606, -0.3928 -2.5907 0.5197, -0.3406 -2.569 0.4606, -0.3406 -2.569 0.5197, -0.2957 -2.5346 0.4606, -0.2957 -2.5346 0.5197, -0.2613 -2.4898 0.4606, -0.2613 -2.4898 0.5197, -0.2397 -2.4375 0.4606, -0.2397 -2.4375 0.5197, 2.5787 2.3823 0.0394, 2.5787 2.3823 -0.0197, 2.4409 2.3823 0.0394, 2.4409 2.3823 -0.0197, 2.4358 2.3823 0.04, 2.4206 2.3823 -0.017, 2.4311 2.3823 0.042, 2.4016 2.3823 -0.0091, 2.427 2.3823 0.0451, 2.3853 2.3823 0.0034, 2.4239 2.3823 0.0492, 2.3728 2.3823 0.0197, 2.4219 2.3823 0.054, 2.3649 2.3823 0.0387, 2.4213 2.3823 0.0591, 2.3622 2.3823 0.0591, 2.4213 2.3823 0.4252, 2.3622 2.3823 0.4252, -1.6929 2.3823 0.5197, -1.6929 2.3823 0.4606, -2.3622 2.3823 0.5197, -2.3622 2.3823 0.4606, -2.3775 2.3823 0.5177, -2.3917 2.3823 0.5118, -2.4192 2.3823 0.4759, -2.4133 2.3823 0.4902, -2.404 2.3823 0.5024, -2.5787 2.3823 -0.0197, -2.5787 2.3823 0.0394, -2.4409 2.3823 -0.0197, -2.4409 2.3823 0.0394, -2.4206 2.3823 -0.017, -2.4358 2.3823 0.04, -2.4016 2.3823 -0.0091, -2.4311 2.3823 0.042, -2.3853 2.3823 0.0034, -2.427 2.3823 0.0451, -2.3728 2.3823 0.0197, -2.4239 2.3823 0.0492, -2.3649 2.3823 0.0387, -2.4219 2.3823 0.054, -2.3622 2.3823 0.0591, -2.4213 2.3823 0.0591, -2.4213 2.3823 0.4606, 2.3917 -2.9327 0.5118, 2.3775 -2.9327 0.5177, 2.3622 -2.9327 0.4606, 2.3622 -2.9327 0.5197, -0.9488 -2.9327 0.4606, -0.9488 -2.9327 0.5197, -2.3622 -2.9327 0.4606, -2.3622 -2.9327 0.5197, -2.3775 -2.9327 0.5177, -2.3917 -2.9327 0.5118, -2.404 -2.9327 0.5024, -2.4133 -2.9327 0.4902, -2.5787 -2.9327 0.0394, -2.5787 -2.9327 -0.0197, -2.4409 -2.9327 0.0394, -2.4409 -2.9327 -0.0197, -2.4358 -2.9327 0.04, -2.4206 -2.9327 -0.017, -2.4311 -2.9327 0.042, -2.4016 -2.9327 -0.0091, -2.427 -2.9327 0.0451, -2.3853 -2.9327 0.0034, -2.4239 -2.9327 0.0492, -2.3728 -2.9327 0.0197, -2.4219 -2.9327 0.054, -2.3649 -2.9327 0.0387, -2.4213 -2.9327 0.0591, -2.3622 -2.9327 0.0591, -2.4213 -2.9327 0.4606, -2.4192 -2.9327 0.4759, 2.4192 -2.9327 0.4759, 2.4133 -2.9327 0.4902, 2.404 -2.9327 0.5024, 2.5787 -2.9327 -0.0197, 2.5787 -2.9327 0.0394, 2.4409 -2.9327 -0.0197, 2.4409 -2.9327 0.0394, 2.4206 -2.9327 -0.017, 2.4358 -2.9327 0.04, 2.4016 -2.9327 -0.0091, 2.4311 -2.9327 0.042, 2.3853 -2.9327 0.0034, 2.427 -2.9327 0.0451, 2.3728 -2.9327 0.0197, 2.4239 -2.9327 0.0492, 2.3649 -2.9327 0.0387, 2.4219 -2.9327 0.054, 2.3622 -2.9327 0.0591, 2.4213 -2.9327 0.0591, 2.4213 -2.9327 0.4606, -2.3622 1.7917 0.0787, -2.3622 -2.3421 0.0787, -2.4213 1.7917 0.0787, -2.4213 -2.3421 0.0787, -2.3622 1.7917 0.0591, -2.3622 -0.9642 0.4606, -2.3622 -2.3421 0.0591, -0.9488 -0.9642 0.4606, 2.3425 2.3482 0.4606, 2.3622 -0.9642 0.4606, 2.352 2.3443 0.4606, 2.3622 2.3429 0.4606, -0.9488 2.3823 0.4606, 2.3281 2.3626 0.4606, 1.683 2.3562 0.4606, 1.6884 2.364 0.4606, 2.3228 2.3823 0.4606, 1.6918 2.3729 0.4606, 1.6929 2.3823 0.4606, 1.6312 2.3499 0.4606, 1.6396 2.3455 0.4606, 1.6488 2.3432 0.4606, 1.6583 2.3432 0.4606, 2.3242 2.3721 0.4606, 1.6675 2.3455 0.4606, 1.6759 2.3499 0.4606, 2.3344 2.3544 0.4606, 1.6142 2.3823 0.4606, 1.6153 2.3729 0.4606, 1.6187 2.364 0.4606, 1.6241 2.3562 0.4606, -1.6876 2.3626 0.4606, -1.6916 2.3721 0.4606, -1.6732 2.3482 0.4606, -1.2957 0.6063 0.4606, -1.3406 0.6407 0.4606, -1.6637 2.3443 0.4606, -1.2397 0.5092 0.4606, -1.2613 0.5614 0.4606, -1.6535 2.3429 0.4606, -1.6434 2.3443 0.4606, -1.6339 2.3482 0.4606, -1.3928 0.6623 0.4606, -1.4488 0.6697 0.4606, -1.6814 2.3544 0.4606, -1.6019 0.6063 0.4606, -1.6363 0.5614 0.4606, -1.658 0.5092 0.4606, -1.6654 0.4531 0.4606, -1.658 0.3971 0.4606, -1.6363 0.3449 0.4606, -1.4488 0.2366 0.4606, -1.3928 0.244 0.4606, -1.6257 2.3544 0.4606, -1.6194 2.3626 0.4606, -1.6155 2.3721 0.4606, -1.6142 2.3823 0.4606, -1.5049 0.6623 0.4606, -1.5571 0.6407 0.4606, -1.6019 0.3 0.4606, -1.5571 0.2656 0.4606, -1.5049 0.244 0.4606, -1.3406 0.2656 0.4606, -1.2957 0.3 0.4606, -1.2613 0.3449 0.4606, -1.2323 0.4531 0.4606, -1.2397 0.3971 0.4606, -1.4488 -2.165 0.4606, -1.5049 -2.1723 0.4606, -1.5571 -2.194 0.4606, -1.6019 -2.2284 0.4606, -1.6654 -2.3815 0.4606, -1.658 -2.3255 0.4606, -1.6363 -2.2732 0.4606, -1.658 -2.4375 0.4606, -1.6363 -2.4898 0.4606, -1.6019 -2.5346 0.4606, -1.2613 -2.2732 0.4606, -1.2957 -2.2284 0.4606, -1.3406 -2.194 0.4606, -1.3928 -2.1723 0.4606, -1.3928 -2.5907 0.4606, -1.3406 -2.569 0.4606, -1.2957 -2.5346 0.4606, -1.2613 -2.4898 0.4606, -1.2397 -2.4375 0.4606, -1.2323 -2.3815 0.4606, -1.2397 -2.3255 0.4606, -1.5571 -2.569 0.4606, -1.5049 -2.5907 0.4606, -1.4488 -2.598 0.4606, 2.3622 -2.3421 0.0787, 2.3622 -2.3421 0.0591, 2.3622 1.7917 0.0591, 2.3622 2.3508 0.4431, 2.3622 1.7917 0.0787, 2.3622 2.3429 0.4567, 2.3622 2.3434 0.4526, 2.3622 2.345 0.4488, 2.3622 2.3475 0.4456, 2.3622 2.3706 0.4404, 2.3622 2.3744 0.4388, 2.3622 2.3546 0.4415, 2.3622 2.3587 0.4409, 2.3622 2.3665 0.4409, 2.3622 2.3777 0.4363, 2.3622 2.3802 0.4331, 2.3622 2.3817 0.4293, 2.4213 -2.3421 0.0787, 2.4213 1.7917 0.0787, 2.4213 -2.3421 0.0591, 2.4213 2.3429 0.4606, 2.4213 2.3429 0.4567, 2.4213 2.3434 0.4526, 2.4213 1.7917 0.0591, 2.4213 2.3475 0.4456, 2.4213 2.345 0.4488, 2.4213 2.3706 0.4404, 2.4213 2.3665 0.4409, 2.4213 2.3587 0.4409, 2.4213 2.3546 0.4415, 2.4213 2.3508 0.4431, 2.4213 2.3817 0.4293, 2.4213 2.3802 0.4331, 2.4213 2.3777 0.4363, 2.4213 2.3744 0.4388, -1.6257 2.3544 0.5197, -1.6339 2.3482 0.5197, -1.2397 0.5092 0.5197, -1.6142 2.3823 0.5197, -1.6155 2.3721 0.5197, -0.9488 2.3823 0.5197, -1.6194 2.3626 0.5197, -1.6916 2.3721 0.5197, -1.6876 2.3626 0.5197, -1.2613 0.3449 0.5197, -1.2957 0.3 0.5197, -0.9488 -0.9642 0.5197, -1.3406 0.2656 0.5197, -2.3622 -0.9642 0.5197, -1.6732 2.3482 0.5197, -1.6814 2.3544 0.5197, -1.2323 0.4531 0.5197, -1.2397 0.3971 0.5197, -1.5571 0.2656 0.5197, -1.6019 0.3 0.5197, -1.6363 0.3449 0.5197, -1.658 0.3971 0.5197, -1.3928 0.244 0.5197, -1.4488 0.2366 0.5197, -1.5049 0.244 0.5197, -1.6654 0.4531 0.5197, -1.658 0.5092 0.5197, -1.6363 0.5614 0.5197, -1.6019 0.6063 0.5197, -1.3406 0.6407 0.5197, -1.2957 0.6063 0.5197, -1.2613 0.5614 0.5197, -1.5571 0.6407 0.5197, -1.5049 0.6623 0.5197, -1.6637 2.3443 0.5197, -1.6535 2.3429 0.5197, -1.6434 2.3443 0.5197, -1.4488 0.6697 0.5197, -1.3928 0.6623 0.5197, 2.3425 2.3482 0.5197, 2.352 2.3443 0.5197, 1.6153 2.3729 0.5197, 1.6142 2.3823 0.5197, 2.3622 -0.9642 0.5197, 2.3622 2.3429 0.5197, 2.3228 2.3823 0.5197, 1.6929 2.3823 0.5197, 2.3242 2.3721 0.5197, 1.6918 2.3729 0.5197, 1.6884 2.364 0.5197, 1.683 2.3562 0.5197, 1.6759 2.3499 0.5197, 2.3344 2.3544 0.5197, 2.3281 2.3626 0.5197, 1.6396 2.3455 0.5197, 1.6312 2.3499 0.5197, 1.6187 2.364 0.5197, 1.6675 2.3455 0.5197, 1.6583 2.3432 0.5197, 1.6488 2.3432 0.5197, 1.6241 2.3562 0.5197, -1.5571 -2.569 0.5197, -1.6019 -2.5346 0.5197, -1.6654 -2.3815 0.5197, -1.658 -2.3255 0.5197, -1.6363 -2.2732 0.5197, -1.6019 -2.2284 0.5197, -1.6363 -2.4898 0.5197, -1.658 -2.4375 0.5197, -1.5571 -2.194 0.5197, -1.5049 -2.1723 0.5197, -1.4488 -2.165 0.5197, -1.3928 -2.1723 0.5197, -1.3406 -2.194 0.5197, -1.2957 -2.2284 0.5197, -1.2397 -2.4375 0.5197, -1.2613 -2.4898 0.5197, -1.2957 -2.5346 0.5197, -1.3406 -2.569 0.5197, -1.2613 -2.2732 0.5197, -1.2397 -2.3255 0.5197, -1.2323 -2.3815 0.5197, -1.3928 -2.5907 0.5197, -1.4488 -2.598 0.5197, -1.5049 -2.5907 0.5197, -2.4213 -2.3421 0.0591, -2.4213 1.7917 0.0591, 2.3775 2.3429 0.5177, 2.3917 2.3429 0.5118, 2.404 2.3429 0.5024, 2.4133 2.3429 0.4902, 2.4192 2.3429 0.4759, -2.4409 -2.3421 0.0394, -2.5787 -2.3421 0.0394, -2.4358 -2.3421 0.04, -2.4311 -2.3421 0.042, -2.427 -2.3421 0.0451, -2.4239 -2.3421 0.0492, -2.4219 -2.3421 0.054, -2.3649 -2.3421 0.0387, -2.3728 -2.3421 0.0197, -2.3853 -2.3421 0.0034, -2.4016 -2.3421 -0.0091, -2.4206 -2.3421 -0.017, -2.4409 -2.3421 -0.0197, -2.5787 -2.3421 -0.0197, -2.5787 1.7917 0.0394, -2.4409 1.7917 0.0394, -2.5787 1.7917 -0.0197, -2.4409 1.7917 -0.0197, -2.4206 1.7917 -0.017, -2.4016 1.7917 -0.0091, -2.3853 1.7917 0.0034, -2.3728 1.7917 0.0197, -2.3649 1.7917 0.0387, -2.4219 1.7917 0.054, -2.4239 1.7917 0.0492, -2.427 1.7917 0.0451, -2.4311 1.7917 0.042, -2.4358 1.7917 0.04, 2.4409 1.7917 0.0394, 2.5787 1.7917 0.0394, 2.4358 1.7917 0.04, 2.4311 1.7917 0.042, 2.427 1.7917 0.0451, 2.4239 1.7917 0.0492, 2.4219 1.7917 0.054, 2.3649 1.7917 0.0387, 2.3728 1.7917 0.0197, 2.3853 1.7917 0.0034, 2.4016 1.7917 -0.0091, 2.4206 1.7917 -0.017, 2.4409 1.7917 -0.0197, 2.5787 1.7917 -0.0197, 2.5787 -2.3421 0.0394, 2.4409 -2.3421 0.0394, 2.5787 -2.3421 -0.0197, 2.4409 -2.3421 -0.0197, 2.4206 -2.3421 -0.017, 2.4016 -2.3421 -0.0091, 2.3853 -2.3421 0.0034, 2.3728 -2.3421 0.0197, 2.3649 -2.3421 0.0387, 2.4219 -2.3421 0.054, 2.4239 -2.3421 0.0492, 2.427 -2.3421 0.0451, 2.4311 -2.3421 0.042, 2.4358 -2.3421 0.04, 1.6142 2.402 0.0984, 1.6142 2.402 0.4409, -1.6142 2.402 0.0984, -1.6142 2.402 0.4409, 1.6142 2.461 0.0984, -1.6142 2.461 0.0984, 1.6142 2.461 0.4409, -1.6142 2.461 0.4409, -1.6142 2.4583 0.4613, -1.6142 2.4027 0.517, 1.6142 2.4583 0.4613, -1.6142 2.4505 0.4803, 1.6142 2.4505 0.4803, -1.6142 2.438 0.4966, 1.6142 2.438 0.4966, -1.6142 2.4216 0.5091, 1.6142 2.4216 0.5091, 1.6142 2.4027 0.517, -1.6142 2.3874 0.46, 1.6142 2.3874 0.46, 1.6142 2.3921 0.458, -1.6142 2.3921 0.458, 1.6142 2.3962 0.4549, -1.6142 2.3962 0.4549, 1.6142 2.3993 0.4508, -1.6142 2.3993 0.4508, 1.6142 2.4013 0.446, -1.6142 2.4013 0.446, 1.6929 2.3823 0.0591, 2.3228 2.3823 0.0591, 2.3228 2.4413 0.0591, 1.6929 2.4413 0.0591, 2.3228 2.4413 0.4606, 1.6929 2.4413 0.4606, 1.6929 2.4393 0.4759, 2.3228 2.4393 0.4759, 1.6929 2.4334 0.4902, 2.3228 2.4334 0.4902, 1.6929 2.424 0.5024, 2.3228 2.424 0.5024, 1.6929 2.4118 0.5118, 2.3228 2.4118 0.5118, 1.6929 2.3976 0.5177, 2.3228 2.3976 0.5177
            ]
        }
        coordIndex [
            0,1,2,-1,2,1,3,-1,2,3,4,-1,4,3,5,-1,4,5,6,-1,6,5,7,-1,6,7,8,-1,8,7,9,-1,8,9,10,-1,10,9,11,-1,10,11,12,-1,12,11,13,-1,12,13,14,-1,14,13,15,-1,14,15,16,-1,16,15,17,-1,16,17,18,-1,18,17,19,-1,18,19,20,-1,20,19,21,-1,20,21,22,-1,22,21,23,-1,22,23,24,-1,24,23,25,-1,24,25,26,-1,26,25,27,-1,26,27,28,-1,28,27,29,-1,28,29,30,-1,30,29,31,-1,30,31,32,-1,32,31,33,-1,32,33,34,-1,34,33,35,-1,34,35,36,-1,36,35,37,-1,36,37,38,-1,38,37,39,-1,38,39,40,-1,40,39,41,-1,40,41,42,-1,42,41,43,-1,42,43,44,-1,44,43,45,-1,44,45,46,-1,46,45,47,-1,46,47,0,-1,0,47,1,-1,48,49,50,-1,50,49,51,-1,50,51,52,-1,52,51,53,-1,52,53,54,-1,54,53,55,-1,54,55,56,-1,56,55,57,-1,56,57,58,-1,58,57,59,-1,58,59,60,-1,60,59,61,-1,60,61,62,-1,62,61,63,-1,62,63,64,-1,64,63,65,-1,64,65,66,-1,66,65,67,-1,66,67,68,-1,68,67,69,-1,68,69,70,-1,70,69,71,-1,70,71,72,-1,72,71,73,-1,72,73,74,-1,74,73,75,-1,74,75,76,-1,76,75,77,-1,76,77,78,-1,78,77,79,-1,78,79,80,-1,80,79,81,-1,80,81,82,-1,82,81,83,-1,82,83,84,-1,84,83,85,-1,84,85,86,-1,86,85,87,-1,86,87,88,-1,88,87,89,-1,88,89,90,-1,90,89,91,-1,90,91,92,-1,92,91,93,-1,92,93,94,-1,94,93,95,-1,94,95,48,-1,48,95,49,-1,96,97,98,-1,98,97,99,-1,98,99,100,-1,100,99,101,-1,100,101,102,-1,102,101,103,-1,102,103,104,-1,104,103,105,-1,104,105,106,-1,106,105,107,-1,106,107,108,-1,108,107,109,-1,108,109,110,-1,110,109,111,-1,110,111,112,-1,112,111,113,-1,112,113,114,-1,114,113,115,-1,114,115,116,-1,116,115,117,-1,116,117,118,-1,118,117,119,-1,118,119,120,-1,120,119,121,-1,120,121,122,-1,122,121,123,-1,122,123,124,-1,124,123,125,-1,124,125,126,-1,126,125,127,-1,126,127,128,-1,128,127,129,-1,128,129,130,-1,130,129,131,-1,130,131,132,-1,132,131,133,-1,132,133,134,-1,134,133,135,-1,134,135,136,-1,136,135,137,-1,136,137,138,-1,138,137,139,-1,138,139,140,-1,140,139,141,-1,140,141,142,-1,142,141,143,-1,142,143,96,-1,96,143,97,-1,144,145,146,-1,146,145,147,-1,146,147,148,-1,148,147,149,-1,148,149,150,-1,150,149,151,-1,150,151,152,-1,152,151,153,-1,152,153,154,-1,154,153,155,-1,154,155,156,-1,156,155,157,-1,156,157,158,-1,158,157,159,-1,158,159,160,-1,160,159,161,-1,162,163,164,-1,164,163,165,-1,164,165,166,-1,166,165,167,-1,168,169,165,-1,165,169,170,-1,165,170,167,-1,171,172,173,-1,173,172,174,-1,173,174,175,-1,175,174,176,-1,175,176,177,-1,177,176,178,-1,177,178,179,-1,179,178,180,-1,179,180,181,-1,181,180,182,-1,181,182,183,-1,183,182,184,-1,183,184,185,-1,185,184,186,-1,185,186,165,-1,165,186,187,-1,165,187,168,-1,188,189,190,-1,190,189,191,-1,190,191,192,-1,192,191,193,-1,192,193,194,-1,194,193,195,-1,194,195,196,-1,196,197,194,-1,194,197,198,-1,194,198,199,-1,200,201,202,-1,202,201,203,-1,202,203,204,-1,204,203,205,-1,204,205,206,-1,206,205,207,-1,206,207,208,-1,208,207,209,-1,208,209,210,-1,210,209,211,-1,210,211,212,-1,212,211,213,-1,212,213,214,-1,214,213,215,-1,214,215,216,-1,216,215,194,-1,216,194,217,-1,217,194,199,-1,218,219,190,-1,190,219,220,-1,190,220,188,-1,221,222,223,-1,223,222,224,-1,223,224,225,-1,225,224,226,-1,225,226,227,-1,227,226,228,-1,227,228,229,-1,229,228,230,-1,229,230,231,-1,231,230,232,-1,231,232,233,-1,233,232,234,-1,233,234,235,-1,235,234,236,-1,235,236,190,-1,190,236,237,-1,190,237,218,-1,238,239,240,-1,240,239,241,-1,238,242,185,-1,185,165,238,-1,238,165,243,-1,238,243,239,-1,239,243,194,-1,239,194,244,-1,244,194,215,-1,245,246,247,-1,247,246,248,-1,247,248,249,-1,60,62,250,-1,68,70,250,-1,250,70,72,-1,250,72,245,-1,245,72,74,-1,74,76,245,-1,245,76,78,-1,245,78,80,-1,62,64,250,-1,250,64,66,-1,250,66,68,-1,80,82,245,-1,245,82,84,-1,245,84,86,-1,86,88,245,-1,245,88,90,-1,245,90,246,-1,246,90,92,-1,246,92,94,-1,94,48,246,-1,246,48,50,-1,246,50,52,-1,251,54,56,-1,252,253,254,-1,254,253,255,-1,254,255,256,-1,257,258,58,-1,58,258,259,-1,58,259,260,-1,56,58,251,-1,251,58,260,-1,251,260,261,-1,261,260,262,-1,261,262,254,-1,254,262,263,-1,254,263,252,-1,54,251,52,-1,52,251,264,-1,52,264,246,-1,60,250,58,-1,58,250,265,-1,58,265,266,-1,266,267,58,-1,58,267,268,-1,58,268,257,-1,269,165,270,-1,270,165,163,-1,271,272,273,-1,274,275,271,-1,271,275,276,-1,271,276,272,-1,274,277,275,-1,275,277,278,-1,275,278,279,-1,273,280,271,-1,271,280,281,-1,271,281,282,-1,283,284,165,-1,165,284,285,-1,165,285,243,-1,285,286,243,-1,243,286,287,-1,243,287,288,-1,245,289,290,-1,291,292,250,-1,250,292,293,-1,250,293,294,-1,282,281,269,-1,269,281,295,-1,269,295,165,-1,165,295,296,-1,165,296,283,-1,288,297,243,-1,243,297,298,-1,243,298,299,-1,290,300,245,-1,245,300,301,-1,245,301,302,-1,279,291,275,-1,275,291,250,-1,275,250,303,-1,303,250,245,-1,303,245,304,-1,304,245,302,-1,192,122,124,-1,4,6,247,-1,108,110,245,-1,245,110,112,-1,245,112,114,-1,114,116,245,-1,245,116,118,-1,245,118,192,-1,192,118,120,-1,192,120,122,-1,6,8,247,-1,247,8,10,-1,247,10,245,-1,124,126,192,-1,192,126,128,-1,192,128,130,-1,102,104,245,-1,245,104,106,-1,245,106,108,-1,142,26,28,-1,10,12,245,-1,245,12,14,-1,245,14,102,-1,102,14,16,-1,102,16,18,-1,18,20,102,-1,102,20,22,-1,102,22,100,-1,26,142,24,-1,24,142,96,-1,24,96,22,-1,22,96,98,-1,22,98,100,-1,130,132,192,-1,192,132,134,-1,192,134,32,-1,32,134,136,-1,32,136,138,-1,138,140,32,-1,32,140,142,-1,32,142,30,-1,30,142,28,-1,44,190,42,-1,42,190,40,-1,44,46,190,-1,190,46,0,-1,190,0,247,-1,247,0,2,-1,247,2,4,-1,32,34,192,-1,192,34,36,-1,192,36,190,-1,190,36,38,-1,190,38,40,-1,305,243,245,-1,245,243,299,-1,245,299,289,-1,305,306,243,-1,243,306,307,-1,243,307,308,-1,309,194,310,-1,310,194,243,-1,310,243,311,-1,311,243,308,-1,309,312,194,-1,194,312,313,-1,194,313,314,-1,315,316,245,-1,316,317,245,-1,245,317,318,-1,245,318,305,-1,319,320,192,-1,192,320,321,-1,192,321,322,-1,322,323,192,-1,192,323,324,-1,192,324,245,-1,245,324,325,-1,245,325,315,-1,314,326,194,-1,194,326,327,-1,194,327,192,-1,192,327,328,-1,192,328,319,-1,329,330,235,-1,159,331,332,-1,235,190,329,-1,329,190,247,-1,329,247,333,-1,333,247,249,-1,333,249,334,-1,334,335,333,-1,333,335,336,-1,333,336,331,-1,331,336,337,-1,331,337,332,-1,338,339,161,-1,332,340,159,-1,159,340,341,-1,159,341,161,-1,161,341,342,-1,161,342,338,-1,339,343,161,-1,161,343,344,-1,161,344,345,-1,329,333,346,-1,346,333,347,-1,236,348,237,-1,237,348,346,-1,237,346,349,-1,349,346,347,-1,349,347,350,-1,350,347,351,-1,352,353,347,-1,347,353,354,-1,347,354,351,-1,355,356,160,-1,160,356,357,-1,160,357,158,-1,158,357,358,-1,158,358,352,-1,352,358,359,-1,352,359,353,-1,160,360,361,-1,361,362,160,-1,160,362,363,-1,160,363,355,-1,364,365,366,-1,367,368,369,-1,369,368,370,-1,369,370,364,-1,162,164,371,-1,371,164,372,-1,373,374,375,-1,375,374,376,-1,377,378,164,-1,164,378,379,-1,164,379,372,-1,364,366,369,-1,369,366,380,-1,369,380,375,-1,375,380,381,-1,375,381,373,-1,382,383,377,-1,377,383,384,-1,377,384,385,-1,376,386,375,-1,375,386,387,-1,375,387,377,-1,377,387,388,-1,377,388,382,-1,385,389,377,-1,377,389,390,-1,377,390,378,-1,378,390,391,-1,378,391,392,-1,393,394,365,-1,365,394,395,-1,365,395,366,-1,392,396,378,-1,378,396,397,-1,378,397,398,-1,398,397,399,-1,399,397,400,-1,400,397,401,-1,400,401,365,-1,365,401,402,-1,365,402,393,-1,403,65,63,-1,63,61,403,-1,403,61,59,-1,403,59,404,-1,405,406,369,-1,407,408,51,-1,51,49,407,-1,407,49,95,-1,407,95,93,-1,375,85,83,-1,59,57,404,-1,404,57,55,-1,404,55,408,-1,408,55,53,-1,408,53,51,-1,93,91,407,-1,407,91,89,-1,407,89,375,-1,375,89,87,-1,375,87,85,-1,83,81,375,-1,375,81,79,-1,375,79,77,-1,71,369,73,-1,73,369,375,-1,73,375,75,-1,75,375,77,-1,409,410,411,-1,411,410,412,-1,412,413,411,-1,411,413,414,-1,411,414,415,-1,403,416,65,-1,65,416,417,-1,65,417,411,-1,65,418,419,-1,405,369,420,-1,415,421,411,-1,411,421,422,-1,411,422,65,-1,65,422,423,-1,65,423,418,-1,419,424,65,-1,65,424,420,-1,65,420,67,-1,67,420,369,-1,67,369,69,-1,69,369,71,-1,141,139,191,-1,35,97,143,-1,375,117,115,-1,109,107,375,-1,375,107,105,-1,7,407,9,-1,9,407,11,-1,47,45,191,-1,115,113,375,-1,375,113,111,-1,375,111,109,-1,11,407,13,-1,13,407,375,-1,13,375,15,-1,15,375,105,-1,15,105,103,-1,7,5,407,-1,407,5,3,-1,407,3,191,-1,191,3,1,-1,191,1,47,-1,45,43,191,-1,191,43,41,-1,191,41,39,-1,21,19,99,-1,139,137,191,-1,191,137,135,-1,191,135,193,-1,193,135,133,-1,193,133,131,-1,131,129,193,-1,193,129,127,-1,193,127,125,-1,125,123,193,-1,193,123,121,-1,193,121,375,-1,375,121,119,-1,375,119,117,-1,103,101,15,-1,15,101,99,-1,15,99,17,-1,17,99,19,-1,35,33,97,-1,97,33,31,-1,97,31,29,-1,29,27,97,-1,97,27,25,-1,97,25,99,-1,99,25,23,-1,99,23,21,-1,39,37,191,-1,191,37,35,-1,191,35,141,-1,141,35,143,-1,195,425,426,-1,377,195,427,-1,427,428,377,-1,377,428,429,-1,377,429,430,-1,426,431,195,-1,195,431,432,-1,195,432,427,-1,430,433,377,-1,377,433,434,-1,377,434,375,-1,375,434,435,-1,435,436,375,-1,375,436,437,-1,375,437,438,-1,439,440,193,-1,193,440,441,-1,193,441,442,-1,438,443,375,-1,375,443,444,-1,375,444,193,-1,193,444,445,-1,193,445,439,-1,442,446,193,-1,193,446,447,-1,193,447,195,-1,195,447,448,-1,195,448,425,-1,449,214,241,-1,241,214,216,-1,241,216,240,-1,240,216,187,-1,240,187,450,-1,450,187,186,-1,187,216,217,-1,196,195,377,-1,187,217,168,-1,168,217,199,-1,168,199,169,-1,169,199,198,-1,169,198,170,-1,170,198,197,-1,170,197,167,-1,167,197,196,-1,167,196,166,-1,166,196,377,-1,166,377,164,-1,407,191,189,-1,451,408,407,-1,407,189,451,-1,451,189,188,-1,451,188,452,-1,452,188,220,-1,452,220,453,-1,453,220,219,-1,453,219,454,-1,454,219,218,-1,454,218,455,-1,455,218,237,-1,455,237,349,-1,456,457,202,-1,202,457,200,-1,456,202,458,-1,458,202,204,-1,458,204,459,-1,459,204,206,-1,459,206,460,-1,460,206,208,-1,460,208,461,-1,461,208,210,-1,461,210,462,-1,462,210,212,-1,462,212,449,-1,449,212,214,-1,244,215,213,-1,244,213,463,-1,463,213,211,-1,463,211,464,-1,464,211,209,-1,464,209,465,-1,465,209,207,-1,465,207,466,-1,466,207,205,-1,466,205,467,-1,467,205,203,-1,467,203,468,-1,469,468,201,-1,201,468,203,-1,457,469,200,-1,200,469,201,-1,241,239,449,-1,449,239,244,-1,449,244,462,-1,462,244,463,-1,462,463,461,-1,461,463,464,-1,461,464,460,-1,460,464,465,-1,460,465,459,-1,459,465,466,-1,459,466,458,-1,458,466,467,-1,458,467,456,-1,456,467,468,-1,456,468,457,-1,457,468,469,-1,470,471,172,-1,172,471,174,-1,472,470,171,-1,171,470,172,-1,473,472,173,-1,173,472,171,-1,473,173,175,-1,473,175,474,-1,474,175,177,-1,474,177,475,-1,475,177,179,-1,475,179,476,-1,476,179,181,-1,476,181,477,-1,477,181,183,-1,477,183,478,-1,478,183,185,-1,478,185,242,-1,450,186,479,-1,479,186,184,-1,479,184,480,-1,480,184,182,-1,480,182,481,-1,481,182,180,-1,481,180,482,-1,482,180,178,-1,482,178,483,-1,483,178,176,-1,483,176,471,-1,471,176,174,-1,470,472,471,-1,471,472,473,-1,471,473,483,-1,483,473,474,-1,483,474,482,-1,482,474,475,-1,482,475,481,-1,481,475,476,-1,481,476,480,-1,480,476,477,-1,480,477,479,-1,479,477,478,-1,479,478,450,-1,450,478,242,-1,450,242,240,-1,240,242,238,-1,484,485,146,-1,146,485,144,-1,484,146,486,-1,486,146,148,-1,486,148,487,-1,487,148,150,-1,487,150,488,-1,488,150,152,-1,488,152,489,-1,489,152,154,-1,489,154,490,-1,490,154,156,-1,490,156,352,-1,352,156,158,-1,331,159,157,-1,331,157,491,-1,491,157,155,-1,491,155,492,-1,492,155,153,-1,492,153,493,-1,493,153,151,-1,493,151,494,-1,494,151,149,-1,494,149,495,-1,495,149,147,-1,495,147,496,-1,497,496,145,-1,145,496,147,-1,485,497,144,-1,144,497,145,-1,347,333,352,-1,352,333,331,-1,352,331,490,-1,490,331,491,-1,490,491,489,-1,489,491,492,-1,489,492,488,-1,488,492,493,-1,488,493,487,-1,487,493,494,-1,487,494,486,-1,486,494,495,-1,486,495,484,-1,484,495,496,-1,484,496,485,-1,485,496,497,-1,498,499,222,-1,222,499,224,-1,500,498,221,-1,221,498,222,-1,501,500,223,-1,223,500,221,-1,501,223,225,-1,501,225,502,-1,502,225,227,-1,502,227,503,-1,503,227,229,-1,503,229,504,-1,504,229,231,-1,504,231,505,-1,505,231,233,-1,505,233,506,-1,506,233,235,-1,506,235,330,-1,348,236,507,-1,507,236,234,-1,507,234,508,-1,508,234,232,-1,508,232,509,-1,509,232,230,-1,509,230,510,-1,510,230,228,-1,510,228,511,-1,511,228,226,-1,511,226,499,-1,499,226,224,-1,498,500,499,-1,499,500,501,-1,499,501,511,-1,511,501,502,-1,511,502,510,-1,510,502,503,-1,510,503,509,-1,509,503,504,-1,509,504,508,-1,508,504,505,-1,508,505,507,-1,507,505,506,-1,507,506,348,-1,348,506,330,-1,348,330,346,-1,346,330,329,-1,512,513,514,-1,514,513,515,-1,516,512,517,-1,517,512,514,-1,518,516,519,-1,519,516,517,-1,518,519,520,-1,521,367,369,-1,518,520,522,-1,522,520,523,-1,522,523,524,-1,524,523,525,-1,524,525,526,-1,526,525,527,-1,526,527,528,-1,528,527,521,-1,528,521,529,-1,529,521,369,-1,529,369,406,-1,250,294,530,-1,265,250,531,-1,531,250,530,-1,531,530,532,-1,532,530,533,-1,532,533,534,-1,534,533,535,-1,534,535,536,-1,536,535,537,-1,536,537,538,-1,538,537,539,-1,538,539,513,-1,513,539,515,-1,512,516,513,-1,513,516,518,-1,513,518,538,-1,538,518,522,-1,538,522,536,-1,536,522,524,-1,536,524,534,-1,534,524,526,-1,534,526,532,-1,532,526,528,-1,532,528,531,-1,531,528,529,-1,531,529,265,-1,265,529,406,-1,294,367,530,-1,530,367,521,-1,530,521,533,-1,533,521,527,-1,533,527,535,-1,535,527,525,-1,535,525,537,-1,537,525,523,-1,537,523,539,-1,539,523,520,-1,539,520,515,-1,515,520,519,-1,515,519,514,-1,514,519,517,-1,540,541,256,-1,256,541,254,-1,542,541,543,-1,543,541,540,-1,544,542,545,-1,545,542,543,-1,544,545,546,-1,544,546,547,-1,547,546,548,-1,547,548,549,-1,549,548,550,-1,549,550,551,-1,551,550,552,-1,551,552,553,-1,553,552,554,-1,553,554,555,-1,555,554,410,-1,555,410,409,-1,541,542,254,-1,254,542,544,-1,544,547,254,-1,254,547,549,-1,254,549,551,-1,551,553,254,-1,254,553,555,-1,254,555,409,-1,543,540,545,-1,545,540,256,-1,545,256,546,-1,546,256,548,-1,256,410,554,-1,554,552,256,-1,256,552,550,-1,256,550,548,-1,265,406,266,-1,266,406,405,-1,266,405,267,-1,267,405,420,-1,267,420,268,-1,268,420,424,-1,268,424,257,-1,257,424,419,-1,257,419,258,-1,258,419,418,-1,258,418,259,-1,259,418,423,-1,259,423,260,-1,260,423,422,-1,260,422,262,-1,262,422,421,-1,262,421,263,-1,263,421,415,-1,263,415,252,-1,252,415,414,-1,252,414,253,-1,253,414,413,-1,253,413,255,-1,255,413,412,-1,255,412,256,-1,256,412,410,-1,254,409,261,-1,261,409,411,-1,261,411,251,-1,251,411,417,-1,251,417,264,-1,264,417,416,-1,264,416,246,-1,246,416,403,-1,246,403,248,-1,248,403,404,-1,248,404,249,-1,249,404,408,-1,342,341,356,-1,356,341,357,-1,350,334,349,-1,349,334,249,-1,349,249,455,-1,408,451,249,-1,249,451,452,-1,452,453,249,-1,249,453,454,-1,249,454,455,-1,163,162,270,-1,270,162,371,-1,270,371,269,-1,269,371,372,-1,269,372,282,-1,282,372,379,-1,282,379,271,-1,271,379,378,-1,271,378,274,-1,274,378,398,-1,274,398,277,-1,277,398,399,-1,277,399,278,-1,278,399,400,-1,278,400,279,-1,279,400,365,-1,279,365,291,-1,291,365,364,-1,291,364,292,-1,292,364,370,-1,292,370,293,-1,293,370,368,-1,293,368,294,-1,294,368,367,-1,342,356,355,-1,342,355,338,-1,338,355,363,-1,338,363,339,-1,339,363,362,-1,339,362,343,-1,343,362,361,-1,343,361,344,-1,344,361,360,-1,344,360,345,-1,345,360,160,-1,345,160,161,-1,334,350,335,-1,335,350,351,-1,335,351,336,-1,336,351,354,-1,336,354,337,-1,337,354,353,-1,337,353,332,-1,332,353,359,-1,332,359,340,-1,340,359,358,-1,340,358,341,-1,341,358,357,-1,324,445,325,-1,325,445,444,-1,325,444,315,-1,315,444,443,-1,315,443,316,-1,316,443,438,-1,316,438,317,-1,317,438,437,-1,317,437,318,-1,318,437,436,-1,318,436,305,-1,305,436,435,-1,305,435,306,-1,306,435,434,-1,306,434,307,-1,307,434,433,-1,307,433,308,-1,308,433,430,-1,308,430,311,-1,311,430,429,-1,311,429,310,-1,310,429,428,-1,310,428,309,-1,309,428,427,-1,309,427,312,-1,312,427,432,-1,312,432,313,-1,313,432,431,-1,313,431,314,-1,314,431,426,-1,314,426,326,-1,326,426,425,-1,326,425,327,-1,327,425,448,-1,327,448,328,-1,328,448,447,-1,328,447,319,-1,319,447,446,-1,319,446,320,-1,320,446,442,-1,320,442,321,-1,321,442,441,-1,321,441,322,-1,322,441,440,-1,322,440,323,-1,323,440,439,-1,323,439,324,-1,324,439,445,-1,303,380,275,-1,275,380,366,-1,275,366,276,-1,276,366,395,-1,276,395,272,-1,272,395,394,-1,272,394,273,-1,273,394,393,-1,273,393,280,-1,280,393,402,-1,280,402,281,-1,281,402,401,-1,281,401,295,-1,295,401,397,-1,295,397,296,-1,296,397,396,-1,296,396,283,-1,283,396,392,-1,283,392,284,-1,284,392,391,-1,284,391,285,-1,285,391,390,-1,285,390,286,-1,286,390,389,-1,286,389,287,-1,287,389,385,-1,287,385,288,-1,288,385,384,-1,288,384,297,-1,297,384,383,-1,297,383,298,-1,298,383,382,-1,298,382,299,-1,299,382,388,-1,299,388,289,-1,289,388,387,-1,289,387,290,-1,290,387,386,-1,290,386,300,-1,300,386,376,-1,300,376,301,-1,301,376,374,-1,301,374,302,-1,302,374,373,-1,302,373,304,-1,304,373,381,-1,304,381,303,-1,303,381,380,-1,
        ]
    }
}
Shape{
    appearance Appearance {
        material  Material 	{
            diffuseColor 0.20784313725490197 0.20784313725490197 0.20784313725490197
            specularColor 0.01568627450980392 0.01568627450980392 0.01568627450980392
            ambientIntensity 0.298
            transparency 0.0
            shininess 0.5
        }
    }
    geometry IndexedFaceSet {
        ccw TRUE
        solid FALSE
        coord DEF co Coordinate {
            point [
                0.7202 -0.3006 0.0, 0.7202 -0.6511 0.0, 0.5713 -0.6511 0.0, 0.5545 -2.9327 0.0, 0.5545 -2.7358 0.0, 0.79 -2.7358 0.0, -0.12 -0.3006 0.0, -0.1565 -0.3006 0.0, -0.1565 -0.2982 0.0, 0.483 -0.471 0.0, 0.3758 -0.3434 0.0, 0.4053 -0.354 0.0, 0.2701 -0.3534 0.0, 0.2892 -0.3452 0.0, 0.3371 -0.339 0.0, 0.4849 -0.5017 0.0, 0.4809 -0.5443 0.0, 0.4702 -0.5781 0.0, 0.454 -0.6054 0.0, 0.4355 -0.6249 0.0, 0.4113 -0.6412 0.0, 0.4325 -0.3722 0.0, 0.4563 -0.3985 0.0, 0.4726 -0.4289 0.0, 0.3826 -0.6518 0.0, 0.3459 -0.6559 0.0, 0.2937 -0.6501 0.0, -0.0432 -0.6511 0.0, -0.0432 -0.6943 0.0, -0.0816 -0.6967 0.0, 0.168 -0.6943 0.0, 0.2701 -0.6967 0.0, 0.2904 -0.2991 0.0, 0.2701 -0.3046 0.0, 0.2701 -0.2982 0.0, 0.2449 -0.3114 0.0, 0.168 -0.3006 0.0, -0.0336 -0.3006 0.0, -0.0816 -0.2982 0.0, -0.0336 -0.3438 0.0, 0.1152 -0.3438 0.0, 0.1152 -0.4735 0.0, 0.2701 -0.6413 0.0, 0.2519 -0.6346 0.0, 0.2449 -0.3642 0.0, 0.2449 -0.6307 0.0, 0.1152 -0.5167 0.0, 0.1152 -0.6511 0.0, -0.024 -0.5167 0.0, -0.024 -0.4735 0.0, 0.3027 -0.2982 0.0, 0.2701 -0.0985 0.0, 0.3375 -0.2958 0.0, 0.4715 -0.6607 0.0, 0.5011 -0.6296 0.0, 0.5545 -0.6967 0.0, 0.5221 -0.5922 0.0, 0.517 -0.4043 0.0, 0.4939 -0.3675 0.0, 0.5545 -0.2982 0.0, 0.4583 -0.3333 0.0, 0.3763 -0.6967 0.0, 0.4017 -0.6941 0.0, 0.4399 -0.6809 0.0, 0.4209 -0.3118 0.0, 0.3771 -0.299 0.0, 0.3669 -0.2982 0.0, 0.5339 -0.5505 0.0, 0.5377 -0.5049 0.0, 0.5321 -0.4489 0.0, 0.3424 -0.6989 0.0, 0.2953 -1.161 0.0, 0.3266 -0.6967 0.0, 0.2868 -0.6911 0.0, 0.2449 -0.6739 0.0, 0.2701 -0.6843 0.0, -0.2311 -0.3006 0.0, -0.288 -0.3067 0.0, -0.4513 -0.2982 0.0, -0.3341 -0.3229 0.0, -0.3769 -0.3516 0.0, -0.4173 -0.5864 0.0, -0.3947 -0.6216 0.0, -0.4513 -0.6967 0.0, -0.3623 -0.6526 0.0, -0.3212 -0.6765 0.0, -0.3773 -0.3519 0.0, -0.4052 -0.3828 0.0, -0.4235 -0.4167 0.0, -0.2758 -0.6901 0.0, -0.2271 -0.6943 0.0, -0.1565 -0.6967 0.0, -0.4341 -0.4555 0.0, -0.4369 -0.4925 0.0, -0.4314 -0.5452 0.0, -0.1565 -0.6943 0.0, -0.12 -0.6943 0.0, -1.007 -0.6967 0.0, -1.007 -1.5941 0.0, -1.1929 -1.5941 0.0, -1.1929 -2.4996 0.0, -1.007 -2.4996 0.0, -1.1929 -2.7358 0.0, -1.007 -2.9327 0.0, -1.7047 -2.7358 0.0, -1.7776 -2.9327 0.0, -1.7047 -2.4996 0.0, -1.7776 -2.4996 0.0, -1.7047 -1.5941 0.0, -1.7776 -1.5941 0.0, -1.7047 -1.161 0.0, -1.7776 -0.6967 0.0, -1.1929 -1.161 0.0, -0.1565 -1.5941 0.0, -0.1929 -1.5941 0.0, -0.1929 -1.161 0.0, 0.79 0.0988 0.0, 0.8071 0.0988 0.0, 1.0335 -0.0985 0.0, 0.8071 1.6736 0.0, 1.0335 2.3823 0.0, 0.79 2.3823 0.0, 0.5545 1.6736 0.0, 0.2953 1.6736 0.0, 0.2701 2.3823 0.0, 0.2953 0.0988 0.0, 0.5545 -0.0985 0.0, 0.79 1.6736 0.0, 0.5545 2.3823 0.0, -0.4513 0.0988 0.0, -0.1929 0.0988 0.0, -0.1565 -0.0985 0.0, -0.1929 1.6736 0.0, -0.7047 1.6736 0.0, -1.007 2.3823 0.0, -0.4513 1.6736 0.0, -0.4513 2.3823 0.0, -0.1565 2.3823 0.0, -1.007 -0.2982 0.0, -1.007 -0.0985 0.0, -0.4513 -0.0985 0.0, -0.7047 0.0988 0.0, 0.2701 -2.4996 0.0, 0.2953 -2.4996 0.0, 0.2953 -2.7358 0.0, 0.2953 -1.5941 0.0, 0.8071 -1.161 0.0, 0.79 -1.161 0.0, 0.79 -0.6967 0.0, 0.5545 -1.161 0.0, 1.0335 -0.6967 0.0, 1.0335 -1.5941 0.0, 0.8071 -1.5941 0.0, 0.8071 -2.4996 0.0, 1.0335 -2.4996 0.0, 0.8071 -2.7358 0.0, 1.0335 -2.9327 0.0, 0.79 -2.9327 0.0, -1.7776 -0.0985 0.0, -1.7776 2.3823 0.0, -1.7047 1.6736 0.0, -1.7047 0.0988 0.0, -1.1929 0.0988 0.0, -1.1929 1.6736 0.0, -0.0816 2.3823 0.0, -0.0816 -0.0985 0.0, 0.79 -0.0985 0.0, 0.79 -0.2982 0.0, -1.7776 -0.2982 0.0, -0.7236 -0.5839 0.0, -0.5609 -0.5839 0.0, -0.7634 -0.6943 0.0, -0.5233 -0.6943 0.0, -0.4657 -0.6943 0.0, -0.6146 -0.3006 0.0, -0.6674 -0.3006 0.0, -0.821 -0.6943 0.0, 0.3532 -0.6991 0.0, 0.773 -0.6943 0.0, 0.773 -0.3006 0.0, 0.5713 -0.6943 0.0, 0.5545 0.0988 0.0, 1.0335 -0.2982 0.0, -0.1929 -2.7358 0.0, -0.1565 -2.9327 0.0, -0.4513 -2.7358 0.0, -0.4513 -2.9327 0.0, -0.7047 -2.7358 0.0, -0.7047 -2.4996 0.0, -0.7047 -1.5941 0.0, -0.7047 -1.161 0.0, -0.4513 -1.161 0.0, -0.0816 -1.5941 0.0, 0.2701 -1.5941 0.0, 1.9291 2.3823 0.0, 1.9291 -0.0985 0.0, 1.9291 -0.2982 0.0, 1.9291 -0.6967 0.0, 1.9291 -1.5941 0.0, -2.052 -2.2288 0.0, -2.3622 -2.4996 0.0, -2.0708 -2.2043 0.0, -2.0826 -2.1758 0.0, -2.0276 -2.2476 0.0, -1.9991 -2.2594 0.0, -1.9685 -2.2634 0.0, -1.9379 -2.2594 0.0, -1.9094 -2.2476 0.0, -1.885 -2.2288 0.0, -1.8662 -2.2043 0.0, -1.8662 -2.0862 0.0, -1.885 -2.0618 0.0, -1.9094 -2.043 0.0, -1.9379 -2.0312 0.0, -1.9685 -2.0272 0.0, -1.9991 -2.0312 0.0, -2.3622 -1.5941 0.0, -2.0276 -2.043 0.0, -2.052 -2.0618 0.0, -2.0708 -2.0862 0.0, -2.0826 -2.1147 0.0, -2.0866 -2.1453 0.0, -1.8544 -2.1758 0.0, -1.8504 -2.1453 0.0, -1.8544 -2.1147 0.0, -2.3622 -0.6967 0.0, -2.3622 -0.2982 0.0, -2.3622 -0.0985 0.0, -2.3622 2.3823 0.0, -0.0816 -2.4996 0.0, -0.1565 -2.4996 0.0, -0.1929 -2.4996 0.0, 1.378 -2.2634 0.0, 1.4085 -2.2594 0.0, 1.9291 -2.4996 0.0, 1.4802 -2.0862 0.0, 1.4615 -2.0618 0.0, 1.2639 -2.1758 0.0, 1.2757 -2.2043 0.0, 1.2944 -2.2288 0.0, 1.3189 -2.2476 0.0, 1.3474 -2.2594 0.0, 1.2944 -2.0618 0.0, 1.3189 -2.043 0.0, 1.3474 -2.0312 0.0, 1.2757 -2.0862 0.0, 1.2639 -2.1147 0.0, 1.2598 -2.1453 0.0, 1.437 -2.2476 0.0, 1.4615 -2.2288 0.0, 1.4802 -2.2043 0.0, 1.437 -2.043 0.0, 1.4085 -2.0312 0.0, 1.378 -2.0272 0.0, 1.492 -2.1758 0.0, 1.4961 -2.1453 0.0, 1.492 -2.1147 0.0, -2.3622 -2.9327 0.0, 0.2701 -2.9327 0.0, -0.0816 -2.9327 0.0, 1.9291 -2.9327 0.0, 2.3622 2.3823 0.0, 2.3622 -0.0985 0.0, 2.3622 -0.2982 0.0, 2.3622 -0.6967 0.0, 2.3622 -1.5941 0.0, 2.3622 -2.4996 0.0, 2.3622 -2.9327 0.0, -2.3622 2.3823 0.2697, -2.3622 2.3823 0.4606, -2.1762 2.3823 0.4606, -2.1762 2.3823 0.2697, -2.1762 2.3823 0.0, -1.6516 2.3823 0.0, -1.6516 2.3823 0.2697, -1.813 2.3823 0.0787, -1.9902 2.3823 0.0787, -1.9902 2.3823 0.0197, -1.813 2.3823 0.0197, -1.313 2.3823 0.0197, -1.1516 2.3823 0.0, -1.4902 2.3823 0.0197, -1.4902 2.3823 0.0787, -1.313 2.3823 0.0787, -1.1516 2.3823 0.2697, -0.6516 2.3823 0.2697, -0.6516 2.3823 0.0, -0.813 2.3823 0.0197, -0.9488 2.3823 0.0, -0.9902 2.3823 0.0197, -0.9902 2.3823 0.0787, -0.813 2.3823 0.0787, -0.313 2.3823 0.0197, -0.1516 2.3823 0.0, -0.4902 2.3823 0.0197, -0.4902 2.3823 0.0787, -0.313 2.3823 0.0787, -0.1516 2.3823 0.2697, 0.3484 2.3823 0.2697, 0.3484 2.3823 0.0, 0.187 2.3823 0.0197, 0.0512 2.3823 0.0, 0.0098 2.3823 0.0197, 0.0098 2.3823 0.0787, 0.187 2.3823 0.0787, 0.687 2.3823 0.0197, 0.7854 2.3823 0.0, 0.5098 2.3823 0.0197, 0.5098 2.3823 0.0787, 0.687 2.3823 0.0787, 0.7854 2.3823 0.2697, 2.3622 2.3823 0.2697, 1.061 2.3823 0.0787, 1.061 2.3823 0.0197, 0.8839 2.3823 0.0197, 0.8839 2.3823 0.0787, -1.6516 2.3823 0.4606, -1.1516 2.3823 0.4606, -0.6516 2.3823 0.4606, -0.1516 2.3823 0.4606, 0.3484 2.3823 0.4606, 0.7854 2.3823 0.4606, 2.3622 2.3823 0.4606, 2.3622 -2.9327 0.4606, 2.3622 -0.5311 0.0, -2.3622 -2.9327 0.4606, -2.3622 -0.5311 0.0, 1.313 -2.9327 0.4606, 1.313 -2.9327 0.1457, -2.2106 -2.9327 0.4606, -2.2106 -2.9327 0.1457, -0.9488 -2.9327 0.0, 0.0512 -2.9327 0.1457, 0.0512 -2.9327 0.0, 1.0901 1.7134 0.4606, 1.1648 1.6665 0.4606, 1.2271 1.6041 0.4606, 1.274 1.5295 0.4606, -2.2031 0.7999 0.4606, -2.1807 0.8738 0.4606, -1.3321 1.7224 0.4606, -1.2582 1.7448 0.4606, 1.313 1.3587 0.4606, 1.3031 1.4463 0.4606, -2.2106 0.7231 0.4606, -1.1814 1.7524 0.4606, 1.0069 1.7425 0.4606, 0.9193 1.7524 0.4606, -2.1443 0.9419 0.4606, -2.0953 1.0015 0.4606, -1.4598 1.637 0.4606, -1.4001 1.686 0.4606, -2.2106 0.7231 0.1457, -2.2106 -0.5311 0.1457, -2.0953 1.0015 0.1457, -2.1443 0.9419 0.1457, -2.1807 0.8738 0.1457, -2.2031 0.7999 0.1457, -1.4598 1.637 0.1772, -1.7047 1.3921 0.1772, -1.7047 1.3921 0.1457, -1.4176 1.6736 0.1772, -1.4176 1.6736 0.1457, -1.4001 1.686 0.1457, -1.1814 1.7524 0.1457, -1.2582 1.7448 0.1457, -1.3321 1.7224 0.1457, 0.0512 1.7524 0.1457, 0.9193 1.7524 0.1457, 1.313 1.3587 0.1457, 1.3031 1.4463 0.1457, 1.274 1.5295 0.1457, 1.2271 1.6041 0.1457, 1.1648 1.6665 0.1457, 1.0901 1.7134 0.1457, 1.0069 1.7425 0.1457, 1.313 -0.5311 0.1457, -0.7047 1.6736 0.1457, -0.1929 1.6736 0.1457, 0.8071 1.6736 0.1457, 0.2953 1.6736 0.1457, 0.2953 0.0988 0.1457, 0.0512 -0.5311 0.1457, 0.8071 0.0988 0.1457, -1.1929 1.6736 0.1457, -1.7047 0.0988 0.1457, -1.1929 0.0988 0.1457, -0.1929 0.0988 0.1457, -0.7047 0.0988 0.1457, -0.7047 -1.161 0.1457, -0.1929 -1.161 0.1457, -0.7047 -2.7358 0.1457, -0.1929 -2.7358 0.1457, -1.1929 -2.7358 0.1457, -1.1929 -1.161 0.1457, -1.7047 -1.161 0.1457, -1.7047 -2.7358 0.1457, 0.2953 -2.7358 0.1457, 0.8071 -2.7358 0.1457, 0.8071 -1.161 0.1457, 0.2953 -1.161 0.1457, -1.8544 -2.1147 -0.1181, -1.8662 -2.0862 -0.1181, -1.885 -2.0618 -0.1181, -1.9094 -2.043 -0.1181, -1.9379 -2.0312 -0.1181, -1.9685 -2.0272 -0.1181, -1.9991 -2.0312 -0.1181, -2.0276 -2.043 -0.1181, -2.052 -2.0618 -0.1181, -2.0708 -2.0862 -0.1181, -2.0826 -2.1147 -0.1181, -2.0866 -2.1453 -0.1181, -2.0826 -2.1758 -0.1181, -2.0708 -2.2043 -0.1181, -2.052 -2.2288 -0.1181, -2.0276 -2.2476 -0.1181, -1.9991 -2.2594 -0.1181, -1.9685 -2.2634 -0.1181, -1.9379 -2.2594 -0.1181, -1.9094 -2.2476 -0.1181, -1.885 -2.2288 -0.1181, -1.8662 -2.2043 -0.1181, -1.8544 -2.1758 -0.1181, -1.8504 -2.1453 -0.1181, -2.0367 -2.1846 -0.1575, -2.0446 -2.1657 -0.1575, -1.9685 -2.1453 -0.1575, -2.0472 -2.1453 -0.1575, -2.0446 -2.1249 -0.1575, -1.9889 -2.2213 -0.1575, -2.0079 -2.2135 -0.1575, -2.0242 -2.201 -0.1575, -1.9291 -2.2135 -0.1575, -1.9481 -2.2213 -0.1575, -1.9685 -2.224 -0.1575, -1.8924 -2.1657 -0.1575, -1.9003 -2.1846 -0.1575, -1.9128 -2.201 -0.1575, -1.9003 -2.1059 -0.1575, -1.8924 -2.1249 -0.1575, -1.8898 -2.1453 -0.1575, -1.9481 -2.0692 -0.1575, -1.9291 -2.0771 -0.1575, -1.9128 -2.0896 -0.1575, -2.0079 -2.0771 -0.1575, -1.9889 -2.0692 -0.1575, -1.9685 -2.0665 -0.1575, -2.0367 -2.1059 -0.1575, -2.0242 -2.0896 -0.1575, 1.492 -2.1147 -0.1181, 1.4802 -2.0862 -0.1181, 1.4615 -2.0618 -0.1181, 1.437 -2.043 -0.1181, 1.4085 -2.0312 -0.1181, 1.378 -2.0272 -0.1181, 1.3474 -2.0312 -0.1181, 1.3189 -2.043 -0.1181, 1.2944 -2.0618 -0.1181, 1.2757 -2.0862 -0.1181, 1.2639 -2.1147 -0.1181, 1.2598 -2.1453 -0.1181, 1.2639 -2.1758 -0.1181, 1.2757 -2.2043 -0.1181, 1.2944 -2.2288 -0.1181, 1.3189 -2.2476 -0.1181, 1.3474 -2.2594 -0.1181, 1.378 -2.2634 -0.1181, 1.4085 -2.2594 -0.1181, 1.437 -2.2476 -0.1181, 1.4615 -2.2288 -0.1181, 1.4802 -2.2043 -0.1181, 1.492 -2.1758 -0.1181, 1.4961 -2.1453 -0.1181, 1.3098 -2.1846 -0.1575, 1.3019 -2.1657 -0.1575, 1.378 -2.1453 -0.1575, 1.2992 -2.1453 -0.1575, 1.3019 -2.1249 -0.1575, 1.3576 -2.2213 -0.1575, 1.3386 -2.2135 -0.1575, 1.3223 -2.201 -0.1575, 1.4173 -2.2135 -0.1575, 1.3983 -2.2213 -0.1575, 1.378 -2.224 -0.1575, 1.454 -2.1657 -0.1575, 1.4461 -2.1846 -0.1575, 1.4336 -2.201 -0.1575, 1.4461 -2.1059 -0.1575, 1.454 -2.1249 -0.1575, 1.4567 -2.1453 -0.1575, 1.3983 -2.0692 -0.1575, 1.4173 -2.0771 -0.1575, 1.4336 -2.0896 -0.1575, 1.3386 -2.0771 -0.1575, 1.3576 -2.0692 -0.1575, 1.378 -2.0665 -0.1575, 1.3098 -2.1059 -0.1575, 1.3223 -2.0896 -0.1575
            ]
        }
        coordIndex [
            0,1,2,-1,3,4,5,-1,6,7,8,-1,9,10,11,-1,12,13,9,-1,9,13,14,-1,9,14,10,-1,9,15,12,-1,12,15,16,-1,12,16,17,-1,17,18,12,-1,12,18,19,-1,12,19,20,-1,11,21,9,-1,9,21,22,-1,9,22,23,-1,20,24,12,-1,12,24,25,-1,12,25,26,-1,27,28,29,-1,29,28,30,-1,29,30,31,-1,32,33,34,-1,34,33,35,-1,36,37,38,-1,38,37,39,-1,39,40,41,-1,26,42,12,-1,12,42,43,-1,12,43,44,-1,44,43,45,-1,44,45,36,-1,46,47,48,-1,48,47,27,-1,48,27,49,-1,32,34,50,-1,50,34,51,-1,50,51,52,-1,53,54,55,-1,55,54,56,-1,57,58,59,-1,59,58,60,-1,61,62,55,-1,55,62,63,-1,55,63,53,-1,60,64,59,-1,59,64,65,-1,59,65,66,-1,56,67,55,-1,55,67,68,-1,55,68,59,-1,59,68,69,-1,59,69,57,-1,70,71,72,-1,72,71,31,-1,72,31,73,-1,36,45,30,-1,30,45,74,-1,30,74,31,-1,31,74,75,-1,31,75,73,-1,76,77,78,-1,78,77,79,-1,78,79,80,-1,81,82,83,-1,83,82,84,-1,83,84,85,-1,80,86,78,-1,78,86,87,-1,78,87,88,-1,85,89,83,-1,83,89,90,-1,83,90,91,-1,88,92,78,-1,78,92,93,-1,78,93,83,-1,83,93,94,-1,83,94,81,-1,90,95,91,-1,91,95,96,-1,91,96,29,-1,29,96,38,-1,29,38,27,-1,27,38,39,-1,27,39,49,-1,49,39,41,-1,97,98,99,-1,99,98,100,-1,100,98,101,-1,100,101,102,-1,102,101,103,-1,102,103,104,-1,104,103,105,-1,104,105,106,-1,106,105,107,-1,106,107,108,-1,108,107,109,-1,108,109,110,-1,110,109,111,-1,110,111,112,-1,113,114,115,-1,116,117,118,-1,118,117,119,-1,118,119,120,-1,120,119,121,-1,122,123,124,-1,124,123,51,-1,51,123,125,-1,51,125,126,-1,119,127,121,-1,121,127,122,-1,121,122,128,-1,128,122,124,-1,129,130,131,-1,131,130,132,-1,133,134,135,-1,135,134,136,-1,135,136,132,-1,132,136,137,-1,132,137,131,-1,138,139,140,-1,140,139,141,-1,140,141,129,-1,142,143,144,-1,143,142,145,-1,146,147,148,-1,148,147,149,-1,150,151,152,-1,152,151,153,-1,153,151,154,-1,153,154,155,-1,155,154,156,-1,155,156,5,-1,5,156,157,-1,5,157,3,-1,158,159,160,-1,161,162,139,-1,139,162,163,-1,160,159,163,-1,163,159,134,-1,163,134,139,-1,139,134,133,-1,139,133,141,-1,7,76,8,-1,8,76,78,-1,8,78,131,-1,137,164,131,-1,131,164,165,-1,131,165,8,-1,8,165,38,-1,8,38,6,-1,6,38,96,-1,164,124,165,-1,165,124,51,-1,165,51,38,-1,38,51,34,-1,38,34,36,-1,36,34,35,-1,36,35,44,-1,52,51,66,-1,66,51,126,-1,66,126,59,-1,59,126,166,-1,59,166,167,-1,160,161,158,-1,158,161,139,-1,158,139,168,-1,168,139,138,-1,168,138,111,-1,111,138,97,-1,111,97,112,-1,112,97,99,-1,169,170,171,-1,171,170,172,-1,171,172,97,-1,97,172,83,-1,83,172,173,-1,83,173,78,-1,78,173,174,-1,78,174,175,-1,129,131,140,-1,140,131,78,-1,140,78,138,-1,138,78,175,-1,138,175,97,-1,97,175,176,-1,97,176,171,-1,70,177,71,-1,71,177,61,-1,71,61,149,-1,149,61,55,-1,149,55,148,-1,148,55,178,-1,148,178,167,-1,178,179,167,-1,167,179,0,-1,167,0,59,-1,59,0,2,-1,59,2,55,-1,55,2,180,-1,55,180,178,-1,125,181,126,-1,126,181,116,-1,126,116,166,-1,166,116,118,-1,166,118,167,-1,167,118,182,-1,167,182,148,-1,148,182,150,-1,148,150,146,-1,146,150,152,-1,183,184,185,-1,185,184,186,-1,185,186,187,-1,187,186,103,-1,187,103,188,-1,188,103,101,-1,188,101,189,-1,189,101,98,-1,189,98,190,-1,190,98,97,-1,190,97,191,-1,191,97,83,-1,191,83,115,-1,115,83,91,-1,115,91,113,-1,113,91,29,-1,113,29,192,-1,192,29,31,-1,192,31,193,-1,193,31,71,-1,193,71,145,-1,120,194,118,-1,118,194,195,-1,118,195,182,-1,182,195,196,-1,182,196,150,-1,150,196,197,-1,150,197,151,-1,151,197,198,-1,199,200,201,-1,201,200,202,-1,203,204,107,-1,107,204,205,-1,107,205,206,-1,206,207,107,-1,107,207,208,-1,107,208,209,-1,210,211,109,-1,109,211,212,-1,109,212,213,-1,214,215,216,-1,216,215,217,-1,216,217,218,-1,218,219,216,-1,216,219,220,-1,216,220,200,-1,200,220,221,-1,200,221,202,-1,209,222,107,-1,107,222,223,-1,107,223,109,-1,109,223,224,-1,109,224,210,-1,213,214,109,-1,109,214,216,-1,109,216,111,-1,111,216,225,-1,111,225,168,-1,168,225,226,-1,168,226,158,-1,158,226,227,-1,158,227,159,-1,159,227,228,-1,145,142,193,-1,193,142,229,-1,193,229,192,-1,192,229,230,-1,192,230,113,-1,113,230,231,-1,113,231,114,-1,232,233,234,-1,235,236,198,-1,154,237,238,-1,238,239,154,-1,154,239,240,-1,154,240,241,-1,242,151,243,-1,243,151,244,-1,242,245,151,-1,151,245,246,-1,151,246,154,-1,154,246,247,-1,154,247,237,-1,233,248,234,-1,234,248,249,-1,234,249,250,-1,236,251,198,-1,198,251,252,-1,198,252,151,-1,151,252,253,-1,151,253,244,-1,250,254,234,-1,234,254,255,-1,234,255,198,-1,198,255,256,-1,198,256,235,-1,199,203,200,-1,200,203,107,-1,200,107,257,-1,257,107,105,-1,4,3,144,-1,144,3,258,-1,144,258,142,-1,142,258,259,-1,142,259,229,-1,229,259,184,-1,229,184,230,-1,230,184,183,-1,230,183,231,-1,241,232,154,-1,154,232,234,-1,154,234,156,-1,156,234,260,-1,194,261,195,-1,195,261,262,-1,195,262,196,-1,196,262,263,-1,196,263,197,-1,197,263,264,-1,197,264,198,-1,198,264,265,-1,198,265,234,-1,234,265,266,-1,234,266,260,-1,260,266,267,-1,268,269,270,-1,268,271,228,-1,228,271,272,-1,273,159,274,-1,274,159,275,-1,274,275,271,-1,271,275,276,-1,271,276,272,-1,272,276,277,-1,272,277,159,-1,159,277,278,-1,159,278,275,-1,279,280,281,-1,281,280,273,-1,281,273,282,-1,282,273,274,-1,282,274,283,-1,283,274,284,-1,283,284,279,-1,279,284,280,-1,285,286,287,-1,287,286,288,-1,287,288,289,-1,289,288,280,-1,289,280,290,-1,290,280,284,-1,290,284,291,-1,291,284,285,-1,291,285,287,-1,292,293,294,-1,294,293,286,-1,294,286,295,-1,295,286,285,-1,295,285,296,-1,296,285,297,-1,296,297,292,-1,292,297,293,-1,298,299,300,-1,300,299,301,-1,300,301,302,-1,302,301,293,-1,302,293,303,-1,303,293,297,-1,303,297,304,-1,304,297,298,-1,304,298,300,-1,305,306,307,-1,307,306,299,-1,307,299,308,-1,308,299,298,-1,308,298,309,-1,309,298,310,-1,309,310,305,-1,305,310,306,-1,311,261,194,-1,310,311,312,-1,312,311,194,-1,312,194,313,-1,313,194,120,-1,313,120,314,-1,314,120,306,-1,314,306,315,-1,315,306,310,-1,315,310,312,-1,268,270,271,-1,271,270,316,-1,271,316,274,-1,274,316,317,-1,274,317,284,-1,284,317,318,-1,284,318,285,-1,285,318,319,-1,285,319,297,-1,297,319,320,-1,297,320,298,-1,298,320,321,-1,298,321,310,-1,310,321,322,-1,310,322,311,-1,311,322,323,-1,323,267,266,-1,261,311,324,-1,324,311,323,-1,324,323,265,-1,265,323,266,-1,200,257,325,-1,325,269,268,-1,268,228,326,-1,268,326,325,-1,325,326,216,-1,325,216,200,-1,267,323,260,-1,260,323,327,-1,260,327,328,-1,329,325,330,-1,330,325,257,-1,257,105,330,-1,330,105,331,-1,330,331,332,-1,332,331,333,-1,332,333,328,-1,328,333,156,-1,328,156,260,-1,334,335,322,-1,322,335,336,-1,322,336,337,-1,338,339,269,-1,340,341,316,-1,327,323,342,-1,342,323,322,-1,342,322,343,-1,343,322,337,-1,338,269,344,-1,344,269,325,-1,344,325,329,-1,316,341,317,-1,317,341,345,-1,317,345,318,-1,334,322,346,-1,346,322,321,-1,346,321,347,-1,347,321,320,-1,347,320,345,-1,345,320,319,-1,345,319,318,-1,339,348,269,-1,269,348,349,-1,269,349,270,-1,270,349,350,-1,270,350,316,-1,316,350,351,-1,316,351,340,-1,352,344,353,-1,353,344,329,-1,353,329,330,-1,354,349,355,-1,355,349,348,-1,355,348,356,-1,356,348,339,-1,356,339,357,-1,357,339,338,-1,357,338,352,-1,352,338,344,-1,358,350,359,-1,359,350,349,-1,359,349,360,-1,360,349,354,-1,361,362,363,-1,351,350,358,-1,364,345,365,-1,365,345,341,-1,365,341,366,-1,366,341,340,-1,366,340,363,-1,363,340,351,-1,363,351,361,-1,361,351,358,-1,345,364,347,-1,347,364,367,-1,347,367,368,-1,369,342,370,-1,370,342,343,-1,370,343,371,-1,371,343,337,-1,371,337,372,-1,372,337,336,-1,372,336,373,-1,373,336,335,-1,373,335,374,-1,374,335,334,-1,374,334,375,-1,375,334,346,-1,375,346,368,-1,368,346,347,-1,328,327,376,-1,376,327,342,-1,376,342,369,-1,377,378,367,-1,379,368,380,-1,380,368,367,-1,380,367,381,-1,381,367,382,-1,381,382,383,-1,383,382,376,-1,383,376,379,-1,379,376,369,-1,379,369,370,-1,370,371,379,-1,379,371,372,-1,379,372,373,-1,373,374,379,-1,379,374,375,-1,379,375,368,-1,363,362,384,-1,352,353,385,-1,364,365,384,-1,384,365,366,-1,384,366,363,-1,385,353,386,-1,367,378,382,-1,382,378,387,-1,382,387,388,-1,353,382,386,-1,386,382,388,-1,386,388,384,-1,384,388,377,-1,384,377,364,-1,364,377,367,-1,360,354,385,-1,385,354,355,-1,355,356,385,-1,385,356,357,-1,385,357,352,-1,389,390,382,-1,391,330,332,-1,382,390,332,-1,332,390,392,-1,332,392,391,-1,393,389,394,-1,394,389,382,-1,394,382,395,-1,395,382,353,-1,395,353,396,-1,396,353,330,-1,396,330,393,-1,393,330,391,-1,393,391,389,-1,397,332,398,-1,398,332,328,-1,398,328,399,-1,399,328,376,-1,399,376,400,-1,400,376,382,-1,400,382,397,-1,397,382,332,-1,223,401,224,-1,224,401,402,-1,224,402,210,-1,210,402,403,-1,210,403,211,-1,211,403,404,-1,211,404,212,-1,212,404,405,-1,212,405,213,-1,213,405,406,-1,213,406,214,-1,214,406,407,-1,214,407,215,-1,215,407,408,-1,215,408,217,-1,217,408,409,-1,217,409,218,-1,218,409,410,-1,218,410,219,-1,219,410,411,-1,219,411,220,-1,220,411,412,-1,220,412,221,-1,221,412,413,-1,221,413,202,-1,202,413,414,-1,202,414,201,-1,201,414,415,-1,201,415,199,-1,199,415,416,-1,199,416,203,-1,203,416,417,-1,203,417,204,-1,204,417,418,-1,204,418,205,-1,205,418,419,-1,205,419,206,-1,206,419,420,-1,206,420,207,-1,207,420,421,-1,207,421,208,-1,208,421,422,-1,208,422,209,-1,209,422,423,-1,209,423,222,-1,222,423,424,-1,222,424,223,-1,223,424,401,-1,425,426,427,-1,427,426,428,-1,427,428,429,-1,430,431,427,-1,427,431,432,-1,427,432,425,-1,433,434,427,-1,427,434,435,-1,427,435,430,-1,436,437,427,-1,427,437,438,-1,427,438,433,-1,439,440,427,-1,427,440,441,-1,427,441,436,-1,442,443,427,-1,427,443,444,-1,427,444,439,-1,445,446,427,-1,427,446,447,-1,427,447,442,-1,429,448,427,-1,427,448,449,-1,427,449,445,-1,424,440,401,-1,401,440,439,-1,401,439,402,-1,402,439,444,-1,402,444,403,-1,403,444,443,-1,403,443,404,-1,404,443,442,-1,404,442,405,-1,405,442,447,-1,405,447,406,-1,406,447,446,-1,406,446,407,-1,407,446,445,-1,407,445,408,-1,408,445,449,-1,408,449,409,-1,409,449,448,-1,409,448,410,-1,410,448,429,-1,410,429,411,-1,411,429,428,-1,411,428,412,-1,412,428,426,-1,412,426,413,-1,413,426,425,-1,413,425,414,-1,414,425,432,-1,414,432,415,-1,415,432,431,-1,415,431,416,-1,416,431,430,-1,416,430,417,-1,417,430,435,-1,417,435,418,-1,418,435,434,-1,418,434,419,-1,419,434,433,-1,419,433,420,-1,420,433,438,-1,420,438,421,-1,421,438,437,-1,421,437,422,-1,422,437,436,-1,422,436,423,-1,423,436,441,-1,423,441,424,-1,424,441,440,-1,255,450,256,-1,256,450,451,-1,256,451,235,-1,235,451,452,-1,235,452,236,-1,236,452,453,-1,236,453,251,-1,251,453,454,-1,251,454,252,-1,252,454,455,-1,252,455,253,-1,253,455,456,-1,253,456,244,-1,244,456,457,-1,244,457,243,-1,243,457,458,-1,243,458,242,-1,242,458,459,-1,242,459,245,-1,245,459,460,-1,245,460,246,-1,246,460,461,-1,246,461,247,-1,247,461,462,-1,247,462,237,-1,237,462,463,-1,237,463,238,-1,238,463,464,-1,238,464,239,-1,239,464,465,-1,239,465,240,-1,240,465,466,-1,240,466,241,-1,241,466,467,-1,241,467,232,-1,232,467,468,-1,232,468,233,-1,233,468,469,-1,233,469,248,-1,248,469,470,-1,248,470,249,-1,249,470,471,-1,249,471,250,-1,250,471,472,-1,250,472,254,-1,254,472,473,-1,254,473,255,-1,255,473,450,-1,474,475,476,-1,476,475,477,-1,476,477,478,-1,479,480,476,-1,476,480,481,-1,476,481,474,-1,482,483,476,-1,476,483,484,-1,476,484,479,-1,485,486,476,-1,476,486,487,-1,476,487,482,-1,488,489,476,-1,476,489,490,-1,476,490,485,-1,491,492,476,-1,476,492,493,-1,476,493,488,-1,494,495,476,-1,476,495,496,-1,476,496,491,-1,478,497,476,-1,476,497,498,-1,476,498,494,-1,473,489,450,-1,450,489,488,-1,450,488,451,-1,451,488,493,-1,451,493,452,-1,452,493,492,-1,452,492,453,-1,453,492,491,-1,453,491,454,-1,454,491,496,-1,454,496,455,-1,455,496,495,-1,455,495,456,-1,456,495,494,-1,456,494,457,-1,457,494,498,-1,457,498,458,-1,458,498,497,-1,458,497,459,-1,459,497,478,-1,459,478,460,-1,460,478,477,-1,460,477,461,-1,461,477,475,-1,461,475,462,-1,462,475,474,-1,462,474,463,-1,463,474,481,-1,463,481,464,-1,464,481,480,-1,464,480,465,-1,465,480,479,-1,465,479,466,-1,466,479,484,-1,466,484,467,-1,467,484,483,-1,467,483,468,-1,468,483,482,-1,468,482,469,-1,469,482,487,-1,469,487,470,-1,470,487,486,-1,470,486,471,-1,471,486,485,-1,471,485,472,-1,472,485,490,-1,472,490,473,-1,473,490,489,-1,
        ]
    }
}
Shape{
    appearance Appearance {
        material  Material 	{
            diffuseColor 0.6666666666666666 0.6666666666666666 0.6666666666666666
            specularColor 0.4666666666666667 0.4666666666666667 0.4666666666666667
            ambientIntensity 0.6667
            transparency 0.0
            shininess 0.5
        }
    }
    geometry IndexedFaceSet {
        ccw TRUE
        solid FALSE
        coord DEF co Coordinate {
            point [
                -1.9232 2.776 0.0394, -1.9902 2.7091 0.0394, -1.8799 2.776 0.0394, -1.9902 2.5887 0.0394, -1.813 2.7091 0.0394, -1.813 2.5887 0.0394, -1.8799 2.776 -0.0197, -1.9232 2.776 -0.0197, -1.813 2.7091 -0.0197, -1.813 2.5791 -0.0197, -1.9902 2.5791 -0.0197, -1.9902 2.7091 -0.0197, -1.9902 2.461 0.0197, -1.813 2.461 0.0197, -1.9902 2.3823 0.0197, -1.813 2.3823 0.0197, -1.9902 2.4706 0.0787, -1.9902 2.3823 0.0787, -1.813 2.4706 0.0787, -1.813 2.3823 0.0787, -1.4232 2.776 0.0394, -1.4902 2.7091 0.0394, -1.3799 2.776 0.0394, -1.4902 2.5887 0.0394, -1.313 2.7091 0.0394, -1.313 2.5887 0.0394, -1.3799 2.776 -0.0197, -1.4232 2.776 -0.0197, -1.313 2.7091 -0.0197, -1.313 2.5791 -0.0197, -1.4902 2.5791 -0.0197, -1.4902 2.7091 -0.0197, -1.4902 2.461 0.0197, -1.313 2.461 0.0197, -1.4902 2.3823 0.0197, -1.313 2.3823 0.0197, -1.4902 2.4706 0.0787, -1.4902 2.3823 0.0787, -1.313 2.4706 0.0787, -1.313 2.3823 0.0787, -0.9232 2.776 0.0394, -0.9902 2.7091 0.0394, -0.8799 2.776 0.0394, -0.9902 2.5887 0.0394, -0.813 2.7091 0.0394, -0.813 2.5887 0.0394, -0.8799 2.776 -0.0197, -0.9232 2.776 -0.0197, -0.813 2.7091 -0.0197, -0.813 2.5791 -0.0197, -0.9902 2.5791 -0.0197, -0.9902 2.7091 -0.0197, -0.9902 2.461 0.0197, -0.813 2.461 0.0197, -0.9902 2.3823 0.0197, -0.813 2.3823 0.0197, -0.9902 2.4706 0.0787, -0.9902 2.3823 0.0787, -0.813 2.4706 0.0787, -0.813 2.3823 0.0787, -0.4232 2.776 0.0394, -0.4902 2.7091 0.0394, -0.3799 2.776 0.0394, -0.4902 2.5887 0.0394, -0.313 2.7091 0.0394, -0.313 2.5887 0.0394, -0.3799 2.776 -0.0197, -0.4232 2.776 -0.0197, -0.313 2.7091 -0.0197, -0.313 2.5791 -0.0197, -0.4902 2.5791 -0.0197, -0.4902 2.7091 -0.0197, -0.4902 2.461 0.0197, -0.313 2.461 0.0197, -0.4902 2.3823 0.0197, -0.313 2.3823 0.0197, -0.4902 2.4706 0.0787, -0.4902 2.3823 0.0787, -0.313 2.4706 0.0787, -0.313 2.3823 0.0787, 0.0768 2.776 0.0394, 0.0098 2.7091 0.0394, 0.1201 2.776 0.0394, 0.0098 2.5887 0.0394, 0.187 2.7091 0.0394, 0.187 2.5887 0.0394, 0.1201 2.776 -0.0197, 0.0768 2.776 -0.0197, 0.187 2.7091 -0.0197, 0.187 2.5791 -0.0197, 0.0098 2.5791 -0.0197, 0.0098 2.7091 -0.0197, 0.0098 2.461 0.0197, 0.187 2.461 0.0197, 0.0098 2.3823 0.0197, 0.187 2.3823 0.0197, 0.0098 2.4706 0.0787, 0.0098 2.3823 0.0787, 0.187 2.4706 0.0787, 0.187 2.3823 0.0787, 0.5768 2.776 0.0394, 0.5098 2.7091 0.0394, 0.6201 2.776 0.0394, 0.5098 2.5887 0.0394, 0.687 2.7091 0.0394, 0.687 2.5887 0.0394, 0.6201 2.776 -0.0197, 0.5768 2.776 -0.0197, 0.687 2.7091 -0.0197, 0.687 2.5791 -0.0197, 0.5098 2.5791 -0.0197, 0.5098 2.7091 -0.0197, 0.5098 2.461 0.0197, 0.687 2.461 0.0197, 0.5098 2.3823 0.0197, 0.687 2.3823 0.0197, 0.5098 2.4706 0.0787, 0.5098 2.3823 0.0787, 0.687 2.4706 0.0787, 0.687 2.3823 0.0787, 0.9508 2.776 0.0394, 0.8839 2.7091 0.0394, 0.9941 2.776 0.0394, 0.8839 2.5887 0.0394, 1.061 2.7091 0.0394, 1.061 2.5887 0.0394, 0.9941 2.776 -0.0197, 0.9508 2.776 -0.0197, 1.061 2.7091 -0.0197, 1.061 2.5791 -0.0197, 0.8839 2.5791 -0.0197, 0.8839 2.7091 -0.0197, 0.8839 2.461 0.0197, 1.061 2.461 0.0197, 0.8839 2.3823 0.0197, 1.061 2.3823 0.0197, 0.8839 2.4706 0.0787, 0.8839 2.3823 0.0787, 1.061 2.4706 0.0787, 1.061 2.3823 0.0787
            ]
        }
        coordIndex [
            0,1,2,-1,2,1,3,-1,2,3,4,-1,4,3,5,-1,6,7,2,-1,2,7,0,-1,8,9,6,-1,6,9,10,-1,6,10,7,-1,7,10,11,-1,12,10,13,-1,13,10,9,-1,14,12,15,-1,15,12,13,-1,16,17,18,-1,18,17,19,-1,3,16,5,-1,5,16,18,-1,14,17,12,-1,12,17,16,-1,12,16,10,-1,10,16,3,-1,10,3,11,-1,11,3,1,-1,8,4,9,-1,9,4,5,-1,9,5,13,-1,13,5,18,-1,13,18,15,-1,15,18,19,-1,2,4,6,-1,6,4,8,-1,1,0,11,-1,11,0,7,-1,20,21,22,-1,22,21,23,-1,22,23,24,-1,24,23,25,-1,26,27,22,-1,22,27,20,-1,28,29,26,-1,26,29,30,-1,26,30,27,-1,27,30,31,-1,32,30,33,-1,33,30,29,-1,34,32,35,-1,35,32,33,-1,36,37,38,-1,38,37,39,-1,23,36,25,-1,25,36,38,-1,34,37,32,-1,32,37,36,-1,32,36,30,-1,30,36,23,-1,30,23,31,-1,31,23,21,-1,28,24,29,-1,29,24,25,-1,29,25,33,-1,33,25,38,-1,33,38,35,-1,35,38,39,-1,40,41,42,-1,42,41,43,-1,42,43,44,-1,44,43,45,-1,46,47,42,-1,42,47,40,-1,48,49,46,-1,46,49,50,-1,46,50,47,-1,47,50,51,-1,52,50,53,-1,53,50,49,-1,54,52,55,-1,55,52,53,-1,56,57,58,-1,58,57,59,-1,43,56,45,-1,45,56,58,-1,54,57,52,-1,52,57,56,-1,52,56,50,-1,50,56,43,-1,50,43,51,-1,51,43,41,-1,48,44,49,-1,49,44,45,-1,49,45,53,-1,53,45,58,-1,53,58,55,-1,55,58,59,-1,60,61,62,-1,62,61,63,-1,62,63,64,-1,64,63,65,-1,66,67,62,-1,62,67,60,-1,68,69,66,-1,66,69,70,-1,66,70,67,-1,67,70,71,-1,72,70,73,-1,73,70,69,-1,74,72,75,-1,75,72,73,-1,76,77,78,-1,78,77,79,-1,63,76,65,-1,65,76,78,-1,61,71,63,-1,63,71,70,-1,63,70,76,-1,76,70,72,-1,76,72,77,-1,77,72,74,-1,68,64,69,-1,69,64,65,-1,69,65,73,-1,73,65,78,-1,73,78,75,-1,75,78,79,-1,80,81,82,-1,82,81,83,-1,82,83,84,-1,84,83,85,-1,86,87,82,-1,82,87,80,-1,88,89,86,-1,86,89,90,-1,86,90,87,-1,87,90,91,-1,92,90,93,-1,93,90,89,-1,94,92,95,-1,95,92,93,-1,96,97,98,-1,98,97,99,-1,83,96,85,-1,85,96,98,-1,94,97,92,-1,92,97,96,-1,92,96,90,-1,90,96,83,-1,90,83,91,-1,91,83,81,-1,88,84,89,-1,89,84,85,-1,89,85,93,-1,93,85,98,-1,93,98,95,-1,95,98,99,-1,100,101,102,-1,102,101,103,-1,102,103,104,-1,104,103,105,-1,106,107,102,-1,102,107,100,-1,108,109,106,-1,106,109,110,-1,106,110,107,-1,107,110,111,-1,112,110,113,-1,113,110,109,-1,114,112,115,-1,115,112,113,-1,116,117,118,-1,118,117,119,-1,103,116,105,-1,105,116,118,-1,101,111,103,-1,103,111,110,-1,103,110,116,-1,116,110,112,-1,116,112,117,-1,117,112,114,-1,108,104,109,-1,109,104,105,-1,109,105,113,-1,113,105,118,-1,113,118,115,-1,115,118,119,-1,22,24,26,-1,26,24,28,-1,21,20,31,-1,31,20,27,-1,42,44,46,-1,46,44,48,-1,41,40,51,-1,51,40,47,-1,62,64,66,-1,66,64,68,-1,61,60,71,-1,71,60,67,-1,82,84,86,-1,86,84,88,-1,81,80,91,-1,91,80,87,-1,102,104,106,-1,106,104,108,-1,101,100,111,-1,111,100,107,-1,120,121,122,-1,122,121,123,-1,122,123,124,-1,124,123,125,-1,126,127,122,-1,122,127,120,-1,128,129,126,-1,126,129,130,-1,126,130,127,-1,127,130,131,-1,132,130,133,-1,133,130,129,-1,134,132,135,-1,135,132,133,-1,136,137,138,-1,138,137,139,-1,123,136,125,-1,125,136,138,-1,134,137,132,-1,132,137,136,-1,132,136,130,-1,130,136,123,-1,130,123,131,-1,131,123,121,-1,128,124,129,-1,129,124,125,-1,129,125,133,-1,133,125,138,-1,133,138,135,-1,135,138,139,-1,122,124,126,-1,126,124,128,-1,121,120,131,-1,131,120,127,-1,
        ]
    }
}
Shape{
    appearance Appearance {
        material  Material 	{
            diffuseColor 0.20784313725490197 0.20784313725490197 0.20784313725490197
            specularColor 0.01568627450980392 0.01568627450980392 0.01568627450980392
            ambientIntensity 0.298
            transparency 0.0
            shininess 0.5
        }
    }
    geometry IndexedFaceSet {
        ccw TRUE
        solid FALSE
        coord DEF co Coordinate {
            point [
                -1.1929 -1.161 0.1457, -1.1929 -1.161 0.0, -1.1929 -1.5941 0.0, -1.1929 -2.7358 0.1457, -1.1929 -2.4996 0.0, -1.1929 -2.7358 0.0, -1.5669 -1.161 0.1077, -1.7047 -1.161 0.1457, -1.5669 -1.161 0.0487, -1.7047 -1.161 0.0, -1.3307 -1.161 0.0487, -1.3307 -1.161 0.1077, -1.7047 -2.7358 0.1457, -1.7047 -2.7358 0.0, -1.7047 -2.4996 0.0, -1.7047 -1.5941 0.0, -0.1929 -1.161 0.1457, -0.1929 -1.161 0.0, -0.1929 -1.5941 0.0, -0.1929 -2.7358 0.1457, -0.1929 -2.4996 0.0, -0.1929 -2.7358 0.0, -0.5669 -1.161 0.1077, -0.7047 -1.161 0.1457, -0.5669 -1.161 0.0487, -0.7047 -1.161 0.0, -0.3307 -1.161 0.0487, -0.3307 -1.161 0.1077, -0.7047 -2.7358 0.1457, -0.7047 -2.7358 0.0, -0.7047 -2.4996 0.0, -0.7047 -1.5941 0.0, 0.8071 0.0988 0.0, 0.8071 0.0988 0.1457, 0.8071 1.6736 0.0, 0.8071 1.6736 0.1457, 0.4331 1.6736 0.1077, 0.2953 1.6736 0.1457, 0.4331 1.6736 0.0487, 0.2953 1.6736 0.0, 0.6693 1.6736 0.0487, 0.6693 1.6736 0.1077, 0.2953 0.0988 0.0, 0.2953 0.0988 0.1457, -0.1929 0.0988 0.0, -0.1929 0.0988 0.1457, -0.1929 1.6736 0.0, -0.1929 1.6736 0.1457, -0.5669 1.6736 0.1077, -0.7047 1.6736 0.1457, -0.5669 1.6736 0.0487, -0.7047 1.6736 0.0, -0.3307 1.6736 0.0487, -0.3307 1.6736 0.1077, -0.7047 0.0988 0.0, -0.7047 0.0988 0.1457
            ]
        }
        coordIndex [
            0,1,2,-1,0,2,3,-1,3,2,4,-1,3,4,5,-1,6,7,8,-1,8,7,9,-1,8,9,10,-1,10,9,1,-1,10,1,11,-1,11,1,0,-1,11,0,6,-1,6,0,7,-1,12,13,14,-1,12,14,7,-1,7,14,15,-1,7,15,9,-1,13,12,5,-1,5,12,3,-1,16,17,18,-1,16,18,19,-1,19,18,20,-1,19,20,21,-1,22,23,24,-1,24,23,25,-1,24,25,26,-1,26,25,17,-1,26,17,27,-1,27,17,16,-1,27,16,22,-1,22,16,23,-1,28,29,30,-1,28,30,23,-1,23,30,31,-1,23,31,25,-1,29,28,21,-1,21,28,19,-1,32,33,34,-1,34,33,35,-1,36,37,38,-1,38,37,39,-1,38,39,40,-1,40,39,34,-1,40,34,41,-1,41,34,35,-1,41,35,36,-1,36,35,37,-1,39,37,42,-1,42,37,43,-1,42,43,32,-1,32,43,33,-1,44,45,46,-1,46,45,47,-1,48,49,50,-1,50,49,51,-1,50,51,52,-1,52,51,46,-1,52,46,53,-1,53,46,47,-1,53,47,48,-1,48,47,49,-1,51,49,54,-1,54,49,55,-1,54,55,44,-1,44,55,45,-1,
        ]
    }
}
Shape{
    appearance Appearance {
        material  Material 	{
            diffuseColor 1.0 1.0 1.0
            specularColor 0.8784313725490196 0.8784313725490196 0.8784313725490196
            ambientIntensity 1.0
            transparency 0.0
            shininess 0.5
        }
    }
    geometry IndexedFaceSet {
        ccw TRUE
        solid FALSE
        coord DEF co Coordinate {
            point [
                -1.7047 1.3921 0.1772, -1.7047 1.6736 0.1772, -1.4598 1.637 0.1772, -1.4176 1.6736 0.1772
            ]
        }
        coordIndex [
            0,1,2,-1,2,1,3,-1,
        ]
    }
}
Shape{
    appearance Appearance {
        material  Material 	{
            diffuseColor 0.20784313725490197 0.20784313725490197 0.20784313725490197
            specularColor 0.01568627450980392 0.01568627450980392 0.01568627450980392
            ambientIntensity 0.298
            transparency 0.0
            shininess 0.5
        }
    }
    geometry IndexedFaceSet {
        ccw TRUE
        solid FALSE
        coord DEF co Coordinate {
            point [
                -1.1929 0.0988 0.0, -1.1929 0.0988 0.1457, -1.1929 1.6736 0.0, -1.1929 1.6736 0.1457, -1.4176 1.6736 0.1457, -1.4176 1.6736 0.1772, -1.7047 1.6736 0.1772, -1.3307 1.6736 0.1077, -1.5669 1.6736 0.1077, -1.5669 1.6736 0.0487, -1.7047 1.6736 0.0, -1.3307 1.6736 0.0487, -1.7047 0.0988 0.1457, -1.7047 0.0988 0.0, -1.7047 1.3921 0.1457, -1.7047 1.3921 0.1772, 0.8071 -1.161 0.1457, 0.8071 -1.161 0.0, 0.8071 -1.5941 0.0, 0.8071 -2.7358 0.1457, 0.8071 -2.4996 0.0, 0.8071 -2.7358 0.0, 0.4331 -1.161 0.1077, 0.2953 -1.161 0.1457, 0.4331 -1.161 0.0487, 0.2953 -1.161 0.0, 0.6693 -1.161 0.0487, 0.6693 -1.161 0.1077, 0.2953 -2.7358 0.1457, 0.2953 -2.7358 0.0, 0.2953 -2.4996 0.0, 0.2953 -1.5941 0.0
            ]
        }
        coordIndex [
            0,1,2,-1,2,1,3,-1,4,5,6,-1,2,3,7,-1,7,3,4,-1,7,4,8,-1,8,4,6,-1,8,6,9,-1,9,6,10,-1,9,10,11,-1,11,10,2,-1,11,2,7,-1,12,13,14,-1,14,13,10,-1,14,10,15,-1,15,10,6,-1,13,12,0,-1,0,12,1,-1,16,17,18,-1,16,18,19,-1,19,18,20,-1,19,20,21,-1,22,23,24,-1,24,23,25,-1,24,25,26,-1,26,25,17,-1,26,17,27,-1,27,17,16,-1,27,16,22,-1,22,16,23,-1,28,29,30,-1,28,30,23,-1,23,30,31,-1,23,31,25,-1,29,28,21,-1,21,28,19,-1,
        ]
    }
}
Shape{
    appearance Appearance {
        material  Material 	{
            diffuseColor 0.6666666666666666 0.6666666666666666 0.6666666666666666
            specularColor 0.4666666666666667 0.4666666666666667 0.4666666666666667
            ambientIntensity 0.6667
            transparency 0.0
            shininess 0.5
        }
    }
    geometry IndexedFaceSet {
        ccw TRUE
        solid FALSE
        coord DEF co Coordinate {
            point [
                -1.5669 -2.2499 0.2039, -1.3307 -2.2499 0.2039, -1.5669 -2.3005 0.24, -1.3307 -2.3005 0.24, -1.5669 -2.3582 0.2632, -1.3307 -2.3582 0.2632, -1.5669 -2.4197 0.2722, -1.3307 -2.4197 0.2722, -1.5669 -2.4816 0.2664, -1.3307 -2.4816 0.2664, -1.5669 -2.5404 0.2462, -1.3307 -2.5404 0.2462, -1.5669 -2.5928 0.2128, -1.3307 -2.5928 0.2128, -1.5669 -2.6303 0.2585, -1.3307 -2.6303 0.2585, -1.3307 -2.5686 0.2982, -1.5669 -2.5686 0.2982, -1.3307 -2.4994 0.3229, -1.5669 -2.4994 0.3229, -1.3307 -2.4265 0.3313, -1.5669 -2.4265 0.3313, -1.3307 -2.3536 0.3229, -1.5669 -2.3536 0.3229, -1.3307 -2.2845 0.2982, -1.5669 -2.2845 0.2982, -1.3307 -2.2228 0.2585, -1.5669 -2.2228 0.2585, -1.5669 -1.5173 0.1077, -1.3307 -1.5173 0.1077, -1.5669 -1.161 0.1077, -1.3307 -1.161 0.1077, -1.5669 -1.5235 0.0487, -1.5669 -1.161 0.0487, -1.3307 -1.5235 0.0487, -1.3307 -1.161 0.0487, -0.5669 -2.2499 0.2039, -0.3307 -2.2499 0.2039, -0.5669 -2.3005 0.24, -0.3307 -2.3005 0.24, -0.5669 -2.3582 0.2632, -0.3307 -2.3582 0.2632, -0.5669 -2.4197 0.2722, -0.3307 -2.4197 0.2722, -0.5669 -2.4816 0.2664, -0.3307 -2.4816 0.2664, -0.5669 -2.5404 0.2462, -0.3307 -2.5404 0.2462, -0.5669 -2.5928 0.2128, -0.3307 -2.5928 0.2128, -0.5669 -2.6303 0.2585, -0.3307 -2.6303 0.2585, -0.3307 -2.5686 0.2982, -0.5669 -2.5686 0.2982, -0.3307 -2.4994 0.3229, -0.5669 -2.4994 0.3229, -0.3307 -2.4265 0.3313, -0.5669 -2.4265 0.3313, -0.3307 -2.3536 0.3229, -0.5669 -2.3536 0.3229, -0.3307 -2.2845 0.2982, -0.5669 -2.2845 0.2982, -0.3307 -2.2228 0.2585, -0.5669 -2.2228 0.2585, -0.5669 -1.5173 0.1077, -0.3307 -1.5173 0.1077, -0.5669 -1.161 0.1077, -0.3307 -1.161 0.1077, -0.5669 -1.5235 0.0487, -0.5669 -1.161 0.0487, -0.3307 -1.5235 0.0487, -0.3307 -1.161 0.0487, 0.4331 -2.2499 0.2039, 0.6693 -2.2499 0.2039, 0.4331 -2.3005 0.24, 0.6693 -2.3005 0.24, 0.4331 -2.3582 0.2632, 0.6693 -2.3582 0.2632, 0.4331 -2.4197 0.2722, 0.6693 -2.4197 0.2722, 0.4331 -2.4816 0.2664, 0.6693 -2.4816 0.2664, 0.4331 -2.5404 0.2462, 0.6693 -2.5404 0.2462, 0.4331 -2.5928 0.2128, 0.6693 -2.5928 0.2128, 0.4331 -2.6303 0.2585, 0.6693 -2.6303 0.2585, 0.6693 -2.5686 0.2982, 0.4331 -2.5686 0.2982, 0.6693 -2.4994 0.3229, 0.4331 -2.4994 0.3229, 0.6693 -2.4265 0.3313, 0.4331 -2.4265 0.3313, 0.6693 -2.3536 0.3229, 0.4331 -2.3536 0.3229, 0.6693 -2.2845 0.2982, 0.4331 -2.2845 0.2982, 0.6693 -2.2228 0.2585, 0.4331 -2.2228 0.2585, 0.4331 -1.5173 0.1077, 0.6693 -1.5173 0.1077, 0.4331 -1.161 0.1077, 0.6693 -1.161 0.1077, 0.4331 -1.5235 0.0487, 0.4331 -1.161 0.0487, 0.6693 -1.5235 0.0487, 0.6693 -1.161 0.0487, -1.5669 0.5847 0.2039, -1.3307 0.5847 0.2039, -1.5669 0.5341 0.24, -1.3307 0.5341 0.24, -1.5669 0.4765 0.2632, -1.3307 0.4765 0.2632, -1.5669 0.4149 0.2722, -1.3307 0.4149 0.2722, -1.5669 0.353 0.2664, -1.3307 0.353 0.2664, -1.5669 0.2942 0.2462, -1.3307 0.2942 0.2462, -1.5669 0.2418 0.2128, -1.3307 0.2418 0.2128, -1.5669 0.2044 0.2585, -1.3307 0.2044 0.2585, -1.3307 0.2661 0.2982, -1.5669 0.2661 0.2982, -1.3307 0.3352 0.3229, -1.5669 0.3352 0.3229, -1.3307 0.4081 0.3313, -1.5669 0.4081 0.3313, -1.3307 0.481 0.3229, -1.5669 0.481 0.3229, -1.3307 0.5501 0.2982, -1.5669 0.5501 0.2982, -1.3307 0.6118 0.2585, -1.5669 0.6118 0.2585, -1.5669 1.3174 0.1077, -1.3307 1.3174 0.1077, -1.5669 1.6736 0.1077, -1.3307 1.6736 0.1077, -1.5669 1.3111 0.0487, -1.5669 1.6736 0.0487, -1.3307 1.3111 0.0487, -1.3307 1.6736 0.0487, -0.5669 0.5847 0.2039, -0.3307 0.5847 0.2039, -0.5669 0.5341 0.24, -0.3307 0.5341 0.24, -0.5669 0.4765 0.2632, -0.3307 0.4765 0.2632, -0.5669 0.4149 0.2722, -0.3307 0.4149 0.2722, -0.5669 0.353 0.2664, -0.3307 0.353 0.2664, -0.5669 0.2942 0.2462, -0.3307 0.2942 0.2462, -0.5669 0.2418 0.2128, -0.3307 0.2418 0.2128, -0.5669 0.2044 0.2585, -0.3307 0.2044 0.2585, -0.3307 0.2661 0.2982, -0.5669 0.2661 0.2982, -0.3307 0.3352 0.3229, -0.5669 0.3352 0.3229, -0.3307 0.4081 0.3313, -0.5669 0.4081 0.3313, -0.3307 0.481 0.3229, -0.5669 0.481 0.3229, -0.3307 0.5501 0.2982, -0.5669 0.5501 0.2982, -0.3307 0.6118 0.2585, -0.5669 0.6118 0.2585, -0.5669 1.3174 0.1077, -0.3307 1.3174 0.1077, -0.5669 1.6736 0.1077, -0.3307 1.6736 0.1077, -0.5669 1.3111 0.0487, -0.5669 1.6736 0.0487, -0.3307 1.3111 0.0487, -0.3307 1.6736 0.0487, 0.4331 0.5847 0.2039, 0.6693 0.5847 0.2039, 0.4331 0.5341 0.24, 0.6693 0.5341 0.24, 0.4331 0.4765 0.2632, 0.6693 0.4765 0.2632, 0.4331 0.4149 0.2722, 0.6693 0.4149 0.2722, 0.4331 0.353 0.2664, 0.6693 0.353 0.2664, 0.4331 0.2942 0.2462, 0.6693 0.2942 0.2462, 0.4331 0.2418 0.2128, 0.6693 0.2418 0.2128, 0.4331 0.2044 0.2585, 0.6693 0.2044 0.2585, 0.6693 0.2661 0.2982, 0.4331 0.2661 0.2982, 0.6693 0.3352 0.3229, 0.4331 0.3352 0.3229, 0.6693 0.4081 0.3313, 0.4331 0.4081 0.3313, 0.6693 0.481 0.3229, 0.4331 0.481 0.3229, 0.6693 0.5501 0.2982, 0.4331 0.5501 0.2982, 0.6693 0.6118 0.2585, 0.4331 0.6118 0.2585, 0.4331 1.3174 0.1077, 0.6693 1.3174 0.1077, 0.4331 1.6736 0.1077, 0.6693 1.6736 0.1077, 0.4331 1.3111 0.0487, 0.4331 1.6736 0.0487, 0.6693 1.3111 0.0487, 0.6693 1.6736 0.0487
            ]
        }
        coordIndex [
            0,1,2,-1,2,1,3,-1,2,3,4,-1,4,3,5,-1,4,5,6,-1,6,5,7,-1,6,7,8,-1,8,7,9,-1,8,9,10,-1,10,9,11,-1,10,11,12,-1,12,11,13,-1,14,12,15,-1,15,12,13,-1,14,15,16,-1,14,16,17,-1,17,16,18,-1,17,18,19,-1,19,18,20,-1,19,20,21,-1,21,20,22,-1,21,22,23,-1,23,22,24,-1,23,24,25,-1,25,24,26,-1,25,26,27,-1,28,27,29,-1,29,27,26,-1,30,28,31,-1,31,28,29,-1,32,33,34,-1,34,33,35,-1,0,32,1,-1,1,32,34,-1,12,14,10,-1,10,14,17,-1,10,17,8,-1,8,17,19,-1,8,19,6,-1,6,19,21,-1,6,21,4,-1,4,21,23,-1,4,23,2,-1,2,23,25,-1,2,25,0,-1,0,25,27,-1,0,27,32,-1,32,27,28,-1,32,28,33,-1,33,28,30,-1,35,31,34,-1,34,31,29,-1,34,29,1,-1,1,29,26,-1,1,26,3,-1,3,26,24,-1,3,24,5,-1,5,24,22,-1,5,22,7,-1,7,22,20,-1,7,20,9,-1,9,20,18,-1,9,18,11,-1,11,18,16,-1,11,16,13,-1,13,16,15,-1,36,37,38,-1,38,37,39,-1,38,39,40,-1,40,39,41,-1,40,41,42,-1,42,41,43,-1,42,43,44,-1,44,43,45,-1,44,45,46,-1,46,45,47,-1,46,47,48,-1,48,47,49,-1,50,48,51,-1,51,48,49,-1,50,51,52,-1,50,52,53,-1,53,52,54,-1,53,54,55,-1,55,54,56,-1,55,56,57,-1,57,56,58,-1,57,58,59,-1,59,58,60,-1,59,60,61,-1,61,60,62,-1,61,62,63,-1,64,63,65,-1,65,63,62,-1,66,64,67,-1,67,64,65,-1,68,69,70,-1,70,69,71,-1,36,68,37,-1,37,68,70,-1,48,50,46,-1,46,50,53,-1,46,53,44,-1,44,53,55,-1,44,55,42,-1,42,55,57,-1,42,57,40,-1,40,57,59,-1,40,59,38,-1,38,59,61,-1,38,61,36,-1,36,61,63,-1,36,63,68,-1,68,63,64,-1,68,64,69,-1,69,64,66,-1,71,67,70,-1,70,67,65,-1,70,65,37,-1,37,65,62,-1,37,62,39,-1,39,62,60,-1,39,60,41,-1,41,60,58,-1,41,58,43,-1,43,58,56,-1,43,56,45,-1,45,56,54,-1,45,54,47,-1,47,54,52,-1,47,52,49,-1,49,52,51,-1,72,73,74,-1,74,73,75,-1,74,75,76,-1,76,75,77,-1,76,77,78,-1,78,77,79,-1,78,79,80,-1,80,79,81,-1,80,81,82,-1,82,81,83,-1,82,83,84,-1,84,83,85,-1,86,84,87,-1,87,84,85,-1,86,87,88,-1,86,88,89,-1,89,88,90,-1,89,90,91,-1,91,90,92,-1,91,92,93,-1,93,92,94,-1,93,94,95,-1,95,94,96,-1,95,96,97,-1,97,96,98,-1,97,98,99,-1,100,99,101,-1,101,99,98,-1,102,100,103,-1,103,100,101,-1,104,105,106,-1,106,105,107,-1,72,104,73,-1,73,104,106,-1,84,86,82,-1,82,86,89,-1,82,89,80,-1,80,89,91,-1,80,91,78,-1,78,91,93,-1,78,93,76,-1,76,93,95,-1,76,95,74,-1,74,95,97,-1,74,97,72,-1,72,97,99,-1,72,99,104,-1,104,99,100,-1,104,100,105,-1,105,100,102,-1,107,103,106,-1,106,103,101,-1,106,101,73,-1,73,101,98,-1,73,98,75,-1,75,98,96,-1,75,96,77,-1,77,96,94,-1,77,94,79,-1,79,94,92,-1,79,92,81,-1,81,92,90,-1,81,90,83,-1,83,90,88,-1,83,88,85,-1,85,88,87,-1,108,109,110,-1,110,109,111,-1,110,111,112,-1,112,111,113,-1,112,113,114,-1,114,113,115,-1,114,115,116,-1,116,115,117,-1,116,117,118,-1,118,117,119,-1,118,119,120,-1,120,119,121,-1,122,120,123,-1,123,120,121,-1,122,123,124,-1,122,124,125,-1,125,124,126,-1,125,126,127,-1,127,126,128,-1,127,128,129,-1,129,128,130,-1,129,130,131,-1,131,130,132,-1,131,132,133,-1,133,132,134,-1,133,134,135,-1,136,135,137,-1,137,135,134,-1,138,136,139,-1,139,136,137,-1,140,141,142,-1,142,141,143,-1,108,140,109,-1,109,140,142,-1,120,122,118,-1,118,122,125,-1,118,125,116,-1,116,125,127,-1,116,127,114,-1,114,127,129,-1,114,129,112,-1,112,129,131,-1,112,131,110,-1,110,131,133,-1,110,133,108,-1,108,133,135,-1,108,135,140,-1,140,135,136,-1,140,136,141,-1,141,136,138,-1,143,139,142,-1,142,139,137,-1,142,137,109,-1,109,137,134,-1,109,134,111,-1,111,134,132,-1,111,132,113,-1,113,132,130,-1,113,130,115,-1,115,130,128,-1,115,128,117,-1,117,128,126,-1,117,126,119,-1,119,126,124,-1,119,124,121,-1,121,124,123,-1,144,145,146,-1,146,145,147,-1,146,147,148,-1,148,147,149,-1,148,149,150,-1,150,149,151,-1,150,151,152,-1,152,151,153,-1,152,153,154,-1,154,153,155,-1,154,155,156,-1,156,155,157,-1,158,156,159,-1,159,156,157,-1,158,159,160,-1,158,160,161,-1,161,160,162,-1,161,162,163,-1,163,162,164,-1,163,164,165,-1,165,164,166,-1,165,166,167,-1,167,166,168,-1,167,168,169,-1,169,168,170,-1,169,170,171,-1,172,171,173,-1,173,171,170,-1,174,172,175,-1,175,172,173,-1,176,177,178,-1,178,177,179,-1,144,176,145,-1,145,176,178,-1,156,158,154,-1,154,158,161,-1,154,161,152,-1,152,161,163,-1,152,163,150,-1,150,163,165,-1,150,165,148,-1,148,165,167,-1,148,167,146,-1,146,167,169,-1,146,169,144,-1,144,169,171,-1,144,171,176,-1,176,171,172,-1,176,172,177,-1,177,172,174,-1,179,175,178,-1,178,175,173,-1,178,173,145,-1,145,173,170,-1,145,170,147,-1,147,170,168,-1,147,168,149,-1,149,168,166,-1,149,166,151,-1,151,166,164,-1,151,164,153,-1,153,164,162,-1,153,162,155,-1,155,162,160,-1,155,160,157,-1,157,160,159,-1,180,181,182,-1,182,181,183,-1,182,183,184,-1,184,183,185,-1,184,185,186,-1,186,185,187,-1,186,187,188,-1,188,187,189,-1,188,189,190,-1,190,189,191,-1,190,191,192,-1,192,191,193,-1,194,192,195,-1,195,192,193,-1,194,195,196,-1,194,196,197,-1,197,196,198,-1,197,198,199,-1,199,198,200,-1,199,200,201,-1,201,200,202,-1,201,202,203,-1,203,202,204,-1,203,204,205,-1,205,204,206,-1,205,206,207,-1,208,207,209,-1,209,207,206,-1,210,208,211,-1,211,208,209,-1,212,213,214,-1,214,213,215,-1,180,212,181,-1,181,212,214,-1,192,194,190,-1,190,194,197,-1,190,197,188,-1,188,197,199,-1,188,199,186,-1,186,199,201,-1,186,201,184,-1,184,201,203,-1,184,203,182,-1,182,203,205,-1,182,205,180,-1,180,205,207,-1,180,207,212,-1,212,207,208,-1,212,208,213,-1,213,208,210,-1,215,211,214,-1,214,211,209,-1,214,209,181,-1,181,209,206,-1,181,206,183,-1,183,206,204,-1,183,204,185,-1,185,204,202,-1,185,202,187,-1,187,202,200,-1,187,200,189,-1,189,200,198,-1,189,198,191,-1,191,198,196,-1,191,196,193,-1,193,196,195,-1,
        ]
    }
}
Shape{
    appearance Appearance {
        material  Material 	{
            diffuseColor 1.0 1.0 1.0
            specularColor 0.8784313725490196 0.8784313725490196 0.8784313725490196
            ambientIntensity 1.0
            transparency 0.0
            shininess 0.5
        }
    }
    geometry IndexedFaceSet {
        ccw TRUE
        solid FALSE
        coord DEF co Coordinate {
            point [
                -0.6674 -0.3006 0.0079, -0.821 -0.6943 0.0079, -0.6674 -0.3006 0.0, -0.821 -0.6943 0.0, -0.7634 -0.6943 0.0079, -0.7634 -0.6943 0.0, -0.7236 -0.5839 0.0079, -0.7236 -0.5839 0.0, -0.5609 -0.5839 0.0079, -0.5609 -0.5839 0.0, -0.5233 -0.6943 0.0079, -0.5233 -0.6943 0.0, -0.4657 -0.6943 0.0079, -0.4657 -0.6943 0.0, -0.6146 -0.3006 0.0079, -0.6146 -0.3006 0.0
            ]
        }
        coordIndex [
            0,1,2,-1,2,1,3,-1,1,4,3,-1,3,4,5,-1,4,6,5,-1,5,6,7,-1,6,8,7,-1,7,8,9,-1,8,10,9,-1,9,10,11,-1,10,12,11,-1,11,12,13,-1,12,14,13,-1,13,14,15,-1,14,0,15,-1,15,0,2,-1,
        ]
    }
}
Shape{
    appearance Appearance {
        material  Material 	{
            diffuseColor 0.6666666666666666 0.6666666666666666 0.6666666666666666
            specularColor 0.4666666666666667 0.4666666666666667 0.4666666666666667
            ambientIntensity 0.6667
            transparency 0.0
            shininess 0.5
        }
    }
    geometry IndexedFaceSet {
        ccw TRUE
        solid FALSE
        coord DEF co Coordinate {
            point [
                -0.5742 -0.5407 0.0079, -0.5609 -0.5839 0.0079, -0.7059 -0.5407 0.0079, -0.7236 -0.5839 0.0079, -0.6329 -0.3762 0.0079, -0.6146 -0.3006 0.0079, -0.4657 -0.6943 0.0079, -0.5233 -0.6943 0.0079, -0.6367 -0.3626 0.0079, -0.6392 -0.3486 0.0079, -0.6674 -0.3006 0.0079, -0.6405 -0.3486 0.0079, -0.6431 -0.3625 0.0079, -0.6466 -0.3762 0.0079, -0.821 -0.6943 0.0079, -0.7634 -0.6943 0.0079, -0.5742 -0.5407 0.0, -0.7059 -0.5407 0.0, -0.6329 -0.3762 0.0, -0.6367 -0.3626 0.0, -0.6392 -0.3486 0.0, -0.6405 -0.3486 0.0, -0.6431 -0.3625 0.0, -0.6466 -0.3762 0.0, -0.2271 -0.6943 0.0, -0.2271 -0.6943 0.0079, -0.1565 -0.6943 0.0, -0.12 -0.6943 0.0079, -0.12 -0.6943 0.0, -0.12 -0.3006 0.0079, -0.12 -0.3006 0.0, -0.1565 -0.3006 0.0, -0.2311 -0.3006 0.0079, -0.2311 -0.3006 0.0, -0.4369 -0.4925 0.0079, -0.4369 -0.4925 0.0, -0.4341 -0.4555 0.0, -0.4341 -0.4555 0.0079, -0.4235 -0.4167 0.0, -0.4235 -0.4167 0.0079, -0.4052 -0.3828 0.0, -0.4052 -0.3828 0.0079, -0.3773 -0.3519 0.0, -0.3773 -0.3519 0.0079, -0.3769 -0.3516 0.0, -0.3769 -0.3516 0.0079, -0.3341 -0.3229 0.0, -0.3341 -0.3229 0.0079, -0.288 -0.3067 0.0, -0.288 -0.3067 0.0079, -0.2758 -0.6901 0.0, -0.2758 -0.6901 0.0079, -0.3212 -0.6765 0.0, -0.3212 -0.6765 0.0079, -0.3623 -0.6526 0.0, -0.3623 -0.6526 0.0079, -0.3947 -0.6216 0.0, -0.3947 -0.6216 0.0079, -0.4173 -0.5864 0.0, -0.4173 -0.5864 0.0079, -0.4314 -0.5452 0.0, -0.4314 -0.5452 0.0079, -0.3579 -0.399 0.0079, -0.3388 -0.3787 0.0079, -0.31 -0.3601 0.0079, -0.2775 -0.3488 0.0079, -0.2309 -0.3438 0.0079, -0.1728 -0.3438 0.0079, -0.1728 -0.6511 0.0079, -0.2287 -0.6511 0.0079, -0.2703 -0.6472 0.0079, -0.3034 -0.6369 0.0079, -0.3302 -0.6209 0.0079, -0.3523 -0.5991 0.0079, -0.3689 -0.572 0.0079, -0.3805 -0.535 0.0079, -0.3841 -0.4936 0.0079, -0.3808 -0.4545 0.0079, -0.3716 -0.4233 0.0079, -0.2309 -0.3438 0.0, -0.1728 -0.3438 0.0, -0.2775 -0.3488 0.0, -0.31 -0.3601 0.0, -0.3388 -0.3787 0.0, -0.3579 -0.399 0.0, -0.3716 -0.4233 0.0, -0.3808 -0.4545 0.0, -0.3841 -0.4936 0.0, -0.3805 -0.535 0.0, -0.3689 -0.572 0.0, -0.3523 -0.5991 0.0, -0.3302 -0.6209 0.0, -0.3034 -0.6369 0.0, -0.2703 -0.6472 0.0, -0.2287 -0.6511 0.0, -0.1728 -0.6511 0.0, -0.0432 -0.6511 0.0079, -0.0432 -0.6943 0.0079, -0.0432 -0.6511 0.0, -0.0432 -0.6943 0.0, 0.168 -0.6943 0.0079, 0.168 -0.6943 0.0, 0.168 -0.3006 0.0079, 0.168 -0.3006 0.0, -0.0336 -0.3006 0.0079, -0.0336 -0.3006 0.0, -0.0336 -0.3438 0.0079, -0.0336 -0.3438 0.0, 0.1152 -0.3438 0.0079, 0.1152 -0.3438 0.0
            ]
        }
        coordIndex [
            0,1,2,-1,2,1,3,-1,4,5,0,-1,0,5,6,-1,0,6,1,-1,1,6,7,-1,4,8,5,-1,5,8,9,-1,5,9,10,-1,10,9,11,-1,10,11,12,-1,12,13,10,-1,10,13,2,-1,10,2,14,-1,14,2,3,-1,14,3,15,-1,0,2,16,-1,16,2,17,-1,4,0,18,-1,18,0,16,-1,4,18,19,-1,4,19,8,-1,8,19,20,-1,8,20,9,-1,11,9,21,-1,21,9,20,-1,11,21,22,-1,11,22,12,-1,12,22,23,-1,12,23,13,-1,2,13,17,-1,17,13,23,-1,24,25,26,-1,26,25,27,-1,26,27,28,-1,27,29,28,-1,28,29,30,-1,30,29,31,-1,31,29,32,-1,31,32,33,-1,34,35,36,-1,34,36,37,-1,37,36,38,-1,37,38,39,-1,39,38,40,-1,39,40,41,-1,41,40,42,-1,41,42,43,-1,43,42,44,-1,43,44,45,-1,45,44,46,-1,45,46,47,-1,47,46,48,-1,47,48,49,-1,49,48,33,-1,49,33,32,-1,25,24,50,-1,25,50,51,-1,51,50,52,-1,51,52,53,-1,53,52,54,-1,53,54,55,-1,55,54,56,-1,55,56,57,-1,57,56,58,-1,57,58,59,-1,59,58,60,-1,59,60,61,-1,61,60,35,-1,61,35,34,-1,39,41,62,-1,62,41,43,-1,62,43,63,-1,63,43,45,-1,63,45,64,-1,64,45,47,-1,64,47,65,-1,65,47,49,-1,65,49,66,-1,66,49,32,-1,66,32,67,-1,67,32,29,-1,67,29,68,-1,68,29,27,-1,68,27,69,-1,69,27,25,-1,69,25,70,-1,70,25,51,-1,70,51,71,-1,71,51,53,-1,71,53,72,-1,72,53,55,-1,72,55,73,-1,73,55,57,-1,73,57,74,-1,74,57,59,-1,74,59,75,-1,75,59,61,-1,75,61,76,-1,76,61,34,-1,76,34,77,-1,77,34,37,-1,77,37,78,-1,78,37,39,-1,78,39,62,-1,66,67,79,-1,79,67,80,-1,66,79,81,-1,66,81,65,-1,65,81,82,-1,65,82,64,-1,64,82,83,-1,64,83,63,-1,63,83,84,-1,63,84,62,-1,62,84,85,-1,62,85,78,-1,78,85,86,-1,78,86,77,-1,77,86,87,-1,77,87,76,-1,76,87,88,-1,76,88,75,-1,75,88,89,-1,75,89,74,-1,74,89,90,-1,74,90,73,-1,73,90,91,-1,73,91,72,-1,72,91,92,-1,72,92,71,-1,71,92,93,-1,71,93,70,-1,70,93,94,-1,70,94,69,-1,68,69,95,-1,95,69,94,-1,67,68,80,-1,80,68,95,-1,96,97,98,-1,98,97,99,-1,97,100,99,-1,99,100,101,-1,100,102,101,-1,101,102,103,-1,102,104,103,-1,103,104,105,-1,104,106,105,-1,105,106,107,-1,106,108,107,-1,107,108,109,-1,
        ]
    }
}
Shape{
    appearance Appearance {
        material  Material 	{
            diffuseColor 1.0 1.0 1.0
            specularColor 0.8784313725490196 0.8784313725490196 0.8784313725490196
            ambientIntensity 1.0
            transparency 0.0
            shininess 0.5
        }
    }
    geometry IndexedFaceSet {
        ccw TRUE
        solid FALSE
        coord DEF co Coordinate {
            point [
                0.1152 -0.3438 0.0079, 0.1152 -0.4735 0.0079, 0.1152 -0.3438 0.0, 0.1152 -0.4735 0.0, -0.024 -0.4735 0.0079, -0.024 -0.4735 0.0, -0.024 -0.5167 0.0079, -0.024 -0.5167 0.0, 0.1152 -0.5167 0.0079, 0.1152 -0.5167 0.0, 0.1152 -0.6511 0.0079, 0.1152 -0.6511 0.0, -0.0432 -0.6511 0.0079, -0.0432 -0.6511 0.0, 0.168 -0.6943 0.0079, -0.0432 -0.6943 0.0079, 0.168 -0.3006 0.0079, -0.0336 -0.3438 0.0079, -0.0336 -0.3006 0.0079, 0.2449 -0.6307 0.0079, 0.2449 -0.6739 0.0079, 0.2449 -0.6307 0.0, 0.2449 -0.6739 0.0, 0.3532 -0.6991 0.0079, 0.3532 -0.6991 0.0, 0.3424 -0.6989 0.0, 0.3424 -0.6989 0.0079, 0.3266 -0.6967 0.0, 0.2868 -0.6911 0.0079, 0.2701 -0.6843 0.0, 0.2868 -0.6911 0.0, 0.5377 -0.5049 0.0079, 0.5377 -0.5049 0.0, 0.5339 -0.5505 0.0, 0.5339 -0.5505 0.0079, 0.5221 -0.5922 0.0, 0.5221 -0.5922 0.0079, 0.5011 -0.6296 0.0, 0.5011 -0.6296 0.0079, 0.4715 -0.6607 0.0, 0.4715 -0.6607 0.0079, 0.4399 -0.6809 0.0, 0.4399 -0.6809 0.0079, 0.4017 -0.6941 0.0, 0.4017 -0.6941 0.0079, 0.3763 -0.6967 0.0, 0.3375 -0.2958 0.0079, 0.3375 -0.2958 0.0, 0.3771 -0.299 0.0079, 0.3669 -0.2982 0.0, 0.3771 -0.299 0.0, 0.4209 -0.3118 0.0, 0.4209 -0.3118 0.0079, 0.4583 -0.3333 0.0, 0.4583 -0.3333 0.0079, 0.4939 -0.3675 0.0, 0.4939 -0.3675 0.0079, 0.517 -0.4043 0.0, 0.517 -0.4043 0.0079, 0.5321 -0.4489 0.0, 0.5321 -0.4489 0.0079, 0.2449 -0.3114 0.0079, 0.2449 -0.3114 0.0, 0.2904 -0.2991 0.0079, 0.2701 -0.3046 0.0, 0.3027 -0.2982 0.0, 0.2904 -0.2991 0.0, 0.2449 -0.3642 0.0079, 0.2449 -0.3642 0.0, 0.2701 -0.3534 0.0, 0.2892 -0.3452 0.0079, 0.2892 -0.3452 0.0, 0.3371 -0.339 0.0079, 0.3371 -0.339 0.0, 0.4849 -0.5017 0.0079, 0.4849 -0.5017 0.0, 0.483 -0.471 0.0, 0.483 -0.471 0.0079, 0.4726 -0.4289 0.0, 0.4726 -0.4289 0.0079, 0.4563 -0.3985 0.0, 0.4563 -0.3985 0.0079, 0.4325 -0.3722 0.0, 0.4325 -0.3722 0.0079, 0.4053 -0.354 0.0, 0.4053 -0.354 0.0079, 0.3758 -0.3434 0.0, 0.3758 -0.3434 0.0079, 0.3459 -0.6559 0.0079, 0.3459 -0.6559 0.0, 0.3826 -0.6518 0.0, 0.3826 -0.6518 0.0079, 0.4113 -0.6412 0.0, 0.4113 -0.6412 0.0079, 0.4355 -0.6249 0.0, 0.4355 -0.6249 0.0079, 0.454 -0.6054 0.0, 0.454 -0.6054 0.0079, 0.4702 -0.5781 0.0, 0.4702 -0.5781 0.0079, 0.4809 -0.5443 0.0, 0.4809 -0.5443 0.0079, 0.2937 -0.6501 0.0079, 0.2519 -0.6346 0.0, 0.2519 -0.6346 0.0079, 0.2701 -0.6413 0.0, 0.2937 -0.6501 0.0, 0.5713 -0.6511 0.0079, 0.5713 -0.6943 0.0079, 0.5713 -0.6511 0.0, 0.5713 -0.6943 0.0, 0.773 -0.6943 0.0079, 0.773 -0.6943 0.0, 0.773 -0.3006 0.0079, 0.773 -0.3006 0.0, 0.7202 -0.3006 0.0079, 0.7202 -0.3006 0.0, 0.7202 -0.6511 0.0079, 0.7202 -0.6511 0.0
            ]
        }
        coordIndex [
            0,1,2,-1,2,1,3,-1,1,4,3,-1,3,4,5,-1,4,6,5,-1,5,6,7,-1,6,8,7,-1,7,8,9,-1,8,10,9,-1,9,10,11,-1,10,12,11,-1,11,12,13,-1,14,15,12,-1,12,10,14,-1,14,10,8,-1,14,8,16,-1,17,18,0,-1,0,18,16,-1,0,16,1,-1,1,16,8,-1,1,8,4,-1,4,8,6,-1,19,20,21,-1,21,20,22,-1,23,24,25,-1,23,25,26,-1,26,25,27,-1,26,27,28,-1,22,20,29,-1,29,20,28,-1,29,28,30,-1,30,28,27,-1,31,32,33,-1,31,33,34,-1,34,33,35,-1,34,35,36,-1,36,35,37,-1,36,37,38,-1,38,37,39,-1,38,39,40,-1,40,39,41,-1,40,41,42,-1,42,41,43,-1,42,43,44,-1,44,43,23,-1,23,43,45,-1,23,45,24,-1,46,47,48,-1,48,47,49,-1,49,50,48,-1,48,50,51,-1,48,51,52,-1,52,51,53,-1,52,53,54,-1,54,53,55,-1,54,55,56,-1,56,55,57,-1,56,57,58,-1,58,57,59,-1,58,59,60,-1,60,59,32,-1,60,32,31,-1,61,62,63,-1,63,62,64,-1,47,46,65,-1,65,46,63,-1,65,63,66,-1,66,63,64,-1,61,67,62,-1,62,67,68,-1,68,67,69,-1,69,67,70,-1,69,70,71,-1,71,70,72,-1,71,72,73,-1,74,75,76,-1,74,76,77,-1,77,76,78,-1,77,78,79,-1,79,78,80,-1,79,80,81,-1,81,80,82,-1,81,82,83,-1,83,82,84,-1,83,84,85,-1,85,84,86,-1,85,86,87,-1,87,86,73,-1,87,73,72,-1,88,89,90,-1,88,90,91,-1,91,90,92,-1,91,92,93,-1,93,92,94,-1,93,94,95,-1,95,94,96,-1,95,96,97,-1,97,96,98,-1,97,98,99,-1,99,98,100,-1,99,100,101,-1,101,100,75,-1,101,75,74,-1,89,88,102,-1,19,21,103,-1,19,103,104,-1,104,103,105,-1,104,105,102,-1,102,105,106,-1,102,106,89,-1,91,23,88,-1,88,23,26,-1,88,26,102,-1,102,26,28,-1,102,28,104,-1,104,28,20,-1,104,20,19,-1,67,61,70,-1,70,61,63,-1,70,63,72,-1,72,63,46,-1,72,46,87,-1,87,46,48,-1,87,48,85,-1,85,48,52,-1,85,52,83,-1,83,52,54,-1,83,54,81,-1,81,54,56,-1,81,56,79,-1,79,56,58,-1,79,58,77,-1,77,58,60,-1,77,60,74,-1,74,60,31,-1,74,31,101,-1,101,31,34,-1,101,34,99,-1,99,34,36,-1,99,36,97,-1,97,36,38,-1,97,38,95,-1,95,38,40,-1,95,40,93,-1,93,40,42,-1,93,42,91,-1,91,42,44,-1,91,44,23,-1,107,108,109,-1,109,108,110,-1,108,111,110,-1,110,111,112,-1,111,113,112,-1,112,113,114,-1,113,115,114,-1,114,115,116,-1,115,117,116,-1,116,117,118,-1,117,107,118,-1,118,107,109,-1,115,113,117,-1,117,113,111,-1,117,111,107,-1,107,111,108,-1,
        ]
    }
}
Shape{
    appearance Appearance {
        material  Material 	{
            diffuseColor 0.20784313725490197 0.20784313725490197 0.20784313725490197
            specularColor 0.01568627450980392 0.01568627450980392 0.01568627450980392
            ambientIntensity 0.298
            transparency 0.0
            shininess 0.5
        }
    }
    geometry IndexedFaceSet {
        ccw TRUE
        solid FALSE
        coord DEF co Coordinate {
            point [
                -0.5742 -0.5407 0.0, -0.7059 -0.5407 0.0, -0.6329 -0.3762 0.0, -0.6466 -0.3762 0.0, -0.6367 -0.3626 0.0, -0.6431 -0.3625 0.0, -0.6392 -0.3486 0.0, -0.6405 -0.3486 0.0, -0.1728 -0.3438 0.0, -0.1728 -0.6511 0.0, -0.2309 -0.3438 0.0, -0.2287 -0.6511 0.0, -0.2703 -0.6472 0.0, -0.3841 -0.4936 0.0, -0.3808 -0.4545 0.0, -0.3716 -0.4233 0.0, -0.2775 -0.3488 0.0, -0.3034 -0.6369 0.0, -0.3302 -0.6209 0.0, -0.3523 -0.5991 0.0, -0.3689 -0.572 0.0, -0.3805 -0.535 0.0, -0.3579 -0.399 0.0, -0.3388 -0.3787 0.0, -0.31 -0.3601 0.0
            ]
        }
        coordIndex [
            0,1,2,-1,2,1,3,-1,2,3,4,-1,4,3,5,-1,4,5,6,-1,6,5,7,-1,8,9,10,-1,10,9,11,-1,10,11,12,-1,13,14,10,-1,10,14,15,-1,10,15,16,-1,12,17,10,-1,10,17,18,-1,10,18,19,-1,19,20,10,-1,10,20,21,-1,10,21,13,-1,22,23,15,-1,15,23,24,-1,15,24,16,-1,
        ]
    }
}