#VRML V2.0 utf8
# dimensioned envelope box 9.6x12.5x1.37 mm (Task 14b; not a detailed body model)
Shape {
  appearance Appearance { material Material { diffuseColor 0.72 0.72 0.75 specularColor 0.3 0.3 0.3 shininess 0.6 } }
  geometry IndexedFaceSet {
    coord Coordinate { point [ -2.0276 -3.9173 0, 1.7520 -3.9173 0, 1.7520 1.0039 0, -2.0276 1.0039 0, -2.0276 -3.9173 0.5394, 1.7520 -3.9173 0.5394, 1.7520 1.0039 0.5394, -2.0276 1.0039 0.5394 ] }
    coordIndex [ 0 3 2 1 -1, 4 5 6 7 -1, 0 1 5 4 -1, 1 2 6 5 -1, 2 3 7 6 -1, 3 0 4 7 -1 ]
  }
}
