#VRML V2.0 utf8
# dimensioned envelope box 21.8x16.6x11.43 mm (Task 14b; not a detailed body model)
Shape {
  appearance Appearance { material Material { diffuseColor 0.3 0.3 0.32 specularColor 0.2 0.2 0.2 shininess 0.5 } }
  geometry IndexedFaceSet {
    coord Coordinate { point [ -4.291338582677166 -3.2677165354330713 0, 4.291338582677166 -3.2677165354330713 0, 4.291338582677166 3.2677165354330713 0, -4.291338582677166 3.2677165354330713 0, -4.291338582677166 -3.2677165354330713 4.5, 4.291338582677166 -3.2677165354330713 4.5, 4.291338582677166 3.2677165354330713 4.5, -4.291338582677166 3.2677165354330713 4.5 ] }
    coordIndex [ 0 3 2 1 -1, 4 5 6 7 -1, 0 1 5 4 -1, 1 2 6 5 -1, 2 3 7 6 -1, 3 0 4 7 -1 ]
  }
}
