#VRML V2.0 utf8
# 3D model generated by easyeda2kicad.py (https://github.com/uPesy/easyeda2kicad.py)

Shape{
    appearance Appearance {
        material  Material 	{
            diffuseColor 1.0 1.0 1.0
            specularColor 0.5019607843137255 0.5019607843137255 0.5019607843137255
            ambientIntensity 1.0
            transparency 0.0
            shininess 0.5
        }
    }
    geometry IndexedFaceSet {
        ccw TRUE
        solid FALSE
        coord DEF co Coordinate {
            point [
                0.073 -0.2166 0.0, 0.0793 -0.2174 0.0, -0.0903 -0.6988 0.0, 0.0836 -0.2175 0.0, 0.0929 -0.2166 0.0, 0.6102 -0.6988 0.0, -0.0903 0.6988 0.0, -0.075 -0.1983 0.0, -0.0903 -0.2166 0.0, -0.075 -0.2156 0.0, 0.0095 -0.2156 0.0, -0.0711 -0.0754 0.0, -0.0116 -0.0754 0.0, -0.0116 -0.1273 0.0, 0.0403 -0.2074 0.0, 0.0403 -0.1901 0.0, 0.0095 -0.0581 0.0, -0.0116 -0.1445 0.0, -0.0116 -0.1983 0.0, -0.0673 -0.1445 0.0, -0.0673 -0.1273 0.0, 0.2515 -0.2156 0.0, 0.1709 -0.2156 0.0, 0.103 -0.2155 0.0, 0.1183 -0.2103 0.0, -0.0711 -0.0581 0.0, 0.1491 -0.0996 0.0, 0.1399 -0.0849 0.0, 0.2304 -0.0581 0.0, 0.0927 -0.0752 0.0, 0.1044 -0.0795 0.0, 0.0431 -0.1917 0.0, 0.1153 -0.0868 0.0, 0.1248 -0.0973 0.0, 0.1363 -0.1385 0.0, 0.1347 -0.1556 0.0, 0.1304 -0.1691 0.0, 0.0954 -0.1986 0.0, 0.0807 -0.2002 0.0, 0.1068 -0.1944 0.0, 0.1165 -0.1878 0.0, 0.1239 -0.18 0.0, 0.0598 -0.1979 0.0, 0.1313 -0.1094 0.0, 0.1355 -0.1263 0.0, 0.1257 -0.0712 0.0, 0.2515 -0.0581 0.0, 0.7677 0.6988 0.0, 0.7677 -0.2166 0.0, 0.7677 -0.5413 0.0, 0.1309 -0.2022 0.0, 0.1428 -0.1897 0.0, 0.1709 -0.1983 0.0, 0.1512 -0.1747 0.0, 0.2304 -0.1983 0.0, 0.1559 -0.1581 0.0, 0.1574 -0.1398 0.0, 0.1552 -0.1174 0.0, 0.1107 -0.0626 0.0, 0.0931 -0.0575 0.0, 0.0773 -0.0562 0.0, 0.0585 -0.0575 0.0, 0.0403 -0.0624 0.0, 0.0403 -0.0836 0.0, 0.058 -0.076 0.0, 0.0771 -0.0735 0.0, -0.7677 -0.6988 0.0, -0.7677 -0.2166 0.0, 0.0571 -0.2143 0.0, -0.244 -0.2156 0.0, -0.2246 -0.1724 0.0, -0.2155 -0.1865 0.0, -0.363 -0.2156 0.0, -0.3861 -0.2156 0.0, -0.3246 -0.0581 0.0, -0.7677 0.6988 0.0, -0.3035 -0.0581 0.0, -0.2026 -0.1989 0.0, -0.1861 -0.2085 0.0, -0.168 -0.2139 0.0, -0.1485 -0.2156 0.0, -0.1057 -0.2156 0.0, -0.1057 -0.0581 0.0, -0.1501 -0.0581 0.0, -0.2086 -0.0786 0.0, -0.2198 -0.091 0.0, -0.2271 -0.1045 0.0, -0.1729 -0.0605 0.0, -0.1913 -0.067 0.0, -0.2085 -0.0785 0.0, -0.267 -0.2156 0.0, -0.282 -0.1714 0.0, -0.3471 -0.1714 0.0, -0.2313 -0.1201 0.0, -0.2324 -0.1349 0.0, -0.2302 -0.156 0.0
            ]
        }
        coordIndex [
            0,1,2,-1,1,3,2,-1,2,3,4,-1,2,4,5,-1,6,7,8,-1,8,7,9,-1,8,9,10,-1,11,12,13,-1,14,10,15,-1,15,10,16,-1,17,18,19,-1,19,18,7,-1,19,7,20,-1,21,4,22,-1,22,4,23,-1,22,23,24,-1,13,20,11,-1,11,20,7,-1,11,7,25,-1,25,7,6,-1,25,6,16,-1,26,27,28,-1,29,30,31,-1,31,30,32,-1,31,32,33,-1,34,35,31,-1,31,35,36,-1,37,38,39,-1,39,38,40,-1,36,41,31,-1,31,41,40,-1,31,40,42,-1,42,40,38,-1,33,43,31,-1,31,43,44,-1,31,44,34,-1,27,45,28,-1,28,45,6,-1,28,6,46,-1,46,6,47,-1,46,47,21,-1,21,47,48,-1,21,48,4,-1,4,48,49,-1,4,49,5,-1,24,50,22,-1,22,50,51,-1,22,51,52,-1,52,51,53,-1,52,53,54,-1,53,55,54,-1,54,55,56,-1,54,56,28,-1,28,56,57,-1,28,57,26,-1,45,58,6,-1,6,58,59,-1,6,59,60,-1,60,61,6,-1,6,61,62,-1,6,62,16,-1,16,62,63,-1,16,63,15,-1,15,63,64,-1,15,64,31,-1,31,64,65,-1,31,65,29,-1,66,67,2,-1,2,67,8,-1,2,8,0,-1,0,8,10,-1,0,10,68,-1,68,10,14,-1,69,70,71,-1,72,8,73,-1,73,8,67,-1,73,67,74,-1,74,67,75,-1,74,75,76,-1,76,75,6,-1,71,77,69,-1,69,77,78,-1,69,78,79,-1,80,81,8,-1,8,81,82,-1,8,82,6,-1,6,82,83,-1,84,85,76,-1,76,85,86,-1,83,87,6,-1,6,87,88,-1,6,88,76,-1,76,88,89,-1,76,89,84,-1,79,80,69,-1,69,80,8,-1,69,8,90,-1,90,8,72,-1,90,72,91,-1,91,72,92,-1,86,93,76,-1,76,93,94,-1,76,94,69,-1,69,94,95,-1,69,95,70,-1,
        ]
    }
}
Shape{
    appearance Appearance {
        material  Material 	{
            diffuseColor 0.25098039215686274 0.25098039215686274 0.25098039215686274
            specularColor 0.12549019607843137 0.12549019607843137 0.12549019607843137
            ambientIntensity 0.251
            transparency 0.0
            shininess 0.5
        }
    }
    geometry IndexedFaceSet {
        ccw TRUE
        solid FALSE
        coord DEF co Coordinate {
            point [
                0.9843 1.1811 0.3031, 0.9843 -1.1811 0.3031, 0.9843 1.1811 0.0079, 0.9843 -1.1811 0.0079, 0.8287 1.1811 0.0079, 0.8287 1.1811 0.0866, 0.6713 1.1811 0.0866, -0.9843 1.1811 0.3031, 0.1713 1.1811 0.0866, 0.1713 1.1811 0.0079, -0.1713 1.1811 0.0079, -0.1713 1.1811 0.0866, -0.3287 1.1811 0.0866, 0.3287 1.1811 0.0866, 0.3287 1.1811 0.0079, 0.6713 1.1811 0.0079, -0.8287 1.1811 0.0079, -0.9843 1.1811 0.0079, -0.8287 1.1811 0.0866, -0.6713 1.1811 0.0866, -0.6713 1.1811 0.0079, -0.3287 1.1811 0.0079, -0.9843 -1.1811 0.3031, -0.9843 -1.1811 0.0079, -0.8287 -1.1811 0.0079, -0.8287 -1.1811 0.0866, -0.6713 -1.1811 0.0866, -0.1713 -1.1811 0.0866, -0.1713 -1.1811 0.0079, 0.1713 -1.1811 0.0079, 0.1713 -1.1811 0.0866, 0.3287 -1.1811 0.0866, -0.3287 -1.1811 0.0866, -0.3287 -1.1811 0.0079, -0.6713 -1.1811 0.0079, 0.8287 -1.1811 0.0079, 0.8287 -1.1811 0.0866, 0.6713 -1.1811 0.0866, 0.6713 -1.1811 0.0079, 0.3287 -1.1811 0.0079, -0.6767 -0.9298 0.3031, -0.6791 -0.9481 0.3031, -0.6862 -0.9652 0.3031, -0.6975 -0.9798 0.3031, -0.7658 -0.8615 0.3031, -0.7829 -0.8685 0.3031, -0.7975 -0.8798 0.3031, -0.7475 -0.8591 0.3031, -0.7292 -0.8615 0.3031, -0.7121 -0.8685 0.3031, -0.7658 -0.9982 0.3031, -0.7829 -0.9911 0.3031, -0.7975 -0.9798 0.3031, -0.8088 -0.9652 0.3031, -0.8158 -0.9481 0.3031, -0.6975 -0.8798 0.3031, -0.6862 -0.8944 0.3031, -0.6791 -0.9115 0.3031, -0.7121 -0.9911 0.3031, -0.7292 -0.9982 0.3031, -0.7475 -1.0006 0.3031, -0.8182 -0.9298 0.3031, -0.8158 -0.9115 0.3031, -0.8088 -0.8944 0.3031, 0.2106 -0.9987 0.0079, 0.1943 -1.0113 0.0079, -0.7677 -0.6988 0.0079, 0.8261 -1.0465 0.0079, 0.8287 -1.0669 0.0079, -0.7106 0.9987 0.0079, -0.6943 1.0113 0.0079, -0.25 0.9882 0.0079, 0.8182 1.0276 0.0079, 0.8261 1.0465 0.0079, 0.8287 1.0669 0.0079, -0.8261 1.0465 0.0079, -0.8287 1.0669 0.0079, -0.8182 1.0276 0.0079, -0.8057 1.0113 0.0079, -0.7677 0.6988 0.0079, -0.7894 0.9987 0.0079, -0.7704 0.9909 0.0079, 0.7677 0.6988 0.0079, 0.7894 0.9987 0.0079, 0.8057 1.0113 0.0079, -0.2704 -0.9909 0.0079, -0.2894 -0.9987 0.0079, -0.3057 -1.0113 0.0079, -0.3182 -1.0276 0.0079, -0.7296 -0.9909 0.0079, -0.75 -0.9882 0.0079, 0.8182 -1.0276 0.0079, 0.8057 -1.0113 0.0079, 0.7677 -0.5413 0.0079, 0.7894 -0.9987 0.0079, 0.7704 -0.9909 0.0079, 0.75 -0.9882 0.0079, 0.6102 -0.6988 0.0079, -0.75 0.9882 0.0079, -0.7296 0.9909 0.0079, 0.6739 1.0465 0.0079, 0.3057 1.0113 0.0079, 0.3182 1.0276 0.0079, 0.7296 0.9909 0.0079, 0.75 0.9882 0.0079, 0.7704 0.9909 0.0079, -0.1943 -1.0113 0.0079, -0.1818 -1.0276 0.0079, 0.1818 -1.0276 0.0079, -0.1739 -1.0465 0.0079, -0.8182 -1.0276 0.0079, -0.8261 -1.0465 0.0079, -0.8287 -1.0669 0.0079, -0.2296 0.9909 0.0079, 0.2296 0.9909 0.0079, -0.1818 1.0276 0.0079, 0.1739 1.0465 0.0079, -0.1943 1.0113 0.0079, 0.1818 1.0276 0.0079, 0.1943 1.0113 0.0079, 0.6818 1.0276 0.0079, 0.6943 1.0113 0.0079, 0.7106 0.9987 0.0079, 0.3261 -1.0465 0.0079, 0.3182 -1.0276 0.0079, 0.3057 -1.0113 0.0079, 0.2894 -0.9987 0.0079, 0.2704 -0.9909 0.0079, 0.25 -0.9882 0.0079, 0.2296 -0.9909 0.0079, -0.7704 -0.9909 0.0079, -0.7894 -0.9987 0.0079, -0.8057 -1.0113 0.0079, -0.6818 1.0276 0.0079, -0.3261 1.0465 0.0079, -0.3182 1.0276 0.0079, -0.3057 1.0113 0.0079, -0.2106 0.9987 0.0079, 0.2106 0.9987 0.0079, 0.7296 -0.9909 0.0079, 0.7106 -0.9987 0.0079, 0.6943 -1.0113 0.0079, 0.6818 -1.0276 0.0079, -0.2106 -0.9987 0.0079, -0.2296 -0.9909 0.0079, -0.25 -0.9882 0.0079, -0.3287 -1.0669 0.0079, -0.6739 -1.0465 0.0079, -0.6818 -1.0276 0.0079, -0.6943 -1.0113 0.0079, -0.7106 -0.9987 0.0079, -0.6713 1.0669 0.0079, -0.2894 0.9987 0.0079, -0.2704 0.9909 0.0079, -0.1713 1.0669 0.0079, 0.25 0.9882 0.0079, 0.2704 0.9909 0.0079, 0.2894 0.9987 0.0079, 0.3287 1.0669 0.0079, -0.3261 -1.0465 0.0079, -0.6713 -1.0669 0.0079, -0.6739 1.0465 0.0079, -0.3287 1.0669 0.0079, -0.1739 1.0465 0.0079, 0.1713 1.0669 0.0079, 0.3261 1.0465 0.0079, 0.6713 1.0669 0.0079, 0.6713 -1.0669 0.0079, 0.1713 -1.0669 0.0079, 0.6739 -1.0465 0.0079, 0.3287 -1.0669 0.0079, 0.1739 -1.0465 0.0079, -0.1713 -1.0669 0.0079
            ]
        }
        coordIndex [
            0,1,2,-1,2,1,3,-1,0,2,4,-1,4,5,0,-1,0,5,6,-1,0,6,7,-1,8,9,10,-1,11,12,7,-1,10,11,8,-1,8,11,7,-1,8,7,13,-1,13,7,6,-1,13,6,14,-1,14,6,15,-1,16,17,18,-1,18,17,7,-1,18,7,19,-1,19,7,12,-1,19,12,20,-1,20,12,21,-1,22,7,23,-1,23,7,17,-1,22,23,24,-1,24,25,22,-1,22,25,26,-1,22,26,1,-1,27,28,29,-1,30,31,1,-1,29,30,27,-1,27,30,1,-1,27,1,32,-1,32,1,26,-1,32,26,33,-1,33,26,34,-1,35,3,36,-1,36,3,1,-1,36,1,37,-1,37,1,31,-1,37,31,38,-1,38,31,39,-1,40,41,1,-1,1,41,42,-1,1,42,43,-1,44,7,45,-1,45,7,46,-1,44,47,7,-1,7,47,48,-1,7,48,0,-1,0,48,49,-1,50,51,22,-1,51,52,22,-1,22,52,53,-1,22,53,54,-1,49,55,0,-1,0,55,56,-1,0,56,1,-1,1,56,57,-1,1,57,40,-1,43,58,1,-1,1,58,59,-1,1,59,22,-1,22,59,60,-1,22,60,50,-1,54,61,22,-1,22,61,62,-1,22,62,7,-1,7,62,63,-1,7,63,46,-1,64,65,66,-1,67,3,68,-1,68,3,35,-1,69,70,71,-1,72,73,2,-1,2,73,74,-1,2,74,4,-1,75,17,76,-1,76,17,16,-1,77,78,79,-1,79,78,80,-1,79,80,81,-1,82,83,84,-1,85,86,66,-1,66,86,87,-1,66,87,88,-1,89,90,66,-1,91,92,93,-1,93,92,94,-1,94,95,93,-1,93,95,96,-1,93,96,97,-1,81,98,79,-1,79,98,99,-1,79,99,69,-1,100,101,102,-1,103,104,82,-1,82,104,105,-1,82,105,83,-1,106,65,107,-1,107,65,108,-1,107,108,109,-1,110,111,23,-1,23,111,112,-1,23,112,24,-1,84,72,82,-1,82,72,2,-1,82,2,93,-1,93,2,3,-1,93,3,91,-1,91,3,67,-1,69,71,79,-1,79,71,113,-1,79,113,114,-1,115,116,117,-1,117,116,118,-1,117,118,119,-1,100,120,79,-1,79,120,121,-1,79,121,82,-1,82,121,122,-1,82,122,103,-1,123,124,97,-1,97,124,125,-1,97,125,126,-1,126,127,97,-1,97,127,128,-1,97,128,66,-1,66,128,129,-1,66,129,64,-1,90,130,66,-1,66,130,131,-1,66,131,132,-1,132,110,66,-1,66,110,23,-1,66,23,79,-1,79,23,17,-1,79,17,77,-1,77,17,75,-1,133,134,70,-1,70,134,135,-1,70,135,136,-1,113,137,114,-1,114,137,117,-1,114,117,138,-1,138,117,119,-1,96,139,97,-1,97,139,140,-1,97,140,123,-1,123,140,141,-1,123,141,142,-1,106,143,65,-1,65,143,144,-1,65,144,66,-1,66,144,145,-1,66,145,85,-1,146,33,34,-1,147,148,88,-1,88,148,149,-1,88,149,66,-1,66,149,150,-1,66,150,89,-1,151,20,21,-1,136,152,70,-1,70,152,153,-1,70,153,71,-1,154,10,9,-1,114,155,79,-1,79,155,156,-1,79,156,100,-1,100,156,157,-1,100,157,101,-1,158,14,15,-1,88,159,147,-1,147,159,146,-1,147,146,160,-1,160,146,34,-1,133,161,134,-1,134,161,151,-1,134,151,162,-1,162,151,21,-1,115,163,116,-1,116,163,154,-1,116,154,164,-1,164,154,9,-1,102,165,100,-1,100,165,158,-1,100,158,166,-1,166,158,15,-1,167,38,39,-1,168,29,28,-1,142,169,123,-1,123,169,167,-1,123,167,170,-1,170,167,39,-1,108,171,109,-1,109,171,168,-1,109,168,172,-1,172,168,28,-1,
        ]
    }
}
Shape{
    appearance Appearance {
        material  Material 	{
            diffuseColor 0.7529411764705882 0.7529411764705882 0.7529411764705882
            specularColor 0.3764705882352941 0.3764705882352941 0.3764705882352941
            ambientIntensity 0.7529
            transparency 0.0
            shininess 0.5
        }
    }
    geometry IndexedFaceSet {
        ccw TRUE
        solid FALSE
        coord DEF co Coordinate {
            point [
                -0.6767 -0.9298 0.3028, -0.6767 -0.9298 0.3031, -0.6791 -0.9115 0.3028, -0.6791 -0.9115 0.3031, -0.6862 -0.8944 0.3028, -0.6862 -0.8944 0.3031, -0.6975 -0.8798 0.3028, -0.6975 -0.8798 0.3031, -0.7121 -0.8685 0.3028, -0.7121 -0.8685 0.3031, -0.7292 -0.8615 0.3028, -0.7292 -0.8615 0.3031, -0.7475 -0.8591 0.3028, -0.7475 -0.8591 0.3031, -0.7658 -0.8615 0.3028, -0.7658 -0.8615 0.3031, -0.7829 -0.8685 0.3028, -0.7829 -0.8685 0.3031, -0.7975 -0.8798 0.3028, -0.7975 -0.8798 0.3031, -0.8088 -0.8944 0.3028, -0.8088 -0.8944 0.3031, -0.8158 -0.9115 0.3028, -0.8158 -0.9115 0.3031, -0.8182 -0.9298 0.3028, -0.8182 -0.9298 0.3031, -0.8158 -0.9481 0.3028, -0.8158 -0.9481 0.3031, -0.8088 -0.9652 0.3028, -0.8088 -0.9652 0.3031, -0.7975 -0.9798 0.3028, -0.7975 -0.9798 0.3031, -0.7829 -0.9911 0.3028, -0.7829 -0.9911 0.3031, -0.7658 -0.9982 0.3028, -0.7658 -0.9982 0.3031, -0.7475 -1.0006 0.3028, -0.7475 -1.0006 0.3031, -0.7292 -0.9982 0.3028, -0.7292 -0.9982 0.3031, -0.7121 -0.9911 0.3028, -0.7121 -0.9911 0.3031, -0.6975 -0.9798 0.3028, -0.6975 -0.9798 0.3031, -0.6862 -0.9652 0.3028, -0.6862 -0.9652 0.3031, -0.6791 -0.9481 0.3028, -0.6791 -0.9481 0.3031, -0.7475 -0.9298 0.3028
            ]
        }
        coordIndex [
            0,1,2,-1,2,1,3,-1,2,3,4,-1,4,3,5,-1,4,5,6,-1,6,5,7,-1,6,7,8,-1,8,7,9,-1,8,9,10,-1,10,9,11,-1,10,11,12,-1,12,11,13,-1,12,13,14,-1,14,13,15,-1,14,15,16,-1,16,15,17,-1,16,17,18,-1,18,17,19,-1,18,19,20,-1,20,19,21,-1,20,21,22,-1,22,21,23,-1,22,23,24,-1,24,23,25,-1,24,25,26,-1,26,25,27,-1,26,27,28,-1,28,27,29,-1,28,29,30,-1,30,29,31,-1,30,31,32,-1,32,31,33,-1,32,33,34,-1,34,33,35,-1,34,35,36,-1,36,35,37,-1,36,37,38,-1,38,37,39,-1,38,39,40,-1,40,39,41,-1,40,41,42,-1,42,41,43,-1,42,43,44,-1,44,43,45,-1,44,45,46,-1,46,45,47,-1,46,47,0,-1,0,47,1,-1,44,46,48,-1,48,46,0,-1,48,0,2,-1,38,40,48,-1,48,40,42,-1,48,42,44,-1,32,34,48,-1,48,34,36,-1,48,36,38,-1,26,28,48,-1,48,28,30,-1,48,30,32,-1,20,22,48,-1,48,22,24,-1,48,24,26,-1,14,16,48,-1,48,16,18,-1,48,18,20,-1,8,10,48,-1,48,10,12,-1,48,12,14,-1,2,4,48,-1,48,4,6,-1,48,6,8,-1,
        ]
    }
}
Shape{
    appearance Appearance {
        material  Material 	{
            diffuseColor 1.0 1.0 1.0
            specularColor 0.5019607843137255 0.5019607843137255 0.5019607843137255
            ambientIntensity 1.0
            transparency 0.0
            shininess 0.5
        }
    }
    geometry IndexedFaceSet {
        ccw TRUE
        solid FALSE
        coord DEF co Coordinate {
            point [
                -0.7677 -0.6988 0.0, -0.7677 -0.6988 0.0079, -0.7677 -0.2166 0.0, -0.7677 0.6988 0.0079, -0.7677 0.6988 0.0, 0.6102 -0.6988 0.0, 0.6102 -0.6988 0.0079, -0.0903 -0.6988 0.0, 0.7677 -0.5413 0.0, 0.7677 -0.5413 0.0079, 0.7677 0.6988 0.0, 0.7677 0.6988 0.0079, 0.7677 -0.2166 0.0, -0.0903 0.6988 0.0, -0.8287 -1.1811 0.0866, -0.8287 -1.185 0.0866, -0.6713 -1.1811 0.0866, -0.6713 -1.185 0.0866, -0.6713 -1.1811 0.0079, -0.6713 -1.185 0.0, -0.6713 -1.0669 0.0079, -0.6713 -1.0669 0.0, -0.6739 -1.0465 0.0, -0.6739 -1.0465 0.0079, -0.6818 -1.0276 0.0, -0.6818 -1.0276 0.0079, -0.6943 -1.0113 0.0, -0.6943 -1.0113 0.0079, -0.7106 -0.9987 0.0, -0.7106 -0.9987 0.0079, -0.7296 -0.9909 0.0, -0.7296 -0.9909 0.0079, -0.75 -0.9882 0.0, -0.75 -0.9882 0.0079, -0.7704 -0.9909 0.0, -0.7704 -0.9909 0.0079, -0.7894 -0.9987 0.0, -0.7894 -0.9987 0.0079, -0.8057 -1.0113 0.0, -0.8057 -1.0113 0.0079, -0.8182 -1.0276 0.0, -0.8182 -1.0276 0.0079, -0.8261 -1.0465 0.0, -0.8261 -1.0465 0.0079, -0.8287 -1.0669 0.0, -0.8287 -1.0669 0.0079, -0.8287 -1.1811 0.0079, -0.8287 -1.185 0.0, -0.6713 1.185 0.0866, -0.8287 1.185 0.0866, -0.6713 1.1811 0.0866, -0.8287 1.1811 0.0866, -0.8287 1.0669 0.0079, -0.8287 1.0669 0.0, -0.8261 1.0465 0.0, -0.8261 1.0465 0.0079, -0.8182 1.0276 0.0, -0.8182 1.0276 0.0079, -0.8057 1.0113 0.0, -0.8057 1.0113 0.0079, -0.7894 0.9987 0.0, -0.7894 0.9987 0.0079, -0.7704 0.9909 0.0, -0.7704 0.9909 0.0079, -0.75 0.9882 0.0, -0.75 0.9882 0.0079, -0.7296 0.9909 0.0, -0.7296 0.9909 0.0079, -0.7106 0.9987 0.0, -0.7106 0.9987 0.0079, -0.6943 1.0113 0.0, -0.6943 1.0113 0.0079, -0.6818 1.0276 0.0, -0.6818 1.0276 0.0079, -0.6739 1.0465 0.0, -0.6739 1.0465 0.0079, -0.6713 1.0669 0.0, -0.6713 1.0669 0.0079, -0.6713 1.1811 0.0079, -0.6713 1.185 0.0, -0.8287 1.1811 0.0079, -0.8287 1.185 0.0, -0.3287 -1.1811 0.0866, -0.3287 -1.185 0.0866, -0.1713 -1.1811 0.0866, -0.1713 -1.185 0.0866, -0.1713 -1.1811 0.0079, -0.1713 -1.185 0.0, -0.1713 -1.0669 0.0079, -0.1713 -1.0669 0.0, -0.1739 -1.0465 0.0, -0.1739 -1.0465 0.0079, -0.1818 -1.0276 0.0, -0.1818 -1.0276 0.0079, -0.1943 -1.0113 0.0, -0.1943 -1.0113 0.0079, -0.2106 -0.9987 0.0, -0.2106 -0.9987 0.0079, -0.2296 -0.9909 0.0, -0.2296 -0.9909 0.0079, -0.25 -0.9882 0.0, -0.25 -0.9882 0.0079, -0.2704 -0.9909 0.0, -0.2704 -0.9909 0.0079, -0.2894 -0.9987 0.0, -0.2894 -0.9987 0.0079, -0.3057 -1.0113 0.0, -0.3057 -1.0113 0.0079, -0.3182 -1.0276 0.0, -0.3182 -1.0276 0.0079, -0.3261 -1.0465 0.0, -0.3261 -1.0465 0.0079, -0.3287 -1.0669 0.0, -0.3287 -1.0669 0.0079, -0.3287 -1.1811 0.0079, -0.3287 -1.185 0.0, -0.1713 1.185 0.0866, -0.3287 1.185 0.0866, -0.1713 1.1811 0.0866, -0.3287 1.1811 0.0866, -0.3287 1.0669 0.0079, -0.3287 1.0669 0.0, -0.3261 1.0465 0.0, -0.3261 1.0465 0.0079, -0.3182 1.0276 0.0, -0.3182 1.0276 0.0079, -0.3057 1.0113 0.0, -0.3057 1.0113 0.0079, -0.2894 0.9987 0.0, -0.2894 0.9987 0.0079, -0.2704 0.9909 0.0, -0.2704 0.9909 0.0079, -0.25 0.9882 0.0, -0.25 0.9882 0.0079, -0.2296 0.9909 0.0, -0.2296 0.9909 0.0079, -0.2106 0.9987 0.0, -0.2106 0.9987 0.0079, -0.1943 1.0113 0.0, -0.1943 1.0113 0.0079, -0.1818 1.0276 0.0, -0.1818 1.0276 0.0079, -0.1739 1.0465 0.0, -0.1739 1.0465 0.0079, -0.1713 1.0669 0.0, -0.1713 1.0669 0.0079, -0.1713 1.1811 0.0079, -0.1713 1.185 0.0, -0.3287 1.1811 0.0079, -0.3287 1.185 0.0, 0.1713 -1.1811 0.0866, 0.1713 -1.185 0.0866, 0.3287 -1.1811 0.0866, 0.3287 -1.185 0.0866, 0.3287 -1.1811 0.0079, 0.3287 -1.185 0.0, 0.3287 -1.0669 0.0079, 0.3287 -1.0669 0.0, 0.3261 -1.0465 0.0, 0.3261 -1.0465 0.0079, 0.3182 -1.0276 0.0, 0.3182 -1.0276 0.0079, 0.3057 -1.0113 0.0, 0.3057 -1.0113 0.0079, 0.2894 -0.9987 0.0, 0.2894 -0.9987 0.0079, 0.2704 -0.9909 0.0, 0.2704 -0.9909 0.0079, 0.25 -0.9882 0.0, 0.25 -0.9882 0.0079, 0.2296 -0.9909 0.0, 0.2296 -0.9909 0.0079, 0.2106 -0.9987 0.0, 0.2106 -0.9987 0.0079, 0.1943 -1.0113 0.0, 0.1943 -1.0113 0.0079, 0.1818 -1.0276 0.0, 0.1818 -1.0276 0.0079, 0.1739 -1.0465 0.0, 0.1739 -1.0465 0.0079, 0.1713 -1.0669 0.0, 0.1713 -1.0669 0.0079, 0.1713 -1.1811 0.0079, 0.1713 -1.185 0.0, 0.3287 1.185 0.0866, 0.1713 1.185 0.0866, 0.3287 1.1811 0.0866, 0.1713 1.1811 0.0866, 0.1713 1.0669 0.0079, 0.1713 1.0669 0.0, 0.1739 1.0465 0.0, 0.1739 1.0465 0.0079, 0.1818 1.0276 0.0, 0.1818 1.0276 0.0079, 0.1943 1.0113 0.0, 0.1943 1.0113 0.0079, 0.2106 0.9987 0.0, 0.2106 0.9987 0.0079, 0.2296 0.9909 0.0, 0.2296 0.9909 0.0079, 0.25 0.9882 0.0, 0.25 0.9882 0.0079, 0.2704 0.9909 0.0, 0.2704 0.9909 0.0079, 0.2894 0.9987 0.0, 0.2894 0.9987 0.0079, 0.3057 1.0113 0.0, 0.3057 1.0113 0.0079, 0.3182 1.0276 0.0, 0.3182 1.0276 0.0079, 0.3261 1.0465 0.0, 0.3261 1.0465 0.0079, 0.3287 1.0669 0.0, 0.3287 1.0669 0.0079, 0.3287 1.1811 0.0079, 0.3287 1.185 0.0, 0.1713 1.1811 0.0079, 0.1713 1.185 0.0, 0.6713 -1.1811 0.0866, 0.6713 -1.185 0.0866, 0.8287 -1.1811 0.0866, 0.8287 -1.185 0.0866, 0.8287 -1.1811 0.0079, 0.8287 -1.185 0.0, 0.8287 -1.0669 0.0079, 0.8287 -1.0669 0.0, 0.8261 -1.0465 0.0, 0.8261 -1.0465 0.0079, 0.8182 -1.0276 0.0, 0.8182 -1.0276 0.0079, 0.8057 -1.0113 0.0, 0.8057 -1.0113 0.0079, 0.7894 -0.9987 0.0, 0.7894 -0.9987 0.0079, 0.7704 -0.9909 0.0, 0.7704 -0.9909 0.0079, 0.75 -0.9882 0.0, 0.75 -0.9882 0.0079, 0.7296 -0.9909 0.0, 0.7296 -0.9909 0.0079, 0.7106 -0.9987 0.0, 0.7106 -0.9987 0.0079, 0.6943 -1.0113 0.0, 0.6943 -1.0113 0.0079, 0.6818 -1.0276 0.0, 0.6818 -1.0276 0.0079, 0.6739 -1.0465 0.0, 0.6739 -1.0465 0.0079, 0.6713 -1.0669 0.0, 0.6713 -1.0669 0.0079, 0.6713 -1.1811 0.0079, 0.6713 -1.185 0.0, 0.8287 1.185 0.0866, 0.6713 1.185 0.0866, 0.8287 1.1811 0.0866, 0.6713 1.1811 0.0866, 0.6713 1.0669 0.0079, 0.6713 1.0669 0.0, 0.6739 1.0465 0.0, 0.6739 1.0465 0.0079, 0.6818 1.0276 0.0, 0.6818 1.0276 0.0079, 0.6943 1.0113 0.0, 0.6943 1.0113 0.0079, 0.7106 0.9987 0.0, 0.7106 0.9987 0.0079, 0.7296 0.9909 0.0, 0.7296 0.9909 0.0079, 0.75 0.9882 0.0, 0.75 0.9882 0.0079, 0.7704 0.9909 0.0, 0.7704 0.9909 0.0079, 0.7894 0.9987 0.0, 0.7894 0.9987 0.0079, 0.8057 1.0113 0.0, 0.8057 1.0113 0.0079, 0.8182 1.0276 0.0, 0.8182 1.0276 0.0079, 0.8261 1.0465 0.0, 0.8261 1.0465 0.0079, 0.8287 1.0669 0.0, 0.8287 1.0669 0.0079, 0.8287 1.1811 0.0079, 0.8287 1.185 0.0, 0.6713 1.1811 0.0079, 0.6713 1.185 0.0
            ]
        }
        coordIndex [
            0,1,2,-1,2,1,3,-1,2,3,4,-1,5,6,7,-1,7,6,1,-1,7,1,0,-1,5,8,6,-1,6,8,9,-1,10,11,12,-1,12,11,9,-1,12,9,8,-1,4,3,13,-1,13,3,11,-1,13,11,10,-1,14,15,16,-1,16,15,17,-1,16,17,18,-1,18,17,19,-1,18,19,20,-1,20,19,21,-1,20,21,22,-1,20,22,23,-1,23,22,24,-1,23,24,25,-1,25,24,26,-1,25,26,27,-1,27,26,28,-1,27,28,29,-1,29,28,30,-1,29,30,31,-1,31,30,32,-1,31,32,33,-1,33,32,34,-1,33,34,35,-1,35,34,36,-1,35,36,37,-1,37,36,38,-1,37,38,39,-1,39,38,40,-1,39,40,41,-1,41,40,42,-1,41,42,43,-1,43,42,44,-1,43,44,45,-1,45,44,46,-1,46,44,47,-1,46,47,14,-1,14,47,15,-1,19,17,47,-1,47,17,15,-1,24,44,26,-1,26,44,42,-1,26,42,40,-1,19,47,21,-1,21,47,44,-1,21,44,22,-1,22,44,24,-1,38,30,40,-1,40,30,28,-1,40,28,26,-1,38,36,30,-1,30,36,34,-1,30,34,32,-1,48,49,50,-1,50,49,51,-1,52,53,54,-1,52,54,55,-1,55,54,56,-1,55,56,57,-1,57,56,58,-1,57,58,59,-1,59,58,60,-1,59,60,61,-1,61,60,62,-1,61,62,63,-1,63,62,64,-1,63,64,65,-1,65,64,66,-1,65,66,67,-1,67,66,68,-1,67,68,69,-1,69,68,70,-1,69,70,71,-1,71,70,72,-1,71,72,73,-1,73,72,74,-1,73,74,75,-1,75,74,76,-1,75,76,77,-1,77,76,78,-1,78,76,79,-1,78,79,50,-1,50,79,48,-1,51,49,80,-1,80,49,81,-1,80,81,52,-1,52,81,53,-1,81,49,79,-1,79,49,48,-1,53,81,79,-1,79,76,53,-1,53,76,74,-1,53,74,72,-1,64,62,66,-1,66,62,60,-1,66,60,58,-1,58,56,66,-1,66,56,54,-1,66,54,53,-1,72,70,53,-1,53,70,68,-1,53,68,66,-1,82,83,84,-1,84,83,85,-1,84,85,86,-1,86,85,87,-1,86,87,88,-1,88,87,89,-1,88,89,90,-1,88,90,91,-1,91,90,92,-1,91,92,93,-1,93,92,94,-1,93,94,95,-1,95,94,96,-1,95,96,97,-1,97,96,98,-1,97,98,99,-1,99,98,100,-1,99,100,101,-1,101,100,102,-1,101,102,103,-1,103,102,104,-1,103,104,105,-1,105,104,106,-1,105,106,107,-1,107,106,108,-1,107,108,109,-1,109,108,110,-1,109,110,111,-1,111,110,112,-1,111,112,113,-1,113,112,114,-1,114,112,115,-1,114,115,82,-1,82,115,83,-1,87,85,115,-1,115,85,83,-1,87,115,89,-1,89,115,112,-1,89,112,110,-1,110,108,89,-1,89,108,106,-1,89,106,90,-1,106,104,102,-1,102,100,106,-1,106,100,98,-1,106,98,96,-1,96,94,106,-1,106,94,92,-1,106,92,90,-1,116,117,118,-1,118,117,119,-1,120,121,122,-1,120,122,123,-1,123,122,124,-1,123,124,125,-1,125,124,126,-1,125,126,127,-1,127,126,128,-1,127,128,129,-1,129,128,130,-1,129,130,131,-1,131,130,132,-1,131,132,133,-1,133,132,134,-1,133,134,135,-1,135,134,136,-1,135,136,137,-1,137,136,138,-1,137,138,139,-1,139,138,140,-1,139,140,141,-1,141,140,142,-1,141,142,143,-1,143,142,144,-1,143,144,145,-1,145,144,146,-1,146,144,147,-1,146,147,118,-1,118,147,116,-1,119,117,148,-1,148,117,149,-1,148,149,120,-1,120,149,121,-1,149,117,147,-1,147,117,116,-1,121,149,147,-1,147,144,121,-1,121,144,142,-1,121,142,140,-1,134,132,121,-1,121,132,130,-1,121,130,128,-1,128,126,121,-1,121,126,124,-1,121,124,122,-1,140,138,121,-1,121,138,136,-1,121,136,134,-1,150,151,152,-1,152,151,153,-1,152,153,154,-1,154,153,155,-1,154,155,156,-1,156,155,157,-1,156,157,158,-1,156,158,159,-1,159,158,160,-1,159,160,161,-1,161,160,162,-1,161,162,163,-1,163,162,164,-1,163,164,165,-1,165,164,166,-1,165,166,167,-1,167,166,168,-1,167,168,169,-1,169,168,170,-1,169,170,171,-1,171,170,172,-1,171,172,173,-1,173,172,174,-1,173,174,175,-1,175,174,176,-1,175,176,177,-1,177,176,178,-1,177,178,179,-1,179,178,180,-1,179,180,181,-1,181,180,182,-1,182,180,183,-1,182,183,150,-1,150,183,151,-1,155,153,183,-1,183,153,151,-1,157,155,183,-1,183,180,157,-1,157,180,178,-1,157,178,158,-1,164,178,176,-1,164,162,178,-1,178,162,160,-1,178,160,158,-1,176,174,164,-1,164,174,172,-1,164,172,166,-1,166,172,170,-1,166,170,168,-1,184,185,186,-1,186,185,187,-1,188,189,190,-1,188,190,191,-1,191,190,192,-1,191,192,193,-1,193,192,194,-1,193,194,195,-1,195,194,196,-1,195,196,197,-1,197,196,198,-1,197,198,199,-1,199,198,200,-1,199,200,201,-1,201,200,202,-1,201,202,203,-1,203,202,204,-1,203,204,205,-1,205,204,206,-1,205,206,207,-1,207,206,208,-1,207,208,209,-1,209,208,210,-1,209,210,211,-1,211,210,212,-1,211,212,213,-1,213,212,214,-1,214,212,215,-1,214,215,186,-1,186,215,184,-1,187,185,216,-1,216,185,217,-1,216,217,188,-1,188,217,189,-1,217,185,215,-1,215,185,184,-1,189,217,215,-1,202,200,189,-1,189,200,198,-1,189,198,196,-1,215,212,189,-1,189,212,210,-1,189,210,208,-1,196,194,189,-1,189,194,192,-1,189,192,190,-1,208,206,189,-1,189,206,204,-1,189,204,202,-1,218,219,220,-1,220,219,221,-1,220,221,222,-1,222,221,223,-1,222,223,224,-1,224,223,225,-1,224,225,226,-1,224,226,227,-1,227,226,228,-1,227,228,229,-1,229,228,230,-1,229,230,231,-1,231,230,232,-1,231,232,233,-1,233,232,234,-1,233,234,235,-1,235,234,236,-1,235,236,237,-1,237,236,238,-1,237,238,239,-1,239,238,240,-1,239,240,241,-1,241,240,242,-1,241,242,243,-1,243,242,244,-1,243,244,245,-1,245,244,246,-1,245,246,247,-1,247,246,248,-1,247,248,249,-1,249,248,250,-1,250,248,251,-1,250,251,218,-1,218,251,219,-1,223,221,251,-1,251,221,219,-1,223,251,225,-1,225,251,248,-1,234,232,225,-1,225,242,240,-1,248,246,225,-1,225,246,244,-1,225,244,242,-1,240,238,225,-1,225,238,236,-1,225,236,234,-1,232,230,225,-1,225,230,228,-1,225,228,226,-1,252,253,254,-1,254,253,255,-1,256,257,258,-1,256,258,259,-1,259,258,260,-1,259,260,261,-1,261,260,262,-1,261,262,263,-1,263,262,264,-1,263,264,265,-1,265,264,266,-1,265,266,267,-1,267,266,268,-1,267,268,269,-1,269,268,270,-1,269,270,271,-1,271,270,272,-1,271,272,273,-1,273,272,274,-1,273,274,275,-1,275,274,276,-1,275,276,277,-1,277,276,278,-1,277,278,279,-1,279,278,280,-1,279,280,281,-1,281,280,282,-1,282,280,283,-1,282,283,254,-1,254,283,252,-1,255,253,284,-1,284,253,285,-1,284,285,256,-1,256,285,257,-1,285,253,283,-1,283,253,252,-1,285,283,257,-1,257,283,280,-1,280,278,257,-1,257,278,276,-1,257,276,274,-1,257,268,258,-1,258,268,260,-1,274,272,257,-1,257,272,270,-1,257,270,268,-1,266,264,268,-1,268,264,262,-1,268,262,260,-1,
        ]
    }
}
Shape{
    appearance Appearance {
        material  Material 	{
            diffuseColor 0.0 0.0 0.0
            specularColor 0.0 0.0 0.0
            ambientIntensity 0.0
            transparency 0.0
            shininess 0.5
        }
    }
    geometry IndexedFaceSet {
        ccw TRUE
        solid FALSE
        coord DEF co Coordinate {
            point [
                -0.3246 -0.0581 0.0004, -0.3861 -0.2156 0.0004, -0.3246 -0.0581 0.0, -0.3861 -0.2156 0.0, -0.363 -0.2156 0.0004, -0.363 -0.2156 0.0, -0.3471 -0.1714 0.0004, -0.3471 -0.1714 0.0, -0.282 -0.1714 0.0004, -0.282 -0.1714 0.0, -0.267 -0.2156 0.0004, -0.267 -0.2156 0.0, -0.244 -0.2156 0.0004, -0.244 -0.2156 0.0, -0.3035 -0.0581 0.0004, -0.3035 -0.0581 0.0, -0.2874 -0.1541 0.0004, -0.34 -0.1541 0.0004, -0.3109 -0.0884 0.0004, -0.3124 -0.0829 0.0004, -0.3134 -0.0773 0.0004, -0.3139 -0.0773 0.0004, -0.3149 -0.0829 0.0004, -0.3163 -0.0884 0.0004, -0.2874 -0.1541 0.0, -0.34 -0.1541 0.0, -0.3109 -0.0884 0.0, -0.3124 -0.0829 0.0, -0.3134 -0.0773 0.0, -0.3139 -0.0773 0.0, -0.3149 -0.0829 0.0, -0.3163 -0.0884 0.0, -0.1485 -0.2156 0.0004, -0.1057 -0.2156 0.0004, -0.1485 -0.2156 0.0, -0.1057 -0.2156 0.0, -0.1057 -0.0581 0.0004, -0.1057 -0.0581 0.0, -0.1501 -0.0581 0.0004, -0.1501 -0.0581 0.0, -0.2324 -0.1349 0.0004, -0.2324 -0.1349 0.0, -0.2313 -0.1201 0.0, -0.2313 -0.1201 0.0004, -0.2271 -0.1045 0.0, -0.2271 -0.1045 0.0004, -0.2198 -0.091 0.0, -0.2198 -0.091 0.0004, -0.2086 -0.0786 0.0, -0.2086 -0.0786 0.0004, -0.2085 -0.0785 0.0, -0.2085 -0.0785 0.0004, -0.1913 -0.067 0.0, -0.1913 -0.067 0.0004, -0.1729 -0.0605 0.0, -0.1729 -0.0605 0.0004, -0.168 -0.2139 0.0, -0.168 -0.2139 0.0004, -0.1861 -0.2085 0.0, -0.1861 -0.2085 0.0004, -0.2026 -0.1989 0.0, -0.2026 -0.1989 0.0004, -0.2155 -0.1865 0.0, -0.2155 -0.1865 0.0004, -0.2246 -0.1724 0.0, -0.2246 -0.1724 0.0004, -0.2302 -0.156 0.0, -0.2302 -0.156 0.0004, -0.2008 -0.0975 0.0004, -0.1932 -0.0894 0.0004, -0.1817 -0.0819 0.0004, -0.1687 -0.0774 0.0004, -0.15 -0.0754 0.0004, -0.1268 -0.0754 0.0004, -0.1268 -0.1983 0.0004, -0.1492 -0.1983 0.0004, -0.1658 -0.1968 0.0004, -0.179 -0.1926 0.0004, -0.1898 -0.1863 0.0004, -0.1986 -0.1775 0.0004, -0.2053 -0.1667 0.0004, -0.2099 -0.1519 0.0004, -0.2113 -0.1353 0.0004, -0.21 -0.1197 0.0004, -0.2063 -0.1072 0.0004, -0.15 -0.0754 0.0, -0.1268 -0.0754 0.0, -0.1687 -0.0774 0.0, -0.1817 -0.0819 0.0, -0.1932 -0.0894 0.0, -0.2008 -0.0975 0.0, -0.2063 -0.1072 0.0, -0.21 -0.1197 0.0, -0.2113 -0.1353 0.0, -0.2099 -0.1519 0.0, -0.2053 -0.1667 0.0, -0.1986 -0.1775 0.0, -0.1898 -0.1863 0.0, -0.179 -0.1926 0.0, -0.1658 -0.1968 0.0, -0.1492 -0.1983 0.0, -0.1268 -0.1983 0.0, -0.075 -0.1983 0.0004, -0.075 -0.2156 0.0004, -0.075 -0.1983 0.0, -0.075 -0.2156 0.0, 0.0095 -0.2156 0.0004, 0.0095 -0.2156 0.0, 0.0095 -0.0581 0.0004, 0.0095 -0.0581 0.0, -0.0711 -0.0581 0.0004, -0.0711 -0.0581 0.0, -0.0711 -0.0754 0.0004, -0.0711 -0.0754 0.0, -0.0116 -0.0754 0.0004, -0.0116 -0.0754 0.0, -0.0116 -0.1273 0.0004, -0.0116 -0.1273 0.0, -0.0673 -0.1273 0.0004, -0.0673 -0.1273 0.0, -0.0673 -0.1445 0.0004, -0.0673 -0.1445 0.0, -0.0116 -0.1445 0.0004, -0.0116 -0.1445 0.0, -0.0116 -0.1983 0.0004, -0.0116 -0.1983 0.0, 0.0403 -0.1901 0.0004, 0.0403 -0.2074 0.0004, 0.0403 -0.1901 0.0, 0.0403 -0.2074 0.0, 0.0571 -0.2143 0.0004, 0.0836 -0.2175 0.0004, 0.0836 -0.2175 0.0, 0.0793 -0.2174 0.0, 0.0793 -0.2174 0.0004, 0.073 -0.2166 0.0, 0.0571 -0.2143 0.0, 0.0929 -0.2166 0.0, 0.103 -0.2155 0.0004, 0.103 -0.2155 0.0, 0.1183 -0.2103 0.0004, 0.1183 -0.2103 0.0, 0.1309 -0.2022 0.0004, 0.1309 -0.2022 0.0, 0.1428 -0.1897 0.0004, 0.1428 -0.1897 0.0, 0.1512 -0.1747 0.0004, 0.1512 -0.1747 0.0, 0.1559 -0.1581 0.0004, 0.1559 -0.1581 0.0, 0.1574 -0.1398 0.0004, 0.1574 -0.1398 0.0, 0.0773 -0.0562 0.0004, 0.0773 -0.0562 0.0, 0.0931 -0.0575 0.0, 0.0931 -0.0575 0.0004, 0.1107 -0.0626 0.0, 0.1107 -0.0626 0.0004, 0.1257 -0.0712 0.0, 0.1257 -0.0712 0.0004, 0.1399 -0.0849 0.0, 0.1399 -0.0849 0.0004, 0.1491 -0.0996 0.0, 0.1491 -0.0996 0.0004, 0.1552 -0.1174 0.0, 0.1552 -0.1174 0.0004, 0.0403 -0.0624 0.0004, 0.0403 -0.0624 0.0, 0.0585 -0.0575 0.0, 0.0585 -0.0575 0.0004, 0.0403 -0.0836 0.0004, 0.0403 -0.0836 0.0, 0.0771 -0.0735 0.0004, 0.0771 -0.0735 0.0, 0.058 -0.076 0.0, 0.058 -0.076 0.0004, 0.1363 -0.1385 0.0004, 0.1363 -0.1385 0.0, 0.1355 -0.1263 0.0, 0.1355 -0.1263 0.0004, 0.1313 -0.1094 0.0, 0.1313 -0.1094 0.0004, 0.1248 -0.0973 0.0, 0.1248 -0.0973 0.0004, 0.1153 -0.0868 0.0, 0.1153 -0.0868 0.0004, 0.1044 -0.0795 0.0, 0.1044 -0.0795 0.0004, 0.0927 -0.0752 0.0, 0.0927 -0.0752 0.0004, 0.0807 -0.2002 0.0004, 0.0807 -0.2002 0.0, 0.0954 -0.1986 0.0, 0.0954 -0.1986 0.0004, 0.1068 -0.1944 0.0, 0.1068 -0.1944 0.0004, 0.1165 -0.1878 0.0, 0.1165 -0.1878 0.0004, 0.1239 -0.18 0.0, 0.1239 -0.18 0.0004, 0.1304 -0.1691 0.0, 0.1304 -0.1691 0.0004, 0.1347 -0.1556 0.0, 0.1347 -0.1556 0.0004, 0.0431 -0.1917 0.0, 0.0431 -0.1917 0.0004, 0.0598 -0.1979 0.0, 0.0598 -0.1979 0.0004, 0.1709 -0.1983 0.0004, 0.1709 -0.2156 0.0004, 0.1709 -0.1983 0.0, 0.1709 -0.2156 0.0, 0.2515 -0.2156 0.0004, 0.2515 -0.2156 0.0, 0.2515 -0.0581 0.0004, 0.2515 -0.0581 0.0, 0.2304 -0.0581 0.0004, 0.2304 -0.0581 0.0, 0.2304 -0.1983 0.0004, 0.2304 -0.1983 0.0
            ]
        }
        coordIndex [
            0,1,2,-1,2,1,3,-1,1,4,3,-1,3,4,5,-1,4,6,5,-1,5,6,7,-1,6,8,7,-1,7,8,9,-1,8,10,9,-1,9,10,11,-1,10,12,11,-1,11,12,13,-1,12,14,13,-1,13,14,15,-1,14,0,15,-1,15,0,2,-1,16,8,17,-1,17,8,6,-1,18,14,16,-1,16,14,12,-1,16,12,8,-1,8,12,10,-1,18,19,14,-1,14,19,20,-1,14,20,0,-1,0,20,21,-1,0,21,22,-1,22,23,0,-1,0,23,17,-1,0,17,1,-1,1,17,6,-1,1,6,4,-1,16,17,24,-1,24,17,25,-1,18,16,26,-1,26,16,24,-1,18,26,27,-1,18,27,19,-1,19,27,28,-1,19,28,20,-1,21,20,29,-1,29,20,28,-1,21,29,30,-1,21,30,22,-1,22,30,31,-1,22,31,23,-1,17,23,25,-1,25,23,31,-1,32,33,34,-1,34,33,35,-1,33,36,35,-1,35,36,37,-1,36,38,37,-1,37,38,39,-1,40,41,42,-1,40,42,43,-1,43,42,44,-1,43,44,45,-1,45,44,46,-1,45,46,47,-1,47,46,48,-1,47,48,49,-1,49,48,50,-1,49,50,51,-1,51,50,52,-1,51,52,53,-1,53,52,54,-1,53,54,55,-1,55,54,39,-1,55,39,38,-1,32,34,56,-1,32,56,57,-1,57,56,58,-1,57,58,59,-1,59,58,60,-1,59,60,61,-1,61,60,62,-1,61,62,63,-1,63,62,64,-1,63,64,65,-1,65,64,66,-1,65,66,67,-1,67,66,41,-1,67,41,40,-1,45,47,68,-1,68,47,49,-1,68,49,69,-1,69,49,51,-1,69,51,70,-1,70,51,53,-1,70,53,71,-1,71,53,55,-1,71,55,72,-1,72,55,38,-1,72,38,73,-1,73,38,36,-1,73,36,74,-1,74,36,33,-1,74,33,75,-1,75,33,32,-1,75,32,76,-1,76,32,57,-1,76,57,77,-1,77,57,59,-1,77,59,78,-1,78,59,61,-1,78,61,79,-1,79,61,63,-1,79,63,80,-1,80,63,65,-1,80,65,81,-1,81,65,67,-1,81,67,82,-1,82,67,40,-1,82,40,83,-1,83,40,43,-1,83,43,84,-1,84,43,45,-1,84,45,68,-1,72,73,85,-1,85,73,86,-1,72,85,87,-1,72,87,71,-1,71,87,88,-1,71,88,70,-1,70,88,89,-1,70,89,69,-1,69,89,90,-1,69,90,68,-1,68,90,91,-1,68,91,84,-1,84,91,92,-1,84,92,83,-1,83,92,93,-1,83,93,82,-1,82,93,94,-1,82,94,81,-1,81,94,95,-1,81,95,80,-1,80,95,96,-1,80,96,79,-1,79,96,97,-1,79,97,78,-1,78,97,98,-1,78,98,77,-1,77,98,99,-1,77,99,76,-1,76,99,100,-1,76,100,75,-1,74,75,101,-1,101,75,100,-1,73,74,86,-1,86,74,101,-1,102,103,104,-1,104,103,105,-1,103,106,105,-1,105,106,107,-1,106,108,107,-1,107,108,109,-1,108,110,109,-1,109,110,111,-1,110,112,111,-1,111,112,113,-1,112,114,113,-1,113,114,115,-1,114,116,115,-1,115,116,117,-1,116,118,117,-1,117,118,119,-1,118,120,119,-1,119,120,121,-1,120,122,121,-1,121,122,123,-1,122,124,123,-1,123,124,125,-1,124,102,125,-1,125,102,104,-1,106,103,102,-1,102,124,106,-1,106,124,122,-1,106,122,108,-1,112,110,114,-1,114,110,108,-1,114,108,116,-1,116,108,122,-1,116,122,118,-1,118,122,120,-1,126,127,128,-1,128,127,129,-1,129,127,130,-1,131,132,133,-1,131,133,134,-1,134,133,135,-1,134,135,130,-1,130,135,136,-1,130,136,129,-1,132,131,137,-1,137,131,138,-1,137,138,139,-1,139,138,140,-1,139,140,141,-1,141,140,142,-1,141,142,143,-1,143,142,144,-1,143,144,145,-1,145,144,146,-1,145,146,147,-1,147,146,148,-1,147,148,149,-1,149,148,150,-1,149,150,151,-1,152,153,154,-1,152,154,155,-1,155,154,156,-1,155,156,157,-1,157,156,158,-1,157,158,159,-1,159,158,160,-1,159,160,161,-1,161,160,162,-1,161,162,163,-1,163,162,164,-1,163,164,165,-1,165,164,151,-1,165,151,150,-1,166,167,168,-1,166,168,169,-1,169,168,153,-1,169,153,152,-1,166,170,167,-1,167,170,171,-1,172,173,174,-1,172,174,175,-1,175,174,171,-1,175,171,170,-1,176,177,178,-1,176,178,179,-1,179,178,180,-1,179,180,181,-1,181,180,182,-1,181,182,183,-1,183,182,184,-1,183,184,185,-1,185,184,186,-1,185,186,187,-1,187,186,188,-1,187,188,189,-1,189,188,173,-1,189,173,172,-1,190,191,192,-1,190,192,193,-1,193,192,194,-1,193,194,195,-1,195,194,196,-1,195,196,197,-1,197,196,198,-1,197,198,199,-1,199,198,200,-1,199,200,201,-1,201,200,202,-1,201,202,203,-1,203,202,177,-1,203,177,176,-1,126,128,204,-1,126,204,205,-1,205,204,206,-1,205,206,207,-1,207,206,191,-1,207,191,190,-1,193,131,190,-1,190,131,134,-1,190,134,207,-1,207,134,130,-1,207,130,205,-1,205,130,127,-1,205,127,126,-1,170,166,175,-1,175,166,169,-1,175,169,172,-1,172,169,152,-1,172,152,189,-1,189,152,155,-1,189,155,187,-1,187,155,157,-1,187,157,185,-1,185,157,159,-1,185,159,183,-1,183,159,161,-1,183,161,181,-1,181,161,163,-1,181,163,179,-1,179,163,165,-1,179,165,176,-1,176,165,150,-1,176,150,203,-1,203,150,148,-1,203,148,201,-1,201,148,146,-1,201,146,199,-1,199,146,144,-1,199,144,197,-1,197,144,142,-1,197,142,195,-1,195,142,140,-1,195,140,193,-1,193,140,138,-1,193,138,131,-1,208,209,210,-1,210,209,211,-1,209,212,211,-1,211,212,213,-1,212,214,213,-1,213,214,215,-1,214,216,215,-1,215,216,217,-1,216,218,217,-1,217,218,219,-1,218,208,219,-1,219,208,210,-1,216,214,218,-1,218,214,212,-1,218,212,208,-1,208,212,209,-1,
        ]
    }
}
Shape{
    appearance Appearance {
        material  Material 	{
            diffuseColor 1.0 1.0 1.0
            specularColor 0.5019607843137255 0.5019607843137255 0.5019607843137255
            ambientIntensity 1.0
            transparency 0.0
            shininess 0.5
        }
    }
    geometry IndexedFaceSet {
        ccw TRUE
        solid FALSE
        coord DEF co Coordinate {
            point [
                -0.2874 -0.1541 0.0, -0.34 -0.1541 0.0, -0.3109 -0.0884 0.0, -0.3163 -0.0884 0.0, -0.3124 -0.0829 0.0, -0.3149 -0.0829 0.0, -0.3134 -0.0773 0.0, -0.3139 -0.0773 0.0, -0.1268 -0.0754 0.0, -0.1268 -0.1983 0.0, -0.15 -0.0754 0.0, -0.1492 -0.1983 0.0, -0.1658 -0.1968 0.0, -0.2113 -0.1353 0.0, -0.21 -0.1197 0.0, -0.2063 -0.1072 0.0, -0.1687 -0.0774 0.0, -0.179 -0.1926 0.0, -0.1898 -0.1863 0.0, -0.1986 -0.1775 0.0, -0.2053 -0.1667 0.0, -0.2099 -0.1519 0.0, -0.2008 -0.0975 0.0, -0.1932 -0.0894 0.0, -0.1817 -0.0819 0.0
            ]
        }
        coordIndex [
            0,1,2,-1,2,1,3,-1,2,3,4,-1,4,3,5,-1,4,5,6,-1,6,5,7,-1,8,9,10,-1,10,9,11,-1,10,11,12,-1,13,14,10,-1,10,14,15,-1,10,15,16,-1,12,17,10,-1,10,17,18,-1,10,18,19,-1,19,20,10,-1,10,20,21,-1,10,21,13,-1,22,23,15,-1,15,23,24,-1,15,24,16,-1,
        ]
    }
}